<?xml version="1.0" standalone="no"?>
<!DOCTYPE svg PUBLIC "-//W3C//DTD SVG 1.1//EN" "http://www.w3.org/Graphics/SVG/1.1/DTD/svg11.dtd" >
<svg>
<metadata>
Created by FontForge 20090914 at Tue Jun 20 16:16:33 2017
 By www-data
Copyright (c) 2015 by M&#195;&#130;ns Greb&#226;&#128;&#176;ck. All rights reserved.
</metadata>
<defs>
<font id="KrinkesRegularPERSONALUSE" horiz-adv-x="422" >
  <font-face 
    font-family="Krinkes Regular PERSONAL USE"
    font-weight="400"
    font-stretch="normal"
    units-per-em="1000"
    panose-1="0 0 0 0 0 0 0 0 0 0"
    ascent="750"
    descent="-250"
    x-height="382"
    cap-height="523"
    bbox="-4051 -662.995 1129 908.002"
    underline-thickness="50"
    underline-position="-50"
    unicode-range="U+000D-U+FB02"
  />
<missing-glyph horiz-adv-x="187" 
 />
    <glyph glyph-name="fi" unicode="fi" horiz-adv-x="534" 
d="M87 348c26 65.333 60.0117 114.835 102.012 148.502s88.667 50.5 140 50.5c21.333 0 38.333 -4.83301 51 -14.5s21.334 -22 26.001 -37s5.5 -32 2.5 -51s-9.16699 -37.5 -18.5 -55.5c-8.66699 -16.667 -17.667 -30.5 -27 -41.5s-18.333 -19.667 -27 -26
s-16.834 -10.833 -24.501 -13.5s-13.834 -4 -18.501 -4c-18.667 0 -30.834 7.66699 -36.501 23s-4.5 33.666 3.5 54.999c10 24 23.167 42.833 39.5 56.5s34.5 20.5 54.5 20.5c3.33301 0 7.66602 -0.666992 12.999 -2c1.33301 13.333 -0.833984 24.333 -6.50098 33
s-15.167 13 -28.5 13s-26.333 -4.5 -39 -13.5s-24.834 -20.833 -36.501 -35.5s-22.334 -31.334 -32.001 -50.001s-17.834 -37.334 -24.501 -56.001l-42 -104c2 0 3.83301 -0.166992 5.5 -0.5s3.16699 -0.5 4.5 -0.5c52.667 -2 100.167 6.33301 142.5 25
s76.166 52.667 101.499 102c5.33301 1.33301 11 2.66602 17 3.99902c5.33301 1.33301 11.166 2.33301 17.499 3s12.833 1 19.5 1c14 0 25.833 -1.66699 35.5 -5s16.667 -9.33301 21 -18s5.66602 -20 3.99902 -34s-6.83398 -31.667 -15.501 -53
c-4 -10 -10.333 -24.167 -19 -42.5l-26 -53.5l-32 -66c-5.33301 -13.333 -4.66602 -22.666 2.00098 -27.999s15.834 -6.83301 27.501 -4.5s24.167 8.5 37.5 18.5s24.333 24 33 42l17 -28c-6.66699 -16 -15.834 -30.833 -27.501 -44.5s-24.667 -25.5 -39 -35.5
s-29.666 -18 -45.999 -24s-32.5 -9 -48.5 -9c-32.667 0 -55.334 10.667 -68.001 32s-10.334 53 6.99902 95c3.33301 8 8.83301 19.5 16.5 34.5l24 47.5l23 47l15.5 33c1.33301 2.66699 2.16602 5.33398 2.49902 8.00098s0.833008 5.33398 1.5 8.00098
c-7.33301 -16.667 -18.333 -31 -33 -43s-31.167 -22.167 -49.5 -30.5s-37.5 -14.833 -57.5 -19.5s-38.333 -7.33398 -55 -8.00098c2.66699 -9.33301 3.5 -21 2.5 -35s-3.33301 -29.167 -7 -45.5s-8.5 -33.5 -14.5 -51.5s-13 -35.333 -21 -52
c-29.333 -61.333 -60.333 -108 -93 -140s-65 -48 -97 -48s-54.5 10.833 -67.5 32.5s-10.833 53.167 6.5 94.5zM130.012 22.002c13.333 26.667 23.168 51.168 29.501 73.501s9.83301 41.333 10.5 57s-1.66602 27.667 -6.99902 36s-13 12.166 -23 11.499l-108 -261
c-5.33301 -12.667 -6.33301 -22 -3 -28s9.66602 -6.5 18.999 -1.5s21.166 16.5 35.499 34.5s29.833 44 46.5 78zM593.014 487.003c0 -16.667 -6 -31 -18 -43s-26.333 -18 -43 -18c-17.333 0 -32 6 -44 18s-18 26.333 -18 43s6 31 18 43s26.667 18 44 18
c16.667 0 31 -6 43 -18s18 -26.333 18 -43z" />
    <glyph glyph-name="t_r" unicode="tr" horiz-adv-x="464" 
d="M225 410l-125.003 -304c-5.33301 -12.667 -4.66602 -21.667 2.00098 -27s15.834 -7 27.501 -5s24.167 8 37.5 18s24.333 24 33 42l17 -28c-6.66699 -16 -15.834 -30.833 -27.501 -44.5s-24.667 -25.5 -39 -35.5s-29.666 -18 -45.999 -24s-32.5 -9 -48.5 -9
s-29.833 2.66699 -41.5 8s-20.5 13.333 -26.5 24s-8.66699 24 -8 40s5.33398 34.333 14.001 55l120 290h-67l28 51h60l12 30l120 23l-22 -53h50l-28 -51h-42zM369.997 462c19.333 0 32 -7.5 38 -22.5s4.66699 -33.167 -4 -54.5c-6 -16 -13.333 -29 -22 -39h81
c-2 -6 -5.66699 -15.333 -11 -28l-18 -44l-21.5 -52l-21.5 -51l-17.5 -41.5c-5 -11.667 -8.16699 -19.5 -9.5 -23.5c-5.33301 -12.667 -4.66602 -21.667 2.00098 -27s15.834 -7 27.501 -5s24.167 8 37.5 18s24.333 24 33 42l17 -28
c-6.66699 -16 -15.834 -30.833 -27.501 -44.5s-24.667 -25.5 -39 -35.5s-29.666 -18 -45.999 -24s-32.5 -9 -48.5 -9s-29.833 2.66699 -41.5 8s-20.334 13.333 -26.001 24s-8.16699 24 -7.5 40s5.33398 34.333 14.001 55l80 193c-10 -3.33301 -19.667 -5 -29 -5
c-18.667 0 -31 7.5 -37 22.5s-4.33301 33.167 5 54.5c9.33301 24.667 22.166 43.667 38.499 57s34.166 20 53.499 20z" />
    <glyph glyph-name="f_t" unicode="ft" horiz-adv-x="536" 
d="M87 348c26 65.333 59.9951 114.832 101.995 148.499s88.667 50.5 140 50.5c30.667 0 52.334 -9.5 65.001 -28.5s17.667 -41.5 15 -67.5h58l16 40l120 23l-26 -63h94l-28 -51h-86l-38.5 -93l-38 -91.5l-30 -73c-8.33301 -20.333 -13.166 -32.5 -14.499 -36.5
c-5.33301 -12.667 -4.66602 -21.667 2.00098 -27s15.834 -7 27.501 -5s24.167 8 37.5 18s24.333 24 33 42l17 -28c-6.66699 -16 -15.834 -30.833 -27.501 -44.5s-24.667 -25.5 -39 -35.5s-29.666 -18 -45.999 -24s-32.5 -9 -48.5 -9s-29.833 2.66699 -41.5 8
s-20.5 13.333 -26.5 24s-8.66699 24 -8 40s5.33398 34.333 14.001 55l6 15c-34.667 -25.333 -78.667 -40.666 -132 -45.999l-11 -36.5c-4 -13 -9.33301 -26.167 -16 -39.5c-29.333 -61.333 -60.333 -108 -93 -140s-65 -48 -97 -48s-54.5 10.833 -67.5 32.5
s-10.833 53.167 6.5 94.5zM374.995 227.999l35.5059 87.5029l35.5 84.5h-51c-0.666992 -4 -2.33398 -7.66699 -5.00098 -11c-8.66699 -16.667 -17.667 -30.5 -27 -41.5s-18.333 -19.667 -27 -26s-16.834 -10.833 -24.501 -13.5s-13.834 -4 -18.501 -4
c-18.667 0 -31.167 7.66699 -37.5 23s-4.83301 33.666 4.5 54.999c11.333 24.667 26.333 42.667 45 54s38 17 58 17c4.66699 13.333 4 25 -2 35s-15.667 15 -29 15s-26.333 -4.5 -39 -13.5s-24.834 -20.833 -36.501 -35.5s-22.334 -31.334 -32.001 -50.001
s-17.834 -37.334 -24.501 -56.001l-54 -131c40.667 -3.33301 62 -28.333 64 -75c19.333 0.666992 37.666 3.5 54.999 8.5s33 11.5 47 19.5s26.333 17.167 37 27.5s19.334 20.833 26.001 31.5v-1zM130.001 22.002c13.333 26.667 22.6689 49.668 28.002 69.001
s7.5 35.166 6.5 47.499s-4.83301 21.333 -11.5 27s-15 8.16699 -25 7.5l-96 -234c-5.33301 -12.667 -6.33301 -22 -3 -28s9.66602 -6.5 18.999 -1.5s21.166 16.5 35.499 34.5s29.833 44 46.5 78z" />
    <glyph glyph-name="f_r" unicode="fr" horiz-adv-x="606" 
d="M605 346c-2 -6 -5.6582 -15.3291 -10.9912 -27.9961l-18 -44l-21.5 -52l-21.5 -51l-17.5 -41.5c-5 -11.667 -8.16699 -19.5 -9.5 -23.5c-5.33301 -12.667 -4.66602 -21.667 2.00098 -27s15.834 -7 27.501 -5s24.167 8 37.5 18s24.333 24 33 42l17 -28
c-6.66699 -16 -15.834 -30.833 -27.501 -44.5s-24.667 -25.5 -39 -35.5s-29.666 -18 -45.999 -24s-32.5 -9 -48.5 -9s-29.833 2.66699 -41.5 8s-20.334 13.333 -26.001 24s-8.16699 24 -7.5 40s5.33398 34.333 14.001 55l76 184c-15.333 -22 -31.833 -42.167 -49.5 -60.5
s-37.334 -34.333 -59.001 -48s-45.5 -24.667 -71.5 -33s-55 -13.166 -87 -14.499c3.33301 -36 -7.66699 -81 -33 -135c-29.333 -61.333 -60.333 -108 -93 -140s-65 -48 -97 -48s-54.5 10.833 -67.5 32.5s-10.833 53.167 6.5 94.5l161 396c26 65.333 58.5 114.833 97.5 148.5
s84.167 50.5 135.5 50.5c21.333 0 38.333 -4.83301 51 -14.5s21.334 -22 26.001 -37s5.5 -32 2.5 -51s-9.16699 -37.5 -18.5 -55.5c-8.66699 -16.667 -17.667 -30.5 -27 -41.5s-18.333 -19.667 -27 -26s-16.834 -10.833 -24.501 -13.5s-13.834 -4 -18.501 -4
c-18.667 0 -30.834 7.66699 -36.501 23s-4.5 33.666 3.5 54.999c10 24 23.167 42.833 39.5 56.5s34.5 20.5 54.5 20.5c3.33301 0 7.66602 -0.666992 12.999 -2c1.33301 13.333 -0.833984 24.333 -6.50098 33s-15.167 13 -28.5 13s-25.833 -4.5 -37.5 -13.5
s-22.834 -20.833 -33.501 -35.5s-20.334 -31.334 -29.001 -50.001s-16.334 -37.334 -23.001 -56.001l-54 -131c18.667 -0.666992 34 -7.66699 46 -21c26 0 49.667 2.16699 71 6.5s41.333 11 60 20s36.5 20.833 53.5 35.5s33.833 32.667 50.5 54
c-11.333 5.33301 -18.333 14.666 -21 27.999s-0.333984 28.666 6.99902 45.999c9.33301 24.667 22.166 43.667 38.499 57s34.166 20 53.499 20c16.667 0 27.667 -4.66699 33 -14s7.5 -20.333 6.5 -33s-4.33301 -25.5 -10 -38.5s-11.5 -23.5 -17.5 -31.5h88zM130.009 22.0039
c13.333 26.667 22.6689 49.668 28.002 69.001s7.5 35.166 6.5 47.499s-4.83301 21.333 -11.5 27s-15 8.16699 -25 7.5l-96 -234c-5.33301 -12.667 -6.33301 -22 -3 -28s9.66602 -6.5 18.999 -1.5s21.166 16.5 35.499 34.5s29.833 44 46.5 78z" />
    <glyph glyph-name="T_h" unicode="Th" horiz-adv-x="659" 
d="M514 530c12 -21.333 8.33105 -55.668 -11.002 -103.001l-27 -66c14 9.33301 28.333 16.5 43 21.5s29.334 7.5 44.001 7.5c32 0 54.333 -10.833 67 -32.5s10.667 -53.167 -6 -94.5l-65 -157c-4.66699 -12.667 -3.66699 -21.667 3 -27s15.667 -7 27 -5s23.666 8 36.999 18
s24.333 24 33 42l17 -28c-6.66699 -16 -15.834 -30.833 -27.501 -44.5s-24.667 -25.5 -39 -35.5s-29.666 -18 -45.999 -24s-32.5 -9 -48.5 -9s-29.833 2.66699 -41.5 8s-20.334 13.333 -26.001 24s-8.16699 24 -7.5 40s5.33398 34.333 14.001 55l65 156
c4 10 4.16699 17.833 0.5 23.5s-9.5 8.66699 -17.5 9s-17.167 -1.66699 -27.5 -6s-20.5 -11.166 -30.5 -20.499l-80 -194c-5.33301 -14 -6 -25 -2 -33s13.667 -12 29 -12h10l-21 -43c-5.33301 -1.33301 -11 -2.66602 -17 -3.99902c-10 -2 -22.333 -3 -37 -3
c-38 0 -61.667 10.333 -71 31s-5 53 13 97l138 341l2 7c-17.333 -2 -33.833 -1.83301 -49.5 0.5s-32.5 5.16602 -50.5 8.49902l-160 -391c-5.33301 -14 -6.16602 -25.167 -2.49902 -33.5s13.167 -12.5 28.5 -12.5h10l-20 -43c-5.33301 -1.33301 -11 -2.66602 -17 -3.99902
c-5.33301 -1.33301 -11.333 -2.33301 -18 -3s-13.334 -1 -20.001 -1c-38 0 -61.667 10.5 -71 31.5s-5 53.833 13 98.5l138 338l70 27c-2 0.666992 -5 1 -9 1c-19.333 0.666992 -39.166 -1.33301 -59.499 -6s-40.5 -11.834 -60.5 -21.501s-39.167 -21 -57.5 -34
s-35.166 -26.833 -50.499 -41.5l-20 21l80 105c34 14 65.167 21.5 93.5 22.5s59.5 -1.83301 93.5 -8.5c13.333 -2.66699 28.833 -5.5 46.5 -8.5s36.5 -5 56.5 -6s40.5 -0.666992 61.5 1s41.5 6.16699 61.5 13.5z" />
    <glyph glyph-name="T_r" unicode="Tr" horiz-adv-x="580" 
d="M443 439c-14 -8.66699 -27.0039 -13.1689 -39.0039 -13.502s-23.5 1.66699 -34.5 6s-21.833 10 -32.5 17s-21.667 13.5 -33 19.5l-156 -381c-5.33301 -14 -6.16602 -25.167 -2.49902 -33.5s13.167 -12.5 28.5 -12.5h10l-20 -43
c-5.33301 -1.33301 -11 -2.66602 -17 -3.99902c-5.33301 -1.33301 -11.333 -2.33301 -18 -3s-13.334 -1 -20.001 -1c-38 0 -61.667 10.5 -71 31.5s-5 53.833 13 98.5l138 338l69 27c-1.33301 0 -2.66602 0.166992 -3.99902 0.5s-2.66602 0.5 -3.99902 0.5
c-19.333 1.33301 -39.166 -0.5 -59.499 -5.5s-40.5 -12.167 -60.5 -21.5s-39.167 -20.666 -57.5 -33.999s-35.166 -27.333 -50.499 -42l-20 21l80 105c34 14 65.167 21.5 93.5 22.5s59.5 -1.83301 93.5 -8.5c13.333 -2.66699 27.333 -5.16699 42 -7.5
s30.5 -3.83301 47.5 -4.5s35.5 -0.166992 55.5 1.5s42 5.16699 66 10.5zM451.996 409.998c19.333 0 32 -7.5 38 -22.5s4.66699 -33.167 -4 -54.5l-9.5 -20c-3 -6 -6.5 -11.667 -10.5 -17h92l-16.5 -41l-24 -58l-23 -56c-7 -17.333 -11.833 -29 -14.5 -35
c-5.33301 -12.667 -4.66602 -21.667 2.00098 -27s15.834 -7 27.501 -5s24.167 8 37.5 18s24.333 24 33 42l17 -28c-6.66699 -16 -15.834 -30.833 -27.501 -44.5s-24.667 -25.5 -39 -35.5s-29.666 -18 -45.999 -24s-32.5 -9 -48.5 -9s-29.833 2.66699 -41.5 8
s-20.334 13.333 -26.001 24s-8.16699 24 -7.5 40s5.33398 34.333 14.001 55l61 148c-14 -8 -28.667 -12 -44 -12c-18.667 0 -31 7.5 -37 22.5s-4.33301 33.167 5 54.5c9.33301 24.667 22.166 43.667 38.499 57s34.166 20 53.499 20z" />
    <glyph glyph-name="F_r" unicode="Fr" horiz-adv-x="620" 
d="M493 439c-18.667 -11.333 -36.8369 -15.3359 -54.5039 -12.0029s-35 9.33301 -52 18l-51 27c-17 9.33301 -34.5 14 -52.5 14h-2l-92 -223h152l-19 -51h-154l-51 -125c-5.33301 -14 -6 -25.167 -2 -33.5s13.667 -12.5 29 -12.5h9l-20 -43
c-5.33301 -1.33301 -11 -2.66602 -17 -3.99902c-5.33301 -1.33301 -11.166 -2.33301 -17.499 -3s-12.833 -1 -19.5 -1c-38.667 0 -62.667 10.5 -72 31.5s-5 53.833 13 98.5l121 296l106 66c-13.333 -2.66699 -28.166 -6.66699 -44.499 -12s-32.833 -11.666 -49.5 -18.999
s-32.667 -16 -48 -26s-29 -21 -41 -33l-20 21l52 72c16.667 6.66699 32.667 12.5 48 17.5s31 9 47 12s32.833 5.16699 50.5 6.5s37.5 2 59.5 2c13.333 0 28.333 -1 45 -3s34.834 -3.66699 54.501 -5s40.334 -1.66602 62.001 -0.999023s44.167 3.66699 67.5 9z
M491.997 409.997c19.333 0 32 -7.5 38 -22.5s4.66699 -33.167 -4 -54.5l-9.5 -20c-3 -6 -6.5 -11.667 -10.5 -17h92l-16.5 -41l-24 -58l-23 -56c-7 -17.333 -11.833 -29 -14.5 -35c-5.33301 -12.667 -4.66602 -21.667 2.00098 -27s15.834 -7 27.501 -5s24.167 8 37.5 18
s24.333 24 33 42l17 -28c-6.66699 -16 -15.834 -30.833 -27.501 -44.5s-24.667 -25.5 -39 -35.5s-29.666 -18 -45.999 -24s-32.5 -9 -48.5 -9s-29.833 2.66699 -41.5 8s-20.334 13.333 -26.001 24s-8.16699 24 -7.5 40s5.33398 34.333 14.001 55l61 148
c-14 -8 -28.667 -12 -44 -12c-18.667 0 -31 7.5 -37 22.5s-4.33301 33.167 5 54.5c9.33301 24.667 22.166 43.667 38.499 57s34.166 20 53.499 20z" />
    <glyph glyph-name=".notdef" horiz-adv-x="187" 
 />
    <glyph glyph-name="NULL" horiz-adv-x="0" 
 />
    <glyph glyph-name="NULL" horiz-adv-x="0" 
 />
    <glyph glyph-name="nonmarkingreturn" unicode="&#xd;" horiz-adv-x="187" 
 />
    <glyph glyph-name="space" unicode=" " horiz-adv-x="187" 
 />
    <glyph glyph-name="exclam" unicode="!" horiz-adv-x="261" 
d="M167 59c0 -18 -6.5 -33.5 -19.5 -46.5s-28.833 -19.5 -47.5 -19.5s-34.5 6.5 -47.5 19.5s-19.5 28.5 -19.5 46.5c0 18.667 6.5 34.5 19.5 47.5s28.833 19.5 47.5 19.5s34.5 -6.5 47.5 -19.5s19.5 -28.833 19.5 -47.5zM356 461
c-13.333 -28.667 -29.3311 -56.668 -47.998 -84.001s-37.5 -52.833 -56.5 -76.5l-53 -64c-16.333 -19 -28.833 -34.167 -37.5 -45.5h-35c18.667 38 34.5 75.833 47.5 113.5s23.667 71.834 32 102.501s14.666 56.167 18.999 76.5s7.5 32.166 9.5 35.499
c8 16.667 20.667 28 38 34s34.666 5.33301 51.999 -2c16.667 -8 28.167 -20.667 34.5 -38s5.5 -34.666 -2.5 -51.999z" />
    <glyph glyph-name="quotedbl" unicode="&#x22;" horiz-adv-x="374" 
d="M261 437h-1c-4 -10 -10 -19 -18 -27s-17.333 -16.667 -28 -26l-35 -30.5c-12.667 -11 -25.667 -24.5 -39 -40.5l-35 14l36 110c-5.33301 8 -8 18.667 -8 32c0 18.667 6.5 34.5 19.5 47.5s28.833 19.5 47.5 19.5c13.333 0 25.333 -3.5 36 -10.5s18.667 -16.167 24 -27.5
c5.33301 11.333 13.333 20.5 24 27.5s22.667 10.5 36 10.5c18.667 0 34.5 -6.5 47.5 -19.5s19.5 -28.833 19.5 -47.5c0 -15.333 -3.5 -28.5 -10.5 -39.5s-16.333 -21.833 -28 -32.5l-40.5 -35.5c-15.333 -13 -31.333 -29.167 -48 -48.5l-35 14z" />
    <glyph glyph-name="numbersign" unicode="#" 
d="M398 423l-36 -83h49l-29 -69h-50l-25 -58h47l-29 -69h-47l-41 -95h-74l40 95h-55l-41 -95h-74l40 95h-52l29 69h53l25 58h-50l29 69h50l36 83h75l-36 -83h55l36 83h75zM177 213h56l25 58h-56z" />
    <glyph glyph-name="dollar" unicode="$" horiz-adv-x="386" 
d="M301 523c9.33301 0 19.001 -0.999023 29.001 -2.99902l21 61h34l-26 -71c24 -12 39.667 -31.167 47 -57.5s1.33301 -55.833 -18 -88.5c-12 -21.333 -26 -35.666 -42 -42.999s-30 -7.33301 -42 0s-18.833 19.166 -20.5 35.499s2.16602 32.5 11.499 48.5
c9.33301 15.333 21.5 26.166 36.5 32.499s28.5 5.83301 40.5 -1.5c0.666992 11.333 -3.66602 21.666 -12.999 30.999s-23.666 15.666 -42.999 18.999c-22.667 3.33301 -44 -1 -64 -13s-34.333 -28.333 -43 -49c-10 -22.667 -9.33301 -44.667 2 -66s30 -40.333 56 -57
c35.333 -21.333 60.666 -47 75.999 -77s15.333 -64.667 0 -104c-13.333 -31.333 -35 -59 -65 -83s-64.333 -39.667 -103 -47l-17 -51h-33l16 47c-5.33301 0 -10.333 -0.166992 -15 -0.5s-9.66699 -0.166016 -15 0.500977l-17 -47h-33l18 53c-18 5.33301 -32.833 14 -44.5 26
s-20.167 25.667 -25.5 41s-7.33301 31.833 -6 49.5s6.33301 34.5 15 50.5c10 19.333 23.167 34.333 39.5 45s31.833 12 46.5 4c12 -6.66699 18.833 -18.334 20.5 -35.001s-2.16602 -32.667 -11.499 -48c-8.66699 -14.667 -19.834 -25.167 -33.501 -31.5
s-26.5 -7.16602 -38.5 -2.49902c-2 -12.667 4 -25.5 18 -38.5s32.333 -21.833 55 -26.5c11.333 -2.66699 23.5 -2.66699 36.5 0s25.5 7.33398 37.5 14.001s22.833 15.167 32.5 25.5s17.167 22.166 22.5 35.499c10 26.667 8.33301 49.334 -5 68.001s-36 39 -68 61
c-16 10.667 -29.333 23.667 -40 39s-18.167 32 -22.5 50s-5.33301 36.333 -3 55s8.83301 37 19.5 55c14.667 25.333 34.667 46 60 62s52.666 26 81.999 30l21 60h34l-20 -58v0z" />
    <glyph glyph-name="percent" unicode="%" horiz-adv-x="673" 
d="M657 390l-181.001 -122h1c38 0 67.167 -6.83301 87.5 -20.5s32.833 -30.667 37.5 -51s2.66699 -42.333 -6 -66s-22.834 -45.667 -42.501 -66s-44.167 -37.333 -73.5 -51s-61.666 -20.5 -96.999 -20.5c-27.333 0 -50.333 3.16699 -69 9.5s-33.667 15 -45 26
s-19 23.667 -23 38s-4.66699 29.5 -2 45.5l-166 -112h-84l181 122h-2c-38 0 -67.167 6.83301 -87.5 20.5s-32.833 30.667 -37.5 51s-2.66699 42.333 6 66s22.834 45.667 42.501 66s44 37.333 73 51s61.5 20.5 97.5 20.5c27.333 0 50.333 -3.33301 69 -10
s33.667 -15.5 45 -26.5s18.833 -23.667 22.5 -38s4.16699 -29.5 1.5 -45.5l167 113h85zM464.999 227c-12 0 -23.5 -4.66699 -34.5 -14s-21 -21 -30 -35s-16.5 -29.167 -22.5 -45.5s-9.83301 -31.5 -11.5 -45.5s-0.5 -25.667 3.5 -35s11.333 -14 22 -14
s21.334 4.66699 32.001 14s20.667 21 30 35s17.166 29.167 23.499 45.5s10.5 31.5 12.5 45.5s1.16699 25.667 -2.5 35s-11.167 14 -22.5 14zM184.999 163c11.333 0 22.667 4.66699 34 14s21.5 21 30.5 35s16.5 29.167 22.5 45.5s9.83301 31.5 11.5 45.5s0.5 25.667 -3.5 35
s-11.333 14 -22 14s-21.334 -4.66699 -32.001 -14s-20.667 -21 -30 -35s-17.166 -29.167 -23.499 -45.5s-10.5 -31.5 -12.5 -45.5s-1.16699 -25.667 2.5 -35s11.167 -14 22.5 -14z" />
    <glyph glyph-name="ampersand" unicode="&#x26;" horiz-adv-x="652" 
d="M703 232c-4.66699 -13.333 -11.5 -28.0029 -20.5 -44.0029s-20.167 -31.833 -33.5 -47.5s-28.5 -30.5 -45.5 -44.5s-35.5 -26 -55.5 -36c-10 -21.333 -23 -41.833 -39 -61.5s-35.5 -37.167 -58.5 -52.5s-49.667 -27.666 -80 -36.999s-64.5 -14.333 -102.5 -15
c-50.667 -0.666992 -93.5 7.33301 -128.5 24s-62.5 38.334 -82.5 65.001s-32.667 56.334 -38 89.001s-3.66602 64.167 5.00098 94.5s24.167 57.833 46.5 82.5s51.166 42.334 86.499 53.001c-1.33301 8 -2 16.167 -2 24.5s0.333008 16.5 1 24.5c2 24 7.83301 45.667 17.5 65
s21.834 35.833 36.501 49.5s31 24.167 49 31.5s36.333 11.166 55 11.499s36.667 -3.16699 54 -10.5s33 -18.666 47 -33.999c16 -16.667 25.167 -36.667 27.5 -60s-1.5 -45.666 -11.5 -66.999s-26.167 -39.5 -48.5 -54.5s-49.833 -22.167 -82.5 -21.5
c39.333 -53.333 78.666 -90.166 117.999 -110.499s76.333 -27.833 111 -22.5c2 9.33301 3.33301 18.833 4 28.5s0.666992 19.167 0 28.5c-11.333 -8 -24.333 -12 -39 -12c-18.667 0 -34.5 6.5 -47.5 19.5s-19.5 28.5 -19.5 46.5c0 18.667 6.5 34.5 19.5 47.5
s28.833 19.5 47.5 19.5s33.667 -5.83301 45 -17.5s19.666 -25.834 24.999 -42.501s8.33301 -34.334 9 -53.001s0.333984 -35.334 -0.999023 -50.001c20 10 38 24.5 54 43.5s29.667 41.5 41 67.5zM286 -53.0029c22 -1.33301 43 0.00292969 63 4.00293s38.5 10.167 55.5 18.5
s32.667 18.5 47 30.5s26.833 25.333 37.5 40c-34.667 -6.66699 -71.5 -4.16699 -110.5 7.5s-79.5 37.167 -121.5 76.5c-42.667 40 -71.667 82.333 -87 127c-18 -11.333 -31.333 -26.333 -40 -45s-13.167 -38.834 -13.5 -60.501s3.5 -43.834 11.5 -66.501
s19.333 -43.334 34 -62.001s32.5 -34.5 53.5 -47.5s44.5 -20.5 70.5 -22.5zM371 440c-17.333 14.667 -34.832 20.002 -52.499 16.002s-32.334 -13.667 -44.001 -29s-18.667 -34.333 -21 -57s3.16699 -45.334 16.5 -68.001c26.667 -2.66699 49.5 0.666016 68.5 9.99902
s33.167 21.5 42.5 36.5s13.5 31 12.5 48s-8.5 31.5 -22.5 43.5z" />
    <glyph glyph-name="quotesingle" unicode="'" horiz-adv-x="223" 
d="M141 437c-5.33301 8 -8 18.667 -8 32c0 18.667 6.5 34.5 19.5 47.5s28.833 19.5 47.5 19.5s34.5 -6.5 47.5 -19.5s19.5 -28.833 19.5 -47.5c0 -15.333 -3.5 -28.5 -10.5 -39.5s-16.333 -21.833 -28 -32.5l-40.5 -35.5c-15.333 -13 -31.333 -29.167 -48 -48.5l-35 14z" />
    <glyph glyph-name="parenleft" unicode="(" horiz-adv-x="409" 
d="M249 -202c-50 42.667 -87.168 90.5 -111.501 143.5s-36.333 107.833 -36 164.5s12.666 113.667 36.999 171s60.333 112.166 108 164.499s106.834 100.333 177.501 144s152.334 80.167 245.001 109.5l12 -55c-67.333 -22 -127.5 -52.667 -180.5 -92
s-98.667 -83.5 -137 -132.5s-68.833 -100.5 -91.5 -154.5s-37.5 -106.833 -44.5 -158.5s-5.5 -99.667 4.5 -144s28.667 -81.166 56 -110.499z" />
    <glyph glyph-name="parenright" unicode=")" horiz-adv-x="409" 
d="M243 695c50 -42.667 87.168 -90.5 111.501 -143.5s36.333 -107.833 36 -164.5s-12.666 -113.667 -36.999 -171s-60.333 -112.166 -108 -164.499s-106.834 -100.333 -177.501 -144s-152.334 -80.167 -245.001 -109.5l-12 55c67.333 22 127.5 52.667 180.5 92
s98.667 83.5 137 132.5s68.833 100.5 91.5 154.5s37.5 106.833 44.5 158.5s5.5 99.667 -4.5 144s-28.667 81.166 -56 110.499z" />
    <glyph glyph-name="asterisk" unicode="*" horiz-adv-x="450" 
d="M397 548l-57 -92l121 66l8 -61l-117 -42l64 -55l-47 -62l-58 86l-24 -100h-74l49 93l-108 -71l-7 62l107 51l-65 44l46 61l59 -73l28 93h75z" />
    <glyph glyph-name="plus" unicode="+" 
d="M297 319l-41 -96h105l-29 -69h-105l-40 -95h-74l40 95h-103l29 69h103l40 96h75z" />
    <glyph glyph-name="comma" unicode="," horiz-adv-x="259" 
d="M41 27c-5.33301 8 -8 18.667 -8 32c0 18.667 6.5 34.5 19.5 47.5s28.833 19.5 47.5 19.5s34.5 -6.5 47.5 -19.5s19.5 -28.833 19.5 -47.5c0 -15.333 -3.5 -28.5 -10.5 -39.5s-16.333 -21.833 -28 -32.5l-40.5 -35.5c-15.333 -13 -31.333 -29.167 -48 -48.5l-35 14z" />
    <glyph glyph-name="hyphen" unicode="-" horiz-adv-x="270" 
d="M79 223h162l-29 -69h-162z" />
    <glyph glyph-name="period" unicode="." horiz-adv-x="259" 
d="M167 59c0 -18 -6.5 -33.5 -19.5 -46.5s-28.833 -19.5 -47.5 -19.5s-34.5 6.5 -47.5 19.5s-19.5 28.5 -19.5 46.5c0 18.667 6.5 34.5 19.5 47.5s28.833 19.5 47.5 19.5s34.5 -6.5 47.5 -19.5s19.5 -28.833 19.5 -47.5z" />
    <glyph glyph-name="slash" unicode="/" horiz-adv-x="395" 
d="M547 548l-539 -622h-84l538 622h85z" />
    <glyph glyph-name="zero" unicode="0" horiz-adv-x="413" 
d="M-703 -358c-112.667 0 -232.169 2.6709 -358.502 8.00391l-390 17c-133.667 6 -269 10.833 -406 14.5s-272.167 4.16699 -405.5 1.5s-263.166 -10.167 -389.5 -22.5c-126.333 -12.333 -245.666 -31.666 -358 -57.999c-112.333 -26.333 -215.666 -61 -310 -104
c-94.333 -43 -176.5 -96.833 -246.5 -161.5c-11.333 27.333 -31 52.5 -59 75.5s-63 40.5 -105 52.5s-90 17.167 -144 15.5s-112.667 -13.834 -176 -36.501c32.667 56.667 79.334 111.334 140 164.001c60.667 52.667 135 99.667 223 141s189.667 75.166 305 101.499
s244 41.5 386 45.5c184.667 5.33301 359.667 4.83301 525 -1.5s324.166 -15.5 476.5 -27.5c152.333 -12 299.833 -25.333 442.5 -40s283.834 -27.334 423.501 -38.001s279.167 -18 418.5 -22s282 -1.33301 428 8c74 4.66699 139 15.167 195 31.5s103.5 36.166 142.5 59.499
s70.167 48.5 93.5 75.5s39.333 53.833 48 80.5s10.167 51.5 4.5 74.5s-17.5 41.833 -35.5 56.5c-26.667 21.333 -54 27.666 -82 18.999s-51 -32 -69 -70l-16 28c10.667 22.667 23.5 40.167 38.5 52.5s30.667 20.5 47 24.5s33 4.16699 50 0.5s32.833 -10.167 47.5 -19.5
c20.667 -13.333 38.167 -31.166 52.5 -53.499s23 -47.5 26 -75.5s-0.666992 -57.833 -11 -89.5s-29.666 -62.834 -57.999 -93.501s-66.5 -60.167 -114.5 -88.5s-108.167 -53.333 -180.5 -75s-157.833 -38.834 -256.5 -51.501s-212.667 -19 -342 -19z" />
    <glyph glyph-name="one" unicode="1" horiz-adv-x="300" 
d="M-188 -302c-92 0 -170.667 -0.832031 -236 -2.49902s-121.5 -5.33398 -168.5 -11.001s-86.833 -13.667 -119.5 -24s-62.334 -24 -89.001 -41s-52.334 -37.833 -77.001 -62.5l-84 -88l-383 426h1212c74.667 0 138.167 8.66699 190.5 26s91.833 38.833 118.5 64.5
s39.5 53.5 38.5 83.5s-17.5 57.667 -49.5 83c-26.667 21.333 -54 27.833 -82 19.5s-50.667 -31.5 -68 -69.5l-17 28c10.667 22 23.5 39.333 38.5 52s30.833 21 47.5 25s33.5 4.33301 50.5 1s32.5 -10 46.5 -20c33.333 -23.333 58.833 -51.666 76.5 -84.999
s26.334 -68.166 26.001 -104.499s-10 -72.333 -29 -108s-47.667 -67.834 -86 -96.501s-87.166 -51.834 -146.499 -69.501s-129.333 -26.5 -210 -26.5z" />
    <glyph glyph-name="two" unicode="2" horiz-adv-x="391" 
d="M-245 -309c-124.667 0 -235.998 -0.5 -333.998 -1.5s-185.5 -2.83301 -262.5 -5.5s-144.667 -6.5 -203 -11.5s-110 -11.5 -155 -19.5s-84.667 -17.667 -119 -29s-65.833 -24.833 -94.5 -40.5s-55.834 -33.834 -81.501 -54.501s-52.5 -44 -80.5 -70l-383 436h1787
c84.667 0 155.5 8.83301 212.5 26.5s99.833 39.5 128.5 65.5s42.667 54 42 84s-16.334 57.333 -47.001 82c-13.333 10.667 -27 17.5 -41 20.5s-27.667 2.33301 -41 -2s-26 -12.333 -38 -24s-22.333 -26.834 -31 -45.501l-16 28c10.667 22.667 23.5 40.167 38.5 52.5
s30.667 20.5 47 24.5s33 4.33301 50 1s32.5 -10 46.5 -20c34 -22.667 58.833 -50.667 74.5 -84s21.834 -68.5 18.501 -105.5s-16.333 -73.667 -39 -110s-55.334 -69.166 -98.001 -98.499s-95.667 -53.166 -159 -71.499s-137.333 -27.5 -222 -27.5z" />
    <glyph glyph-name="three" unicode="3" horiz-adv-x="391" 
d="M-301 -314c-180 0 -341.338 -0.5 -484.005 -1.5s-270 -2.83301 -382 -5.5s-210.5 -6.5 -295.5 -11.5s-159.833 -11.5 -224.5 -19.5s-121 -17.833 -169 -29.5s-91.167 -25.5 -129.5 -41.5s-73.333 -34.5 -104.999 -55.5c-31.667 -21 -63.834 -44.833 -96.501 -71.5
l-383 445h2362c94 0 171.833 9 233.5 27s107.834 40.167 138.501 66.5s45.834 54.333 45.501 84s-15.166 56.5 -44.499 80.5c-26.667 21.333 -54 27.666 -82 18.999s-50.667 -32 -68 -70l-17 28c10.667 22.667 23.5 40.167 38.5 52.5s30.833 20.5 47.5 24.5
s33.334 4.33301 50.001 1s32.334 -9.66602 47.001 -18.999c34 -22 58 -49.833 72 -83.5s17.833 -69.167 11.5 -106.5s-23 -74.666 -50 -111.999s-64 -70.833 -111 -100.5s-104.167 -53.834 -171.5 -72.501s-145 -28 -233 -28z" />
    <glyph glyph-name="four" unicode="4" horiz-adv-x="412" 
d="M-358 -320c-235.333 0 -446.668 -0.501953 -634.001 -1.50195s-354.5 -2.83301 -501.5 -5.5s-276.167 -6.5 -387.5 -11.5s-209.333 -11.5 -293.999 -19.5c-84.667 -8 -157.834 -17.833 -219.5 -29.5c-61.667 -11.667 -116.334 -25.667 -164 -42
c-47.667 -16.333 -90.5 -35.166 -128.5 -56.499s-75.333 -45.666 -112 -72.999l-384 454h2937c104 0 189.167 9.16699 255.5 27.5s115.833 40.666 148.5 66.999s49.167 54.333 49.5 84s-13.834 55.834 -42.501 78.501c-13.333 10.667 -27 17.667 -41 21
s-27.667 2.83301 -41 -1.5s-26 -12.333 -38 -24s-22.333 -26.834 -31 -45.501l-16 28c10.667 22 23.5 39.167 38.5 51.5s30.667 20.5 47 24.5s32.833 4.33301 49.5 1s32.334 -9.66602 47.001 -18.999c34 -22 57.167 -49.667 69.5 -83s13.666 -68.833 3.99902 -106.5
s-29.834 -75.5 -60.501 -113.5s-71.667 -72.167 -123 -102.5s-112.666 -55 -183.999 -74s-152.666 -28.5 -243.999 -28.5z" />
    <glyph glyph-name="five" unicode="5" horiz-adv-x="373" 
d="M-414 -326c-291.333 0 -552.663 -0.5 -783.996 -1.5s-438.166 -2.83301 -620.499 -5.5s-342.5 -6.33398 -480.5 -11.001s-259.167 -11.167 -363.5 -19.5s-194.333 -18.5 -270 -30.5s-142 -26.167 -199 -42.5s-107.5 -35.333 -151.5 -57s-86.667 -46.5 -128 -74.5
l-384 463h3512c114 0 206.5 9.33301 277.5 28s123.833 41.334 158.5 68.001s52.167 54.834 52.5 84.501s-13.167 55.5 -40.5 77.5c-26.667 21.333 -54 27.666 -82 18.999s-50.667 -32 -68 -70l-17 28c10.667 22.667 23.5 40.167 38.5 52.5s30.667 20.5 47 24.5
s33 4.16699 50 0.5s32.833 -10.167 47.5 -19.5c34.667 -21.333 57.167 -48.833 67.5 -82.5s9.16602 -69.5 -3.50098 -107.5s-36.334 -76.333 -71.001 -115s-79.834 -73.5 -135.501 -104.5s-121.334 -56.167 -197.001 -75.5s-160.834 -29 -255.501 -29z" />
    <glyph glyph-name="six" unicode="6" horiz-adv-x="420" 
d="M-302 -349c-95.333 9.33301 -176.5 12.4951 -243.5 9.49512s-123.333 -12 -169 -27s-82.667 -35.667 -111 -62s-51.166 -58.5 -68.499 -96.5c-10.667 27.333 -29.667 52.833 -57 76.5s-61.833 42.334 -103.5 56.001s-89.5 20.334 -143.5 20.001s-113 -10.833 -177 -31.5
c46 49.333 91.667 92.833 137 130.5s91.5 69.5 138.5 95.5s95.333 46.333 145 61s102.167 23.334 157.5 26.001c51.333 2.66699 97 1.83398 137 -2.49902s77.167 -10.666 111.5 -18.999s66.666 -17.833 96.999 -28.5s61.666 -20.667 93.999 -30s66.5 -17.166 102.5 -23.499
s76.667 -9.5 122 -9.5c50 0 95 6.5 135 19.5s74.667 29.833 104 50.5s52.833 44 70.5 70s29.167 52.167 34.5 78.5s4.33301 51.666 -3 75.999s-21.666 44.833 -42.999 61.5c-26.667 21.333 -54 27.833 -82 19.5s-51 -31.5 -69 -69.5l-16 28c10.667 22 23.5 39.333 38.5 52
s30.833 21 47.5 25s33.5 4.33301 50.5 1s32.5 -10 46.5 -20c33.333 -23.333 57.5 -54 72.5 -92s19.833 -78.333 14.5 -121s-20.833 -85.167 -46.5 -127.5s-62 -79.5 -109 -111.5s-105 -56.333 -174 -73s-149.167 -20.667 -240.5 -12z" />
    <glyph glyph-name="seven" unicode="7" horiz-adv-x="320" 
d="M-402 -351c-84.667 4.66699 -167.835 8.33594 -249.502 11.0029s-160.167 3 -235.5 1s-146.833 -7 -214.5 -15s-130.334 -20.5 -188.001 -37.5s-109.667 -39.167 -156 -66.5s-85.5 -61 -117.5 -101c-10.667 27.333 -29.667 52.833 -57 76.5s-61.833 42 -103.5 55
s-89.5 19 -143.5 18s-113 -11.833 -177 -32.5c42.667 51.333 88.5 97.666 137.5 138.999s102.167 77 159.5 107s119.166 53.667 185.499 71s137.833 27.666 214.5 30.999c84.667 3.33301 162.667 2.5 234 -2.5s138.833 -12.167 202.5 -21.5s124.834 -19.833 183.501 -31.5
s117.5 -22.334 176.5 -32.001s119.333 -17.334 181 -23.001s127.834 -7.5 198.501 -5.5c56 1.33301 106 8.83301 150 22.5s81.833 31.167 113.5 52.5s57 45.333 76 72s31.667 53.167 38 79.5s6 51.333 -1 75s-20.5 43.834 -40.5 60.501c-26.667 21.333 -54 27.833 -82 19.5
s-51 -31.5 -69 -69.5l-16 28c10.667 22 23.5 39.333 38.5 52s30.833 21 47.5 25s33.334 4.16699 50.001 0.5s32.334 -10.167 47.001 -19.5c32 -22 55.5 -51.5 70.5 -88.5s19.5 -76.5 13.5 -118.5s-23.167 -84.167 -51.5 -126.5s-69.333 -79.833 -123 -112.5
s-121.167 -58 -202.5 -76s-178 -23.667 -290 -17z" />
    <glyph glyph-name="eight" unicode="8" horiz-adv-x="420" 
d="M-502 -353c-106.667 3.33301 -216.17 7.32812 -328.503 11.9951s-223.833 7.33398 -334.5 8.00098s-218.5 -2.16602 -323.5 -8.49902s-203.833 -18.833 -296.5 -37.5s-177 -45.334 -253 -80.001s-140.333 -79.667 -193 -135c-11.333 27.333 -30.833 52.666 -58.5 75.999
s-62.167 41.5 -103.5 54.5s-89 18.833 -143 17.5s-113 -12.666 -177 -33.999c39.333 52.667 85.5 101.667 138.5 147s113.333 84.833 181 118.5s142.667 60.834 225 81.501s172.833 32.667 271.5 36c118 4 228.333 3.16699 331 -2.5s200.667 -13.5 294 -23.5
s183.333 -21.333 270 -34s172.834 -24 258.501 -34s172.334 -17.667 260.001 -23s179.5 -5.66602 275.5 -0.999023c62 2.66699 117 11.334 165 26.001s89.167 32.834 123.5 54.501s61.666 46 81.999 73s34 53.667 41 80s7.16699 51.166 0.5 74.499s-19.667 43 -39 59
c-26.667 21.333 -54 27.833 -82 19.5s-51 -31.5 -69 -69.5l-16 28c10.667 22 23.5 39.333 38.5 52s30.833 21 47.5 25s33.334 4.16699 50.001 0.5s32.334 -10.167 47.001 -19.5c30.667 -20.667 53.5 -48.834 68.5 -84.501s19.333 -74.334 13 -116.001s-25 -83.667 -56 -126
s-77 -80.166 -138 -113.499s-138.333 -59.666 -232 -78.999s-206.5 -26.666 -338.5 -21.999z" />
    <glyph glyph-name="nine" unicode="9" horiz-adv-x="420" 
d="M-603 -356c-96 1.33301 -196.499 4.16602 -301.499 8.49902s-211.833 8.5 -320.5 12.5s-217.834 7 -327.501 9s-217.5 1 -323.5 -3s-208.667 -12 -308 -24s-192.833 -29.5 -280.5 -52.5s-168.334 -52.667 -242 -89c-73.667 -36.333 -137.834 -80.833 -192.5 -133.5
c-11.333 27.333 -31 52.5 -59 75.5s-62.833 40.833 -104.5 53.5s-89.5 18.167 -143.5 16.5s-112.667 -13.5 -176 -35.5c36 54.667 82.5 106.5 139.5 155.5s124.333 92.333 202 130s166 68 265 91s208.5 36.5 328.5 40.5c151.333 4.66699 294.166 4.16699 428.499 -1.5
s262.833 -14.167 385.5 -25.5s241.334 -23.666 356.001 -36.999s228.167 -25.333 340.5 -36s225.333 -18.167 339 -22.5s230.834 -3.16602 351.501 3.50098c68 3.33301 128 12.833 180 28.5s96.333 34.667 133 57s66 47 88 74s36.833 53.833 44.5 80.5s8.5 51.667 2.5 75
s-18.333 42.666 -37 57.999c-26.667 21.333 -54 27.666 -82 18.999s-51 -32 -69 -70l-16 28c10.667 22 23.5 39.167 38.5 51.5s30.667 20.5 47 24.5s33 4.33301 50 1s32.833 -9.66602 47.5 -18.999c22 -14 40.167 -32.833 54.5 -56.5s23.166 -49.667 26.499 -78
s0 -58.5 -10 -90.5s-27.833 -63.5 -53.5 -94.5s-60.5 -60.333 -104.5 -88s-98.5 -52 -163.5 -73s-141.5 -37.167 -229.5 -48.5s-189.333 -16.333 -304 -15z" />
    <glyph glyph-name="colon" unicode=":" horiz-adv-x="259" 
d="M148 59c0 -18 -6.5 -33.5 -19.5 -46.5s-28.833 -19.5 -47.5 -19.5s-34.5 6.5 -47.5 19.5s-19.5 28.5 -19.5 46.5c0 18.667 6.5 34.5 19.5 47.5s28.833 19.5 47.5 19.5s34.5 -6.5 47.5 -19.5s19.5 -28.833 19.5 -47.5zM258 319c0 -18 -6.5 -33.5 -19.5 -46.5
s-28.833 -19.5 -47.5 -19.5s-34.5 6.5 -47.5 19.5s-19.5 28.5 -19.5 46.5c0 18.667 6.5 34.5 19.5 47.5s28.833 19.5 47.5 19.5s34.5 -6.5 47.5 -19.5s19.5 -28.833 19.5 -47.5z" />
    <glyph glyph-name="semicolon" unicode=";" horiz-adv-x="259" 
d="M258 319c0 -18 -6.5 -33.5 -19.5 -46.5s-28.833 -19.5 -47.5 -19.5s-34.5 6.5 -47.5 19.5s-19.5 28.5 -19.5 46.5c0 18.667 6.5 34.5 19.5 47.5s28.833 19.5 47.5 19.5s34.5 -6.5 47.5 -19.5s19.5 -28.833 19.5 -47.5zM21 27c-5.33301 8 -8 18.667 -8 32
c0 18.667 6.5 34.5 19.5 47.5s28.833 19.5 47.5 19.5s34.5 -6.5 47.5 -19.5s19.5 -28.833 19.5 -47.5c0 -15.333 -3.5 -28.5 -10.5 -39.5s-16.333 -21.833 -28 -32.5l-40.5 -35.5c-15.333 -13 -31.333 -29.167 -48 -48.5l-35 14z" />
    <glyph glyph-name="less" unicode="&#x3c;" horiz-adv-x="395" 
d="M114 275l294 141l23 -57l-270 -127l116 -134l-64 -73l-139 184z" />
    <glyph glyph-name="equal" unicode="=" horiz-adv-x="507" 
d="M110 213h304l-29 -69h-304zM167 340h304l-29 -69h-304z" />
    <glyph glyph-name="greater" unicode="&#x3e;" horiz-adv-x="395" 
d="M331 166l-294 -141l-23 57l270 127l-116 134l64 73l139 -184z" />
    <glyph glyph-name="question" unicode="?" horiz-adv-x="369" 
d="M167 59c0 -18 -6.5 -33.5 -19.5 -46.5s-28.833 -19.5 -47.5 -19.5s-34.5 6.5 -47.5 19.5s-19.5 28.5 -19.5 46.5c0 18.667 6.5 34.5 19.5 47.5s28.833 19.5 47.5 19.5s34.5 -6.5 47.5 -19.5s19.5 -28.833 19.5 -47.5zM147 217c22.667 6 45.668 16.666 69.001 31.999
s44.666 33 63.999 53s35.833 40.667 49.5 62s22.334 41 26.001 59s1.5 32.833 -6.5 44.5s-23.667 17.5 -47 17.5c-8.66699 0 -17.834 -1.33301 -27.501 -4s-19.5 -6.33398 -29.5 -11.001c10.667 -6.66699 17.167 -17.167 19.5 -31.5s-0.166992 -30.5 -7.5 -48.5
c-10.667 -26.667 -25.334 -47.5 -44.001 -62.5s-39 -22.5 -61 -22.5c-20.667 0 -34.667 8.33301 -42 25s-5.33301 36.667 6 60c12.667 28 29.5 52.333 50.5 73s43.5 37.834 67.5 51.501s48.167 23.834 72.5 30.501s45.833 10 64.5 10c40.667 0 70.334 -7.83301 89.001 -23.5
s28 -35.667 28 -60s-8.33301 -51 -25 -80s-39.667 -56.667 -69 -83s-64.333 -49.5 -105 -69.5s-85 -33.333 -133 -40z" />
    <glyph glyph-name="at" unicode="@" horiz-adv-x="692" 
d="M396 390c26 0 45.666 -9.33594 58.999 -28.0029l8 20h110c-2 -6 -6 -16.333 -12 -31l-21 -50.5l-25 -60l-24.5 -59.5l-20 -48.5c-5.66699 -13.667 -9.16699 -22.5 -10.5 -26.5c-5.33301 -12.667 -4.83301 -21.5 1.5 -26.5s15.166 -6.5 26.499 -4.5
s23.833 7.83301 37.5 17.5s25.167 23.167 34.5 40.5c25.333 46 44.833 92 58.5 138s18.834 87.333 15.501 124s-17 66.5 -41 89.5s-60.667 34.5 -110 34.5c-42 0 -83 -9.16699 -123 -27.5s-77.833 -42.666 -113.5 -72.999s-68 -64.833 -97 -103.5
s-53.167 -78.167 -72.5 -118.5s-32.833 -79.833 -40.5 -118.5s-8.16699 -73.167 -1.5 -103.5s21.5 -54.666 44.5 -72.999s55.833 -27.5 98.5 -27.5c30.667 0 60.667 4.5 90 13.5s58 21.5 86 37.5l11 -44c-29.333 -15.333 -59.833 -27.166 -91.5 -35.499
s-64.167 -12.5 -97.5 -12.5c-52.667 0 -94 10.5 -124 31.5s-50.333 48.5 -61 82.5s-12.834 73 -6.50098 117s19.666 88.667 39.999 134s46.666 90 78.999 134s68.833 83 109.5 117s84.834 61.5 132.501 82.5s96.834 31.5 147.501 31.5c42 0 76.833 -6.66699 104.5 -20
s49 -31.666 64 -54.999s24.167 -50.5 27.5 -81.5s1.5 -64 -5.5 -99s-18.667 -71 -35 -108s-36.833 -73.167 -61.5 -108.5c-8.66699 -12 -19.5 -24 -32.5 -36s-27.167 -22.5 -42.5 -31.5s-31.166 -16.333 -47.499 -22s-32.5 -8.5 -48.5 -8.5
c-20.667 0 -37.5 4.33301 -50.5 13s-21.167 21.667 -24.5 39c-19.333 -16 -38.833 -28.667 -58.5 -38s-38.5 -14 -56.5 -14c-22.667 0 -41.167 5.16699 -55.5 15.5s-24.5 24.5 -30.5 42.5s-7.83301 39.167 -5.5 63.5s9.5 50.166 21.5 77.499
c28.667 68 64.334 118 107.001 150s87 48 133 48zM345.999 93.9971c2 8.66699 5.00391 17.333 9.00391 26l83 202c-6.66699 10 -16.334 15 -29.001 15s-24.5 -2.5 -35.5 -7.5s-22 -13 -33 -24s-22.167 -25.5 -33.5 -43.5s-23.333 -40 -36 -66
c-10 -19.333 -17.833 -37.5 -23.5 -54.5s-8.83398 -31.833 -9.50098 -44.5s1.5 -22.667 6.5 -30s13.167 -11 24.5 -11s23.666 3.33301 36.999 10s26.666 16 39.999 28z" />
    <glyph glyph-name="A" unicode="A" horiz-adv-x="481" 
d="M500 105c-5.33301 -16 -13.6699 -30.8301 -25.0029 -44.4971s-24.166 -25.834 -38.499 -36.501s-29.5 -19 -45.5 -25s-32 -9 -48 -9c-32.667 0 -56.167 10.833 -70.5 32.5s-14.166 53.5 0.500977 95.5l16 43h-127l-34 -74c-7.33301 -18 -9 -30.167 -5 -36.5
s13.667 -9.5 29 -9.5h9l-32 -43l-22 -4c-6.66699 -1.33301 -13.5 -2.33301 -20.5 -3s-13.833 -1 -20.5 -1c-38 0 -59 10.5 -63 31.5s9 53.833 39 98.5l27 40.5l34.5 51.5l32.5 48l21 31l69.5 97c20.333 28.667 40 53 59 73s38.667 35.333 59 46s43.166 16 68.499 16
c16 0 30.167 -2.66699 42.5 -8s21.833 -13.333 28.5 -24s10.334 -24 11.001 -40s-2.66602 -34.333 -9.99902 -55l-102 -291c-4.66699 -12.667 -3.5 -21.834 3.5 -27.501s16.167 -7.33398 27.5 -5.00098s23.5 8.5 36.5 18.5s23.167 24 30.5 42zM305.996 212.003
l70.001 196.997c6 17.333 8 30.833 6 40.5s-7 14.334 -15 14.001s-18.833 -6.16602 -32.5 -17.499s-28.834 -29 -45.501 -53c-17.333 -25.333 -34.833 -54.166 -52.5 -86.499l-49.5 -94.5h119z" />
    <glyph glyph-name="B" unicode="B" horiz-adv-x="463" 
d="M351 523c24 0 45.502 -3.16602 64.502 -9.49902s34.167 -15.5 45.5 -27.5s18.666 -26.5 21.999 -43.5s1.66602 -36.167 -5.00098 -57.5c-4 -12.667 -10.5 -24.834 -19.5 -36.501s-19.5 -22.5 -31.5 -32.5s-24.5 -18.833 -37.5 -26.5s-25.167 -13.5 -36.5 -17.5
c14.667 -2.66699 27.5 -8.5 38.5 -17.5s19.5 -20.167 25.5 -33.5s8.83301 -28.333 8.5 -45s-3.83301 -34 -10.5 -52c-44.667 -110.667 -137 -155 -277 -133c-12 2 -21.333 4.33301 -28 7h-108l171 418l97 60c-29.333 -6.66699 -60.5 -17 -93.5 -31
s-60.167 -31.667 -81.5 -53l-20 21l52 72c34 14 68.833 23.833 104.5 29.5s75.5 8.5 119.5 8.5zM292.002 249.001c-18 -6 -33.5 -9.33203 -46.5 -9.99902s-23.833 0.333008 -32.5 3l-84 -204c8.66699 -4 19 -6.33301 31 -7c14.667 -2 29.667 -0.333008 45 5
s29.833 13 43.5 23s26 21.667 37 35s19.833 27.666 26.5 42.999c16 36 21.5 63.667 16.5 83s-17.167 29 -36.5 29zM332.002 486.002c-3.33301 0 -6.66699 -0.166992 -10 -0.5s-6.66602 -0.833008 -9.99902 -1.5l-79 -191c9.33301 0.666992 21.666 0 36.999 -2
c24 0 45.5 10.167 64.5 30.5s33.167 44.166 42.5 71.499c4.66699 15.333 6.5 28.833 5.5 40.5s-4 21.334 -9 29.001s-11.167 13.5 -18.5 17.5s-15 6 -23 6z" />
    <glyph glyph-name="C" unicode="C" horiz-adv-x="376" 
d="M348 103c-10 -16 -21.8311 -30.834 -35.498 -44.501s-29.334 -25.834 -47.001 -36.501s-37.667 -19 -60 -25s-47.833 -9 -76.5 -9c-57.333 0 -95.333 22.333 -114 67s-17 107.667 5 189c12 44 28.333 83.333 49 118s44.334 63.834 71.001 87.501s55.667 41.834 87 54.501
s63.666 19 96.999 19c23.333 0 42.5 -4.83301 57.5 -14.5s25.667 -22.167 32 -37.5s8.66602 -32.5 6.99902 -51.5s-7.5 -37.5 -17.5 -55.5c-8.66699 -16.667 -17.667 -30.5 -27 -41.5s-18.5 -19.667 -27.5 -26s-17.167 -10.833 -24.5 -13.5s-13.333 -4 -18 -4
c-19.333 0 -31.833 7.66699 -37.5 23s-4.16699 33.666 4.5 54.999c9.33301 24.667 22.333 43.667 39 57s35 20 55 20c6 0 10.333 -0.333008 13 -1c2 4.66699 2.66699 9.66699 2 15s-2.83398 10.333 -6.50098 15s-9.5 8.5 -17.5 11.5s-18.333 4.5 -31 4.5
c-23.333 0 -44.5 -5.83301 -63.5 -17.5s-36.333 -27.334 -52 -47.001s-29.667 -42.167 -42 -67.5s-23.166 -51.666 -32.499 -78.999c-10.667 -31.333 -18.667 -60.666 -24 -87.999s-6.5 -51 -3.5 -71s11 -35.667 24 -47s32.5 -17 58.5 -17c30 0 57 8.5 81 25.5
s43.333 37.167 58 60.5l17 -28v0z" />
    <glyph glyph-name="D" unicode="D" horiz-adv-x="477" 
d="M351 523c58 0 98.835 -20.333 122.502 -61s24.5 -101.667 2.5 -183c-10.667 -38.667 -24.834 -76.5 -42.501 -113.5s-39.834 -69.5 -66.501 -97.5s-58.667 -49.333 -96 -64s-81.333 -19 -132 -13c-13.333 2 -23.333 4.33301 -30 7h-107l171 418l97 60
c-30.667 -7.33301 -62.167 -18 -94.5 -32s-58.833 -31.333 -79.5 -52l-20 21l52 72c34 14 68.667 23.833 104 29.5s75 8.5 119 8.5zM343.002 486c-4.66699 0 -9.49805 -0.166992 -14.498 -0.5s-10.167 -0.833008 -15.5 -1.5l-184 -446l14 -4
c4.66699 -1.33301 10.334 -2.33301 17.001 -3c22 -2.66699 43 2.33301 63 15s38.5 30 55.5 52s32.167 46.833 45.5 74.5s24.666 55.167 33.999 82.5c11.333 34 19.666 65 24.999 93s7.5 52.333 6.5 73s-5.33301 36.667 -13 48s-18.834 17 -33.501 17z" />
    <glyph glyph-name="E" unicode="E" horiz-adv-x="444" 
d="M526 439c-19.333 -11.333 -37.6699 -15.333 -55.0029 -12s-34.5 9.33301 -51.5 18l-51.5 27c-17.333 9.33301 -35 14 -53 14h-2l-78 -187h134l-18 -51h-137l-35 -84.5l-29 -71.5c8.66699 6.66699 18.5 12.667 29.5 18s23.167 8 36.5 8c11.333 0 22.833 -3 34.5 -9
l35.5 -19c12 -6.66699 24.167 -12.834 36.5 -18.501s25 -7.83398 38 -6.50098s26.5 7 40.5 17s28.333 27 43 51l17 -28c-20.667 -36 -44.834 -64 -72.501 -84s-55.5 -30 -83.5 -30c-17.333 0 -32.833 3.5 -46.5 10.5s-26.167 14.833 -37.5 23.5l-31 23.5
c-9.33301 7 -18.666 10.5 -27.999 10.5c-6.66699 0 -13.667 -1.83301 -21 -5.5s-14.5 -8.16699 -21.5 -13.5s-13.667 -11 -20 -17l-15.5 -15l-4 -5l-5 -5h-73l171 418l106 66c-13.333 -2.66699 -28.166 -6.66699 -44.499 -12s-32.833 -11.666 -49.5 -18.999
s-32.667 -16 -48 -26s-29 -21 -41 -33l-20 21l52 72c16.667 6.66699 32.667 12.5 48 17.5s31 9 47 12s32.833 5.16699 50.5 6.5s37.5 2 59.5 2c13.333 0 28.333 -1 45 -3s34.834 -3.66699 54.501 -5s40.334 -1.66602 62.001 -0.999023s44.5 3.66699 68.5 9z" />
    <glyph glyph-name="F" unicode="F" horiz-adv-x="370" 
d="M493 439c-18.667 -11.333 -36.8369 -15.3359 -54.5039 -12.0029s-35 9.33301 -52 18l-51 27c-17 9.33301 -34.5 14 -52.5 14h-2l-92 -223h152l-19 -51h-154l-51 -125c-5.33301 -14 -6 -25.167 -2 -33.5s13.667 -12.5 29 -12.5h9l-20 -43
c-5.33301 -1.33301 -11 -2.66602 -17 -3.99902c-5.33301 -1.33301 -11.166 -2.33301 -17.499 -3s-12.833 -1 -19.5 -1c-38.667 0 -62.667 10.5 -72 31.5s-5 53.833 13 98.5l121 296l106 66c-13.333 -2.66699 -28.166 -6.66699 -44.499 -12s-32.833 -11.666 -49.5 -18.999
s-32.667 -16 -48 -26s-29 -21 -41 -33l-20 21l52 72c16.667 6.66699 32.667 12.5 48 17.5s31 9 47 12s32.833 5.16699 50.5 6.5s37.5 2 59.5 2c13.333 0 28.333 -1 45 -3s34.834 -3.66699 54.501 -5s40.334 -1.66602 62.001 -0.999023s44.167 3.66699 67.5 9z" />
    <glyph glyph-name="G" unicode="G" horiz-adv-x="400" 
d="M361 196l-18.501 -49.999l-22 -58l-21 -53.5l-14.5 -36.5c-18.667 -45.333 -41 -78.333 -67 -99s-57.667 -31 -95 -31c-6.66699 0 -12.834 0.333008 -18.501 1s-10.5 1.66699 -14.5 3c-5.33301 1.33301 -10 2.66602 -14 3.99902l15 44h10c14.667 0 27.334 4 38.001 12
s18.667 19 24 33l16 41c-10 -5.33301 -21.167 -9.66602 -33.5 -12.999s-25.833 -5 -40.5 -5c-20.667 0 -39 5.83301 -55 17.5s-28.167 28.5 -36.5 50.5s-12 48.833 -11 80.5s8.5 67.5 22.5 107.5c30 88 71.333 156.5 124 205.5s112.334 73.5 179.001 73.5
c24 0 43.333 -4.83301 58 -14.5s25.334 -22.167 32.001 -37.5s9 -32.5 7 -51.5s-7.66699 -37.5 -17 -55.5c-9.33301 -16.667 -18.666 -30.5 -27.999 -41.5s-18.333 -19.667 -27 -26s-16.667 -10.833 -24 -13.5s-13.333 -4 -18 -4c-19.333 0 -31.833 7.66699 -37.5 23
s-4.5 33.666 3.5 54.999c9.33301 24.667 22.333 43.667 39 57s35 20 55 20c6 0 10.333 -0.333008 13 -1c2 4.66699 2.66699 9.66699 2 15s-2.83398 10.333 -6.50098 15s-9.5 8.5 -17.5 11.5s-18.333 4.5 -31 4.5c-22.667 0 -43.667 -5.83301 -63 -17.5
s-36.833 -27.334 -52.5 -47.001s-29.667 -42.167 -42 -67.5s-22.833 -51.666 -31.5 -78.999c-10.667 -31.333 -18.834 -60.5 -24.501 -87.5s-8.5 -50.5 -8.5 -70.5s2.5 -36.167 7.5 -48.5s13.167 -19.5 24.5 -21.5c8.66699 -1.33301 17.167 0.5 25.5 5.5
s16.333 12.167 24 21.5s15.167 20.333 22.5 33s14 26 20 40l9.5 24.5c3 7.66699 5.83301 14.167 8.5 19.5l7 18l8 20l8 18h137l-18 -44h-32z" />
    <glyph glyph-name="H" unicode="H" horiz-adv-x="452" 
d="M284 212l-116.002 0.00488281l-51 -125c-5.33301 -14 -6 -25.167 -2 -33.5s13.667 -12.5 29 -12.5h10l-21 -43c-5.33301 -1.33301 -11 -2.66602 -17 -3.99902c-5.33301 -1.33301 -11.166 -2.33301 -17.499 -3s-12.833 -1 -19.5 -1c-38 0 -61.833 10.5 -71.5 31.5
s-5.5 53.833 12.5 98.5l14 34.5l23 56l27 66l26.5 65.5l22 54c6.33301 15.333 10.833 26 13.5 32c6 13.333 6.83301 24.166 2.5 32.499s-14.166 12.5 -29.499 12.5h-9l20 43c5.33301 1.33301 11 2.66602 17 3.99902c5.33301 1.33301 11.166 2.33301 17.499 3
s12.833 1 19.5 1c38.667 0 62.667 -10.5 72 -31.5s5 -53.833 -13 -98.5l-54 -131h116l67 165c6 13.333 7 24.166 3 32.499s-13.667 12.5 -29 12.5h-10l20 43c5.33301 1.33301 11 2.66602 17 3.99902c5.33301 1.33301 11.166 2.33301 17.499 3s13.166 1 20.499 1
c38 0 61.833 -10.5 71.5 -31.5s5.16699 -53.833 -13.5 -98.5l-117 -289c-5.33301 -13.333 -4.66602 -22.833 2.00098 -28.5s15.834 -7.33398 27.501 -5.00098s24.167 8.66602 37.5 18.999s24.333 24.5 33 42.5l17 -28c-6.66699 -16 -15.834 -30.833 -27.501 -44.5
s-24.667 -25.834 -39 -36.501s-29.666 -19 -45.999 -25s-32.5 -9 -48.5 -9s-29.833 2.83301 -41.5 8.5s-20.5 13.834 -26.5 24.501s-8.66699 24 -8 40s5.33398 34.333 14.001 55z" />
    <glyph glyph-name="I" unicode="I" horiz-adv-x="252" 
d="M310 479l-37.002 -0.000976562l-151 -374c-6.66699 -16.667 -5.66699 -27.667 3 -33s20.5 -6.33301 35.5 -3s31.167 10.5 48.5 21.5s31.666 25.167 42.999 42.5l17 -28c-9.33301 -17.333 -21.166 -33 -35.499 -47s-29.666 -26 -45.999 -36s-33 -17.833 -50 -23.5
s-33.5 -8.5 -49.5 -8.5s-30.5 2.83301 -43.5 8.5s-23 13.834 -30 24.501s-10.667 24 -11 40s3.83398 34.333 12.501 55c1.33301 4 5 13.167 11 27.5l21.5 52l27.5 68l30.5 75.5l30 74l25.5 64h-43l18 44h191z" />
    <glyph glyph-name="J" unicode="J" horiz-adv-x="386" 
d="M107 218c19.333 0 32 -7.6709 38 -23.0039s4.66699 -33.666 -4 -54.999c-9.33301 -22.667 -21.5 -40.667 -36.5 -54s-31.5 -21 -49.5 -23c2.66699 -10.667 8.33398 -19.167 17.001 -25.5s19.667 -9.5 33 -9.5h5c17.333 1.33301 30.833 8 40.5 20s17.5 24.667 23.5 38
l13.5 34l28 69.5l36 87.5l36.5 89l29.5 73c8.33301 20.667 13.833 34 16.5 40h-77l21 44h224l-22 -44h-46l-20.5 -53.5l-26.5 -69.5l-29 -75.5l-28 -71.5l-22.5 -57.5l-12.5 -32.5c-18.667 -45.333 -42.667 -78.333 -72 -99s-65.333 -31 -108 -31h-4
c-23.333 0.666992 -42.833 5.33398 -58.5 14.001s-27.667 20.167 -36 34.5s-12.833 30.333 -13.5 48s2.66602 35.834 9.99902 54.501c10 24.667 23.167 43.834 39.5 57.501s34.5 20.5 54.5 20.5z" />
    <glyph glyph-name="K" unicode="K" horiz-adv-x="442" 
d="M117 87c-5.33301 -14 -6.00195 -25.1631 -2.00195 -33.4961s13.667 -12.5 29 -12.5h10l-21 -43c-5.33301 -1.33301 -11 -2.66602 -17 -3.99902c-5.33301 -1.33301 -11.166 -2.33301 -17.499 -3s-12.833 -1 -19.5 -1c-38 0 -61.833 10.5 -71.5 31.5s-5.5 53.833 12.5 98.5
l14 34.5l23 56l27 66l26.5 65.5l22 54c6.33301 15.333 10.833 26 13.5 32c6 13.333 6.83301 24.166 2.5 32.499s-14.166 12.5 -29.499 12.5h-9l20 43c5.33301 1.33301 11 2.66602 17 3.99902c5.33301 1.33301 11.166 2.33301 17.499 3s12.833 1 19.5 1
c38.667 0 62.667 -10.5 72 -31.5s5 -53.833 -13 -98.5l-41 -98c8.66699 4 18.5 6.5 29.5 7.5s23.5 -0.833008 37.5 -5.5c30 23.333 53 47.166 69 71.499s27.667 44.833 35 61.5c8 18.667 8.5 32.167 1.5 40.5s-21.167 9.83301 -42.5 4.5l15 40
c5.33301 0.666992 11 1.66699 17 3c5.33301 1.33301 11 2.33301 17 3s12.667 1 20 1c15.333 0 29.5 -2.5 42.5 -7.5s23.333 -11.833 31 -20.5s12 -19.167 13 -31.5s-2.5 -25.833 -10.5 -40.5c-15.333 -28 -39.166 -55.333 -71.499 -82s-70.166 -52.667 -113.499 -78l34 -158
c4.66699 -22.667 16.334 -34 35.001 -34c10 0 23.333 5.16699 40 15.5s30 25.833 40 46.5l17 -28c-6.66699 -16 -15.834 -30.833 -27.501 -44.5s-24.834 -25.834 -39.501 -36.501s-30.167 -19 -46.5 -25s-32.5 -9 -48.5 -9c-32.667 0 -55 10.833 -67 32.5
s-16.667 53.5 -14 95.5l5 102c-21.333 -0.666992 -35.333 4.66602 -42 15.999l-61 -149v0z" />
    <glyph glyph-name="L" unicode="L" horiz-adv-x="424" 
d="M2 -2l75.001 182.002l28 70l26 64l21 50.5c6 14.333 10 24.166 12 29.499c18.667 44.667 41 77.5 67 98.5s57.667 31.167 95 30.5c6.66699 0 12.667 -0.333008 18 -1s10.333 -1.66699 15 -3l14 -4l-15 -43h-10c-14.667 0 -27.334 -4.16699 -38.001 -12.5
s-18.667 -19.166 -24 -32.499l-136 -335c8.66699 6.66699 18.5 12.667 29.5 18s23.167 8 36.5 8c11.333 0 22.333 -3 33 -9s21.334 -12.333 32.001 -19s21.167 -12.834 31.5 -18.501s21.333 -7.83398 33 -6.50098s24 7 37 17s26.833 27 41.5 51l17 -28
c-20.667 -36 -44.834 -64 -72.501 -84s-55.5 -30 -83.5 -30c-17.333 0 -31.833 3.5 -43.5 10.5s-21.834 14.833 -30.501 23.5l-24 23.5c-7.33301 7 -15.666 10.5 -24.999 10.5c-6.66699 0 -13.667 -1.83301 -21 -5.5s-14.5 -8.16699 -21.5 -13.5s-13.667 -11 -20 -17
l-15.5 -15l-4 -5l-5 -5h-73v0z" />
    <glyph glyph-name="M" unicode="M" horiz-adv-x="595" 
d="M483 349l-60.0029 -75.498l-59 -75l-51 -64.5l-35 -44c-14 -18 -27.667 -30.667 -41 -38s-25.166 -9.66602 -35.499 -6.99902s-18.5 10.334 -24.5 23.001s-8.66699 30 -8 52c0 6.66699 0.333008 18.334 1 35.001s1.33398 35.667 2.00098 57l2 67
c0.666992 23.333 1.33398 45.333 2.00098 66l-107 -262c-8 -20 -9.16699 -33.833 -3.5 -41.5s19.167 -8.83398 40.5 -3.50098l-19 -39c-5.33301 -2 -11 -3.66699 -17 -5c-5.33301 -1.33301 -11.333 -2.5 -18 -3.5s-13.334 -0.833008 -20.001 0.5
c-12.667 2 -21.5 8.5 -26.5 19.5s-4.5 24.167 1.5 39.5l157 382c4.66699 11.333 7 20.333 7 27c-7.33301 9.33301 -19 14 -35 14h-10l4 43c4.66699 1.33301 10 2.66602 16 3.99902c5.33301 1.33301 10.833 2.33301 16.5 3s12.167 1 19.5 1c38 0 65.667 -10.5 83 -31.5
s25.333 -53.833 24 -98.5l-8 -229l235 298c-5.33301 6.66699 -14.333 10 -27 10h-10l20 43c5.33301 1.33301 11 2.66602 17 3.99902c5.33301 1.33301 11.166 2.33301 17.499 3s13.166 1 20.499 1c38 0 61.833 -10.5 71.5 -31.5s5.16699 -53.833 -13.5 -98.5l-117 -289
c-5.33301 -13.333 -4.66602 -22.833 2.00098 -28.5s15.834 -7.33398 27.501 -5.00098s24.167 8.66602 37.5 18.999s24.333 24.5 33 42.5l17 -28c-6.66699 -16 -15.834 -30.833 -27.501 -44.5s-24.667 -25.834 -39 -36.501s-29.666 -19 -45.999 -25s-32.5 -9 -48.5 -9
s-29.833 2.83301 -41.5 8.5s-20.5 13.834 -26.5 24.501s-8.66699 24 -8 40s5.33398 34.333 14.001 55z" />
    <glyph glyph-name="N" unicode="N" horiz-adv-x="482" 
d="M528 424c-3.33301 -8 -8.16504 -18.833 -14.498 -32.5l-21 -46.5l-25 -55.5l-26.5 -58.5l-66 -148c-6.66699 -20 -6.83398 -33.833 -0.500977 -41.5s20.166 -8.83398 41.499 -3.50098l-15 -39c-6 -2 -13 -3.66699 -21 -5c-7.33301 -1.33301 -15.833 -2.33301 -25.5 -3
s-20.5 -1 -32.5 -1c-38 0 -66.833 10.5 -86.5 31.5s-31.167 53.833 -34.5 98.5l-18 237c-10.667 -28 -20.834 -56.333 -30.501 -85s-18.167 -55.5 -25.5 -80.5s-13.333 -47.167 -18 -66.5s-7.66699 -33.333 -9 -42c-2.66699 -20 -1.83398 -34 2.49902 -42
s17.166 -9.33301 38.499 -4l-15 -39c-5.33301 -1.33301 -11 -2.66602 -17 -3.99902c-5.33301 -1.33301 -11.166 -2.33301 -17.499 -3s-12.833 -1 -19.5 -1c-31.333 0 -52.333 9.16699 -63 27.5s-9.33398 42.833 3.99902 73.5l14.5 32l21 47l25 55.5l26.5 58.5l66 147
c1.33301 4.66699 2.33301 8.83398 3 12.501l2 10.5c-8.66699 12.667 -22 19 -40 19h-10v43c4.66699 1.33301 9.66699 2.66602 15 3.99902c4.66699 1.33301 10 2.33301 16 3s12.667 1 20 1c38 0 66.667 -10.5 86 -31.5s30.666 -53.833 33.999 -98.5
c0.666992 -7.33301 1.5 -19.5 2.5 -36.5s2.33301 -36.167 4 -57.5s3.33398 -43.833 5.00098 -67.5s3.33398 -45.667 5.00098 -66s3 -37.833 4 -52.5s1.5 -23.667 1.5 -27c1.33301 -10 3.66602 -18 6.99902 -24l111 369c6.66699 20 6.83398 33.833 0.500977 41.5
s-20.166 8.83398 -41.499 3.50098l15 39c5.33301 1.33301 11 2.66602 17 3.99902c5.33301 1.33301 11 2.33301 17 3s12.667 1 20 1c31.333 0 53.833 -9 67.5 -27s13.834 -42.333 0.500977 -73z" />
    <glyph glyph-name="O" unicode="O" horiz-adv-x="460" 
d="M332 523c27.333 0 51.1689 -5.16699 71.502 -15.5s36 -25.666 47 -45.999s16.667 -45.833 17 -76.5s-5.83398 -66 -18.501 -106c-12 -38.667 -27 -75.667 -45 -111s-39.5 -66.333 -64.5 -93s-53.833 -47.834 -86.5 -63.501s-70 -23.5 -112 -23.5
c-29.333 0 -54.333 5.33301 -75 16s-36.5 26.167 -47.5 46.5s-16.333 45.833 -16 76.5s7.16602 66 20.499 106c12.667 37.333 27.167 73.333 43.5 108s36.333 65.5 60 92.5s52.167 48.667 85.5 65s73.333 24.5 120 24.5zM328.003 255c10.667 32 19.667 61.8311 27 89.498
s11.5 52 12.5 73s-1.66699 37.5 -8 49.5s-17.833 18 -34.5 18c-18 0 -35.667 -6.83301 -53 -20.5s-33.833 -31.334 -49.5 -53.001s-30.167 -46.167 -43.5 -73.5s-24.666 -54.666 -33.999 -81.999c-10.667 -31.333 -19.834 -60.666 -27.501 -87.999s-12 -51.166 -13 -71.499
s1.83301 -36.333 8.5 -48s18.667 -17.5 36 -17.5c19.333 0 37.833 6.66699 55.5 20s34 30.5 49 51.5s28.833 44.833 41.5 71.5s23.667 53.667 33 81z" />
    <glyph glyph-name="P" unicode="P" horiz-adv-x="401" 
d="M320 523c24 0 45.667 -4.6709 65 -14.0039s34.666 -22.666 45.999 -39.999s17.833 -38.166 19.5 -62.499s-2.83301 -51.166 -13.5 -80.499c-10 -27.333 -23.833 -52 -41.5 -74s-38.5 -39.833 -62.5 -53.5s-51 -22.5 -81 -26.5s-62.333 -1.66699 -97 7l-38 -92
c-5.33301 -14 -6 -25.167 -2 -33.5s13.667 -12.5 29 -12.5h10l-21 -43c-5.33301 -1.33301 -11 -2.66602 -17 -3.99902c-5.33301 -1.33301 -11.166 -2.33301 -17.499 -3s-12.833 -1 -19.5 -1c-38 0 -61.833 10.5 -71.5 31.5s-5.5 53.833 12.5 98.5l121 296l98 60
c-29.333 -6.66699 -60.5 -17 -93.5 -31s-60.167 -31.667 -81.5 -53l-20 21l52 72c34 14 68.833 23.833 104.5 29.5s75.5 8.5 119.5 8.5zM301 485.996c-3.33301 0 -6.66895 -0.166992 -10.002 -0.5s-6.66602 -0.833008 -9.99902 -1.5l-109 -263
c20.667 -2.66699 39.667 -0.333984 57 6.99902s33.166 17.833 47.499 31.5s26.833 29.167 37.5 46.5s19.334 34.333 26.001 51c14 36.667 18.333 67.334 13 92.001s-22.666 37 -51.999 37z" />
    <glyph glyph-name="Q" unicode="Q" horiz-adv-x="474" 
d="M332 523c26.667 0 50.1699 -5.16504 70.5029 -15.498s36 -25.666 47 -45.999s16.833 -45.833 17.5 -76.5s-5.33301 -66 -18 -106c-12 -38 -26.5 -73.833 -43.5 -107.5s-37.167 -63.834 -60.5 -90.501c9.33301 -6 18.833 -10.5 28.5 -13.5s19.667 -3.33301 30 -1
s21.333 8.66602 33 18.999s24.167 26.166 37.5 47.499l17 -28c-20.667 -36 -45 -64 -73 -84s-56 -30 -84 -30c-15.333 0 -28.333 2.66699 -39 8s-20.334 11.666 -29.001 18.999c-18 -9.33301 -37.5 -16.666 -58.5 -21.999s-43.5 -8 -67.5 -8
c-28.667 0 -53.5 5.33301 -74.5 16s-36.833 26.167 -47.5 46.5s-15.834 45.833 -15.501 76.5s7.16602 66 20.499 106c12.667 37.333 27.167 73.333 43.5 108s36.333 65.5 60 92.5s52.167 48.667 85.5 65s73.333 24.5 120 24.5zM327.003 255.002
c10.667 32 19.6641 61.834 26.9971 89.501s11.666 52 12.999 73s-1.16699 37.5 -7.5 49.5s-17.833 18 -34.5 18c-18 0 -35.667 -6.83301 -53 -20.5s-33.833 -31.334 -49.5 -53.001s-30.167 -46.167 -43.5 -73.5s-24.666 -54.666 -33.999 -81.999l-16.5 -49
c-5 -15.333 -9.16699 -30.333 -12.5 -45c8.66699 7.33301 18.834 13.833 30.501 19.5s24.5 8.5 38.5 8.5c19.333 0 37.333 -5.16699 54 -15.5s30.334 -20.166 41.001 -29.499c9.33301 17.333 17.833 35.166 25.5 53.499s14.834 37.166 21.501 56.499zM131 132.003
c-6 0 -13.668 -2.33105 -23.001 -6.99805c-5.33301 -28.667 -5.16602 -51.5 0.500977 -68.5s19.167 -25.5 40.5 -25.5c13.333 0 26.166 3.16699 38.499 9.5s24.166 15.166 35.499 26.499c-2.66699 5.33301 -6.66699 11.666 -12 18.999s-11.666 14.5 -18.999 21.5
s-16.166 12.833 -26.499 17.5s-21.833 7 -34.5 7z" />
    <glyph glyph-name="R" unicode="R" horiz-adv-x="441" 
d="M319 523c49.333 0 86.332 -12.167 110.999 -36.5s30.334 -58.166 17.001 -101.499c-7.33301 -22.667 -24 -47.334 -50 -74.001s-61 -50 -105 -70l33 -136c4.66699 -22.667 16.334 -34 35.001 -34c10 0 23.333 5.16699 40 15.5s30 25.833 40 46.5l17 -28
c-6.66699 -16 -15.834 -30.833 -27.501 -44.5s-24.834 -25.834 -39.501 -36.501s-30.167 -19 -46.5 -25s-32.5 -9 -48.5 -9c-32.667 0 -54.5 10.833 -65.5 32.5s-16.167 53.5 -15.5 95.5l1 103c-18 0 -30.333 4.66699 -37 14l-61 -148c-5.33301 -14 -6 -25.167 -2 -33.5
s13.667 -12.5 29 -12.5h10l-21 -43c-5.33301 -1.33301 -11 -2.66602 -17 -3.99902c-5.33301 -1.33301 -11.166 -2.33301 -17.499 -3s-12.833 -1 -19.5 -1c-38 0 -61.833 10.5 -71.5 31.5s-5.5 53.833 12.5 98.5l121 296l98 60c-29.333 -6.66699 -60.5 -17 -93.5 -31
s-60.167 -31.667 -81.5 -53l-20 21l52 72c34 14 68.667 23.833 104 29.5s75 8.5 119 8.5zM300.999 486c-3.33301 0 -6.66797 -0.168945 -10.001 -0.501953s-6.66602 -0.833008 -9.99902 -1.5l-79 -190c9.33301 5.33301 20.5 8.33301 33.5 9s27.5 -1.66602 43.5 -6.99902
c17.333 6 30.5 16.667 39.5 32s17.833 37 26.5 65c4.66699 15.333 6.66699 28.833 6 40.5s-3.5 21.334 -8.5 29.001s-11.167 13.5 -18.5 17.5s-15 6 -23 6z" />
    <glyph glyph-name="S" unicode="S" horiz-adv-x="386" 
d="M332 520c16.667 -3.33301 31.1689 -9.83105 43.502 -19.498s21.166 -21.334 26.499 -35.001s7.16602 -29.167 5.49902 -46.5s-8.16699 -35.666 -19.5 -54.999c-12 -21.333 -26 -35.666 -42 -42.999s-30 -7.33301 -42 0s-18.833 19.166 -20.5 35.499
s2.16602 32.5 11.499 48.5c9.33301 15.333 21.5 26.166 36.5 32.499s28.5 5.83301 40.5 -1.5c0.666992 11.333 -3.66602 21.666 -12.999 30.999s-23.666 15.666 -42.999 18.999c-22.667 3.33301 -44 -1 -64 -13s-34.333 -28.333 -43 -49c-10 -22.667 -9.33301 -44.667 2 -66
s30 -40.333 56 -57c35.333 -21.333 60.666 -47 75.999 -77s15.333 -64.667 0 -104c-8.66699 -20.667 -21.167 -40 -37.5 -58s-35.5 -33.167 -57.5 -45.5s-46 -21.166 -72 -26.499s-52.667 -6 -80 -2c-20.667 3.33301 -38.167 10.833 -52.5 22.5s-25 25.5 -32 41.5
s-10 33.5 -9 52.5s6.16699 37.167 15.5 54.5c10 19.333 23.167 34.333 39.5 45s31.833 12 46.5 4c12 -6.66699 18.833 -18.334 20.5 -35.001s-2.16602 -32.667 -11.499 -48c-8.66699 -14.667 -19.834 -25.167 -33.501 -31.5s-26.5 -7.16602 -38.5 -2.49902
c-2 -12.667 4 -25.5 18 -38.5s32.333 -21.833 55 -26.5c11.333 -2.66699 23.5 -2.66699 36.5 0s25.5 7.33398 37.5 14.001s22.833 15.167 32.5 25.5s17.167 22.166 22.5 35.499c10 26.667 8.33301 49.334 -5 68.001s-36 39 -68 61c-16 10.667 -29.333 23.667 -40 39
s-18.167 32 -22.5 50s-5.33301 36.333 -3 55s8.83301 37 19.5 55c10 17.333 22.833 32.666 38.5 45.999s32.834 24 51.501 32s38.167 13.167 58.5 15.5s40.166 1.5 59.499 -2.5z" />
    <glyph glyph-name="T" unicode="T" horiz-adv-x="330" 
d="M443 439c-14 -8.66699 -27.0039 -13.1689 -39.0039 -13.502s-23.5 1.66699 -34.5 6s-21.833 10 -32.5 17s-21.667 13.5 -33 19.5l-156 -381c-5.33301 -14 -6.16602 -25.167 -2.49902 -33.5s13.167 -12.5 28.5 -12.5h10l-20 -43
c-5.33301 -1.33301 -11 -2.66602 -17 -3.99902c-5.33301 -1.33301 -11.333 -2.33301 -18 -3s-13.334 -1 -20.001 -1c-38 0 -61.667 10.5 -71 31.5s-5 53.833 13 98.5l138 338l69 27c-1.33301 0 -2.66602 0.166992 -3.99902 0.5s-2.66602 0.5 -3.99902 0.5
c-19.333 1.33301 -39.166 -0.5 -59.499 -5.5s-40.5 -12.167 -60.5 -21.5s-39.167 -20.666 -57.5 -33.999s-35.166 -27.333 -50.499 -42l-20 21l80 105c34 14 65.167 21.5 93.5 22.5s59.5 -1.83301 93.5 -8.5c13.333 -2.66699 27.333 -5.16699 42 -7.5
s30.5 -3.83301 47.5 -4.5s35.5 -0.166992 55.5 1.5s42 5.16699 66 10.5z" />
    <glyph glyph-name="U" unicode="U" horiz-adv-x="469" 
d="M269 130c-14 -20 -28.833 -38.498 -44.5 -55.498s-31.5 -31.667 -47.5 -44s-32.167 -22.166 -48.5 -29.499s-32.833 -11 -49.5 -11c-38.667 0 -62.667 10.5 -72 31.5s-5 53.833 13 98.5l14 34.5l23 56l27 66l26.5 65.5l22 54c6.33301 15.333 10.833 26 13.5 32
c5.33301 13.333 6 24.166 2 32.499s-13.667 12.5 -29 12.5h-10l21 43c5.33301 1.33301 11 2.66602 17 3.99902c5.33301 1.33301 11.166 2.33301 17.499 3s12.833 1 19.5 1c38 0 61.833 -10.5 71.5 -31.5s5.5 -53.833 -12.5 -98.5l-126 -307
c-6 -15.333 -6.83301 -25.333 -2.5 -30s12.333 -4.16699 24 1.5s26.167 16.334 43.5 32.001s36 35.834 56 60.501s40.5 53.834 61.5 87.501s40.833 71.5 59.5 113.5l31 76c6 13.333 7 24.166 3 32.499s-13.667 12.5 -29 12.5h-10l20 43
c5.33301 1.33301 11 2.66602 17 3.99902c5.33301 1.33301 11.166 2.33301 17.499 3s13.166 1 20.499 1c38 0 61.667 -10.5 71 -31.5s5 -53.833 -13 -98.5l-117 -289c-5.33301 -13.333 -4.66602 -22.833 2.00098 -28.5s15.667 -7.33398 27 -5.00098
s23.833 8.66602 37.5 18.999s24.834 24.5 33.501 42.5l17 -28c-6.66699 -16 -15.834 -30.833 -27.501 -44.5s-24.667 -25.834 -39 -36.501s-29.666 -19 -45.999 -25s-32.5 -9 -48.5 -9s-29.833 2.83301 -41.5 8.5s-20.5 13.834 -26.5 24.501s-8.66699 24 -8 40
s5.33398 34.333 14.001 55z" />
    <glyph glyph-name="V" unicode="V" horiz-adv-x="397" 
d="M2 409c5.33301 16 13.6709 30.835 25.0039 44.502s24.166 25.667 38.499 36s29.5 18.5 45.5 24.5s32 9 48 9c32.667 0 56.167 -10.833 70.5 -32.5s14.166 -53.167 -0.500977 -94.5l-8.5 -24.5l-16 -45l-20.5 -58l-21.5 -62l-20.5 -57.5l-16 -44
c-6 -17.333 -8 -30.833 -6 -40.5s7.16699 -14.334 15.5 -14.001s19.166 6.16602 32.499 17.499s28.666 29 45.999 53c11.333 16 22.833 34.333 34.5 55l34 63l31.5 63.5l27 57.5l20.5 44c5.66699 12 9.83398 19.667 12.501 23c9.33301 14 11.666 25 6.99902 33
s-14.667 12 -30 12h-10l32 44c7.33301 0.666992 14.666 1.66699 21.999 3c6 1.33301 12.667 2.33301 20 3s14.333 1 21 1c38.667 0 59.834 -10.333 63.501 -31s-9.5 -53.667 -39.5 -99l-27 -40.5l-34.5 -51l-32.5 -47.5l-21 -31l-69.5 -97
c-20.333 -28.667 -40 -53.167 -59 -73.5s-38.667 -35.833 -59 -46.5s-43.166 -16 -68.499 -16c-32.667 0 -56.334 10.833 -71.001 32.5s-15 53.5 -1 95.5l103 291c4 12.667 2.5 21.667 -4.5 27s-16.167 7 -27.5 5s-23.5 -8 -36.5 -18s-23.167 -24 -30.5 -42z" />
    <glyph glyph-name="W" unicode="W" horiz-adv-x="609" 
d="M213 121c5.33301 8 12.5029 20.8369 21.5029 38.5039s17.167 34.834 24.5 51.501l26 63l25.5 61l23 53l17.5 40c6 13.333 7 24.166 3 32.499s-13.667 12.5 -29 12.5h-10l20 43c5.33301 1.33301 11 2.66602 17 3.99902c5.33301 1.33301 11.166 2.33301 17.499 3
s13.166 1 20.499 1c38 0 61.5 -10.667 70.5 -32s4.83301 -54 -12.5 -98l-27.5 -69.5l-29.5 -74l-30 -75l-29 -70.5c-7.33301 -16.667 -10.166 -29.834 -8.49902 -39.501s6.83398 -14.334 15.501 -14.001s20 6 34 17s29.333 28.5 46 52.5c11.333 16 22.833 34.333 34.5 55
l34 63l31.5 63.5l27 57.5l20.5 44c5.66699 12 9.83398 19.667 12.501 23c9.33301 14 11.666 25 6.99902 33s-14.667 12 -30 12h-10l32 44c7.33301 0.666992 14.666 1.66699 21.999 3c6.66699 1.33301 13.5 2.33301 20.5 3s14.167 1 21.5 1c38 0 59 -10.333 63 -31
s-9 -53.667 -39 -99c-7.33301 -10 -16.666 -23.5 -27.999 -40.5l-34.5 -51l-32.5 -47.5l-21 -31l-69.5 -97c-20.333 -28.667 -40 -53.167 -59 -73.5s-38.667 -35.833 -59 -46.5s-43.166 -16 -68.499 -16c-21.333 0 -39.5 4.83301 -54.5 14.5s-24.167 24.167 -27.5 43.5
c-18.667 -18.667 -37.667 -33 -57 -43s-41.333 -15 -66 -15c-16 0 -30.167 2.83301 -42.5 8.5s-21.833 13.834 -28.5 24.501s-10.334 24 -11.001 40s2.66602 34.333 9.99902 55l102 291c4.66699 12.667 3.5 21.667 -3.5 27s-16.167 7 -27.5 5s-23.5 -8 -36.5 -18
s-23.167 -24 -30.5 -42l-19 28c5.33301 16 13.666 30.833 24.999 44.5s24.166 25.667 38.499 36s29.5 18.5 45.5 24.5s32 9 48 9c32.667 0 56.167 -10.833 70.5 -32.5s14.166 -53.167 -0.500977 -94.5l-8.5 -24.5l-16 -45l-20.5 -58l-21.5 -62l-20.5 -57.5l-16 -44
c-6 -17.333 -8 -30.833 -6 -40.5s7 -14.334 15 -14.001s18.833 6.16602 32.5 17.499s28.834 29 45.501 53z" />
    <glyph glyph-name="X" unicode="X" horiz-adv-x="455" 
d="M214 220c-25.333 -19.333 -46.6641 -41.833 -63.9971 -67.5s-29 -48.834 -35 -69.501c-6 -19.333 -6 -33.166 0 -41.499s19.667 -9.83301 41 -4.5l-15 -39c-5.33301 -1.33301 -11 -2.66602 -17 -3.99902c-5.33301 -1.33301 -11.166 -2.33301 -17.499 -3
s-12.833 -1 -19.5 -1c-15.333 0 -29.333 2.33301 -42 7s-22.667 11.5 -30 20.5s-11.666 19.667 -12.999 32s1.66699 26.166 9 41.499c8 16.667 18.5 33.334 31.5 50.001s28.167 32.334 45.5 47.001s36.166 28.5 56.499 41.5s41.5 24.5 63.5 34.5l-22 164
c-2 13.333 -7.33301 24.166 -16 32.499s-20.667 12.5 -36 12.5h-9l-4 43c4.66699 1.33301 9.66699 2.66602 15 3.99902c4.66699 1.33301 10 2.33301 16 3s12.667 1 20 1c38 0 67.5 -10.5 88.5 -31.5s34.5 -53.833 40.5 -98.5l11 -80c19.333 18.667 35.5 38.5 48.5 59.5
s22.167 40.167 27.5 57.5c5.33301 19.333 5.16602 33 -0.500977 41s-19.167 9.33301 -40.5 4l15 40c5.33301 0.666992 11 1.66699 17 3c5.33301 1.33301 11 2.33301 17 3s12.667 1 20 1c15.333 0 29.333 -2.33301 42 -7s22.667 -11.334 30 -20.001s11.5 -19.167 12.5 -31.5
s-1.83301 -26.166 -8.5 -41.499c-14.667 -31.333 -37.334 -61 -68.001 -89s-65.334 -52.333 -104.001 -73l22 -156c2 -11.333 5.5 -19.833 10.5 -25.5s12.5 -8.5 22.5 -8.5s23.333 5.16699 40 15.5s30 25.833 40 46.5l17 -28c-6.66699 -16 -15.834 -30.833 -27.501 -44.5
s-24.834 -25.834 -39.501 -36.501s-30.167 -19 -46.5 -25s-32.5 -9 -48.5 -9s-28.667 2.83301 -38 8.5s-16.666 13.834 -21.999 24.501s-9.5 24 -12.5 40s-5.83301 34.333 -8.5 55z" />
    <glyph glyph-name="Y" unicode="Y" horiz-adv-x="322" 
d="M53 524c38 0 67.498 -10.498 88.498 -31.498s34.5 -53.833 40.5 -98.5l14 -101c25.333 20 46.833 42.667 64.5 68s29.5 48.666 35.5 69.999c6 19.333 6 33 0 41s-19.667 9.33301 -41 4l15 40c5.33301 0.666992 11 1.66699 17 3c5.33301 1.33301 11 2.33301 17 3
s12.667 1 20 1c15.333 0 29.333 -2.33301 42 -7s22.667 -11.334 30 -20.001s11.5 -19.167 12.5 -31.5s-1.83301 -26.166 -8.5 -41.499c-15.333 -34 -40.166 -65.833 -74.499 -95.5s-72.833 -54.5 -115.5 -74.5l-68 -166c-5.33301 -14 -6 -25.167 -2 -33.5
s13.667 -12.5 29 -12.5h9l-20 -43c-5.33301 -1.33301 -11 -2.66602 -17 -3.99902c-5.33301 -1.33301 -11.166 -2.33301 -17.499 -3s-12.833 -1 -19.5 -1c-38.667 0 -62.667 10.5 -72 31.5s-5 53.833 13 98.5l48 119l-26 189c-1.33301 13.333 -6.33301 24.166 -15 32.499
s-20.667 12.5 -36 12.5h-10l-4 43c4.66699 1.33301 9.66699 2.66602 15 3.99902c4.66699 1.33301 10 2.33301 16 3s12.667 1 20 1z" />
    <glyph glyph-name="Z" unicode="Z" horiz-adv-x="424" 
d="M499 439l-274.999 -293.001l-83 -32l-11 -14c8 5.33301 16.5 9.66602 25.5 12.999s19.167 5 30.5 5c17.333 0 36.666 -4.5 57.999 -13.5s42.833 -16.167 64.5 -21.5s42.5 -5.5 62.5 -0.5s37.667 21.833 53 50.5l17 -28c-20.667 -36 -43.167 -64 -67.5 -84
s-50.5 -30 -78.5 -30c-17.333 0 -33.833 3 -49.5 9s-30.334 12.667 -44.001 20l-38 20c-11.667 6 -22.167 9 -31.5 9c-8.66699 0 -18 -2.66699 -28 -8s-19.333 -11.333 -28 -18c-10.667 -7.33301 -21 -15.666 -31 -24.999l-43 64l370 393l30 -6
c-11.333 8 -23.166 15.833 -35.499 23.5s-26.166 12.167 -41.499 13.5c-31.333 2 -61.833 -6.83301 -91.5 -26.5s-60.167 -45.167 -91.5 -76.5l-20 21l80 105c30 12.667 55.667 19.334 77 20.001s42.666 -1.33301 63.999 -6c13.333 -2.66699 26.5 -5.16699 39.5 -7.5
s27 -3.83301 42 -4.5s31.5 -0.166992 49.5 1.5s38.667 5.16699 62 10.5z" />
    <glyph glyph-name="bracketleft" unicode="[" horiz-adv-x="409" 
d="M588 683l-29 -69h-176l-257 -730h180l-29 -69h-249l305 868h255z" />
    <glyph glyph-name="backslash" unicode="\" horiz-adv-x="395" 
d="M143 548l175 -622h-74l-176 622h75z" />
    <glyph glyph-name="bracketright" unicode="]" horiz-adv-x="409" 
d="M-112 -185l29 69h176l257 730h-180l29 69h249l-305 -868h-255z" />
    <glyph glyph-name="asciicircum" unicode="^" horiz-adv-x="443" 
d="M470 598l26 -144l-120 -1l6 105l-176 -117l-36 49l203 108h97z" />
    <glyph glyph-name="underscore" unicode="_" 
d="M29 13h282l-29 -69h-282z" />
    <glyph glyph-name="grave" unicode="`" 
d="M324 431l-220 96l61 106l179 -163z" />
    <glyph glyph-name="a" unicode="a" 
d="M258 390c26 0 45.6641 -9.33301 58.9971 -28c2 4.66699 3.5 8.83398 4.5 12.501s2.16699 6.16699 3.5 7.5h110c-2 -6 -6 -16.333 -12 -31l-21 -50.5l-25 -60l-24.5 -59.5l-20 -48.5c-5.66699 -13.667 -9.16699 -22.5 -10.5 -26.5
c-5.33301 -12.667 -4.66602 -21.667 2.00098 -27s15.667 -7 27 -5s23.833 8 37.5 18s24.834 24 33.501 42l17 -28c-6.66699 -16 -15.834 -30.833 -27.501 -44.5s-24.667 -25.5 -39 -35.5s-29.666 -18 -45.999 -24s-32.5 -9 -48.5 -9c-20.667 0 -37.5 4.33301 -50.5 13
s-21.167 21.667 -24.5 39c-19.333 -16 -38.833 -28.667 -58.5 -38s-38.5 -14 -56.5 -14c-22.667 0 -41.167 5.16699 -55.5 15.5s-24.5 24.5 -30.5 42.5s-7.83301 39.167 -5.5 63.5s9.5 50.166 21.5 77.499c28.667 68 64.334 118 107.001 150s87 48 133 48zM299.997 323
c-6 9.33301 -15.6641 13.999 -28.9971 13.999c-12.667 0 -24.5 -2.5 -35.5 -7.5s-22 -13 -33 -24s-22.167 -25.5 -33.5 -43.5s-23.333 -40 -36 -66c-10 -19.333 -17.833 -37.5 -23.5 -54.5s-8.83398 -31.833 -9.50098 -44.5s1.5 -22.667 6.5 -30s13.167 -11 24.5 -11
s23.666 3.33301 36.999 10s26.666 16 39.999 28c2 8.66699 5 17.334 9 26.001z" />
    <glyph glyph-name="b" unicode="b" horiz-adv-x="391" 
d="M-55 0l91.0039 223.003l33.5 82.5l30 72.5l21.5 52c5.33301 13.333 8.33301 20.666 9 21.999c6 13.333 7 24.166 3 32.499s-13.667 12.5 -29 12.5h-10l21 43c5.33301 0.666992 11 1.66699 17 3c5.33301 1.33301 11 2.33301 17 3s12.667 1 20 1
c38 0 61.667 -10.333 71 -31s4.66602 -53.334 -14.001 -98.001l-25 -60c15.333 10 30.666 17.833 45.999 23.5s30 8.5 44 8.5c22.667 0 41.167 -5.16699 55.5 -15.5s24.5 -24.5 30.5 -42.5s7.83301 -39 5.5 -63s-9.5 -49.667 -21.5 -77
c-28.667 -68 -64.334 -118.167 -107.001 -150.5s-86.667 -48.5 -132 -48.5c-25.333 0 -45.333 9 -60 27c-3.33301 -7.33301 -5.33301 -12.333 -6 -15c-0.666992 -2 -1.33398 -3.66699 -2.00098 -5h-109zM248.004 327.003c-11.333 0 -23.1689 -3.16699 -35.502 -9.5
s-25.166 -15.166 -38.499 -26.499l-24.5 -60l-25 -61.5l-24.5 -59l-21 -50.5c6 -8.66699 15.667 -13 29 -13c25.333 0 48.5 10.333 69.5 31s44.167 56.667 69.5 108c9.33301 19.333 16.833 37.666 22.5 54.999s8.83398 32.333 9.50098 45s-1.33301 22.667 -6 30
s-13 11 -25 11z" />
    <glyph glyph-name="c" unicode="c" horiz-adv-x="344" 
d="M361 106c-16.667 -35.333 -45.1582 -63 -85.4912 -83s-87.833 -30 -142.5 -30c-28 0 -51.833 5.16699 -71.5 15.5s-34.834 24.5 -45.501 42.5s-16.334 39.167 -17.001 63.5s4.33301 50.166 15 77.499c26 64.667 60 113.834 102 147.501s88.667 50.5 140 50.5
c21.333 0 38.333 -4.83301 51 -14.5s21.334 -22.167 26.001 -37.5s5.5 -32.5 2.5 -51.5s-9.16699 -37.5 -18.5 -55.5c-8.66699 -16.667 -17.667 -30.334 -27 -41.001s-18.333 -19.167 -27 -25.5s-16.834 -10.666 -24.501 -12.999s-13.834 -3.5 -18.501 -3.5
c-18.667 0 -30.834 7.33301 -36.501 22s-4.5 32.667 3.5 54c10 24.667 23.167 43.667 39.5 57s34.5 20 54.5 20h6.5c2.33301 0 4.16602 -0.333008 5.49902 -1c2 13.333 0.166992 24.333 -5.5 33s-15.167 13 -28.5 13s-26.333 -4.66699 -39 -14s-24.834 -21.333 -36.501 -36
s-22.334 -31.167 -32.001 -49.5s-17.834 -36.833 -24.501 -55.5c-18 -48 -20.667 -83.667 -8 -107s37 -35 73 -35c14 0 28.5 2.33301 43.5 7s29.333 10.834 43 18.501s26.167 16.667 37.5 27s20.666 21.166 27.999 32.499z" />
    <glyph glyph-name="d" unicode="d" 
d="M258 390c26 0 45.6709 -9.33008 59.0039 -27.9971l37 90c6 13.333 6.83301 24.166 2.5 32.499s-13.833 12.5 -28.5 12.5h-10l20 43c5.33301 0.666992 11 1.66699 17 3c5.33301 1.33301 11.166 2.33301 17.499 3s12.833 1 19.5 1c38 0 61.833 -10.333 71.5 -31
s5.16699 -53.334 -13.5 -98.001l-128 -312c-4.66699 -13.333 -3.83398 -22.666 2.49902 -27.999s15.333 -6.83301 27 -4.5s24.167 8.5 37.5 18.5s24.333 24 33 42l17 -28c-6.66699 -16 -15.834 -30.833 -27.501 -44.5s-24.667 -25.5 -39 -35.5s-29.666 -18 -45.999 -24
s-32.5 -9 -48.5 -9c-20.667 0 -37.334 4.16699 -50.001 12.5s-20.667 21.166 -24 38.499c-19.333 -16 -39 -28.5 -59 -37.5s-39 -13.5 -57 -13.5c-22.667 0 -41.167 5.16699 -55.5 15.5s-24.5 24.5 -30.5 42.5s-7.83301 39.167 -5.5 63.5s9.5 50.166 21.5 77.499
c29.333 68 65.166 118 107.499 150s86.5 48 132.5 48zM217.004 120.003l11.502 27.5l20.5 48.5l25.5 61.5l26.5 65.5c-7.33301 9.33301 -17.333 14 -30 14c-24.667 0 -47.334 -10.5 -68.001 -31.5s-44 -57.5 -70 -109.5c-9.33301 -19.333 -16.833 -37.5 -22.5 -54.5
s-8.83398 -31.833 -9.50098 -44.5s1.5 -22.667 6.5 -30s13.167 -11 24.5 -11s23.333 3.33301 36 10s25.667 15.667 39 27c1.33301 4.66699 2.83301 9 4.5 13s3.5 8.66699 5.5 14z" />
    <glyph glyph-name="e" unicode="e" horiz-adv-x="344" 
d="M192 49c14 0 28.5039 2.33203 43.5039 6.99902s29.333 10.834 43 18.501s26.167 16.667 37.5 27s20.666 21.166 27.999 32.499l17 -28c-16.667 -35.333 -45.334 -63 -86.001 -83s-88 -30 -142 -30c-28 0 -51.833 5.16699 -71.5 15.5s-34.834 24.5 -45.501 42.5
s-16.334 39.167 -17.001 63.5s4.33301 50.166 15 77.499c25.333 64.667 59.166 113.834 101.499 147.501s89.166 50.5 140.499 50.5c27.333 0 48 -7.16699 62 -21.5s21.833 -31.666 23.5 -51.999s-2.66602 -42 -12.999 -65s-26.166 -43.5 -47.499 -61.5
c-30 -24.667 -64.667 -37 -104 -37h-64c-8.66699 -30 -5.5 -54.833 9.5 -74.5s38.167 -29.5 69.5 -29.5zM231.004 344.999c-6.66699 -2.66699 -14.501 -8.66406 -23.501 -17.9971s-18.167 -21 -27.5 -35s-18.833 -29.667 -28.5 -47s-18.167 -35.333 -25.5 -54h35
c15.333 0 28.333 4.66699 39 14s20.667 23.666 30 42.999c8 14.667 14.333 28.667 19 42s7.33398 24.666 8.00098 33.999s-1 16.166 -5 20.499s-11 4.5 -21 0.5z" />
    <glyph glyph-name="f" unicode="f" horiz-adv-x="336" 
d="M87 348c26 65.333 60.0078 114.836 102.008 148.503s88.667 50.5 140 50.5c21.333 0 38.333 -4.83301 51 -14.5s21.334 -22 26.001 -37s5.5 -32 2.5 -51s-9.16699 -37.5 -18.5 -55.5c-8.66699 -16.667 -17.667 -30.5 -27 -41.5s-18.333 -19.667 -27 -26
s-16.834 -10.833 -24.501 -13.5s-13.834 -4 -18.501 -4c-18.667 0 -30.834 7.66699 -36.501 23s-4.5 33.666 3.5 54.999c10 24 23.167 42.833 39.5 56.5s34.5 20.5 54.5 20.5c3.33301 0 7.66602 -0.666992 12.999 -2c1.33301 13.333 -0.833984 24.333 -6.50098 33
s-15.167 13 -28.5 13s-26.333 -4.5 -39 -13.5s-24.834 -20.833 -36.501 -35.5s-22.334 -31.334 -32.001 -50.001s-17.834 -37.334 -24.501 -56.001l-54 -131c40.667 -3.33301 62 -28.333 64 -75c19.333 0.666992 37.666 3.5 54.999 8.5s33 11.5 47 19.5
s26.333 17.167 37 27.5s19.334 20.833 26.001 31.5l17 -27c-14.667 -32 -38.334 -57.667 -71.001 -77s-71.667 -31.333 -117 -36l-11 -36.5c-4 -13 -9.33301 -26.167 -16 -39.5c-29.333 -61.333 -60.333 -108 -93 -140s-65 -48 -97 -48s-54.5 10.833 -67.5 32.5
s-10.833 53.167 6.5 94.5zM130.008 22.0029c13.333 26.667 22.6689 49.668 28.002 69.001s7.5 35.166 6.5 47.499s-4.83301 21.333 -11.5 27s-15 8.16699 -25 7.5l-96 -234c-5.33301 -12.667 -6.33301 -22 -3 -28s9.66602 -6.5 18.999 -1.5s21.166 16.5 35.499 34.5
s29.833 44 46.5 78z" />
    <glyph glyph-name="g" unicode="g" horiz-adv-x="396" 
d="M433 382l-18 -43.999l-22 -53.5l-24 -59l-24 -59.5l-58 -142c-25.333 -64.667 -59 -114 -101 -148s-88.667 -51 -140 -51c-21.333 0 -38.333 5 -51 15s-21.5 22.667 -26.5 38s-6 32.333 -3 51s9.5 37 19.5 55c9.33301 15.333 20 28.666 32 39.999
c-14 18 -21 41.5 -21 70.5s7.33301 61.5 22 97.5c29.333 68 65.333 118 108 150s87 48 133 48c24.667 0 43.667 -8.66699 57 -26l7 18h110zM133 56.001c10 0 20.834 2.83301 32.501 8.5s23.5 13.167 35.5 22.5l98 238c-6.66699 8 -16 12 -28 12s-23.5 -2.5 -34.5 -7.5
s-22 -13 -33 -24s-22.167 -25.5 -33.5 -43.5s-23.333 -40 -36 -66c-10 -19.333 -17.833 -37.5 -23.5 -54.5s-8.83398 -31.833 -9.50098 -44.5s1.5 -22.667 6.5 -30s13.5 -11 25.5 -11zM89.001 -6.99902c-8 0 -15.3369 0.668945 -22.0039 2.00195s-13 3 -19 5
c-9.33301 -6.66699 -18 -16.334 -26 -29.001s-14.333 -28.667 -19 -48c-3.33301 -16.667 -0.833008 -29.834 7.5 -39.501s19.166 -14.5 32.499 -14.5c12.667 0 25.334 4.5 38.001 13.5s24.834 20.833 36.501 35.5s22.334 31.167 32.001 49.5s17.834 36.5 24.501 54.5
c-14.667 -9.33301 -29.167 -16.5 -43.5 -21.5s-28.166 -7.5 -41.499 -7.5z" />
    <glyph glyph-name="h" unicode="h" horiz-adv-x="385" 
d="M90 88c-5.33301 -14 -5.99902 -25.0029 -1.99902 -33.0029s13.667 -12 29 -12h10l-21 -43c-5.33301 -1.33301 -11 -2.66602 -17 -3.99902c-10 -2 -22.333 -3 -37 -3c-38 0 -61.667 10.333 -71 31s-5 53 13 97l138 341c6 13.333 7 24.166 3 32.499s-13.667 12.5 -29 12.5
h-10l21 43c5.33301 0.666992 11 1.66699 17 3c5.33301 1.33301 11 2.33301 17 3s12.667 1 20 1c38 0 61.833 -10.333 71.5 -31s5.16699 -53.667 -13.5 -99l-27 -65c13.333 8.66699 27.5 15.5 42.5 20.5s29.833 7.5 44.5 7.5c32 0 54.333 -10.833 67 -32.5
s10.667 -53.167 -6 -94.5l-65 -157c-4.66699 -12.667 -3.66699 -21.667 3 -27s15.667 -7 27 -5s23.666 8 36.999 18s24.333 24 33 42l17 -28c-6.66699 -16 -15.834 -30.833 -27.501 -44.5s-24.667 -25.5 -39 -35.5s-29.666 -18 -45.999 -24s-32.5 -9 -48.5 -9
s-29.833 2.66699 -41.5 8s-20.334 13.333 -26.001 24s-8.16699 24 -7.5 40s5.33398 34.333 14.001 55l65 156c4 10 4.16699 17.833 0.5 23.5s-9.5 8.83398 -17.5 9.50098s-17.167 -1.16602 -27.5 -5.49902s-20.5 -11.166 -30.5 -20.499l-80 -195v0z" />
    <glyph glyph-name="i" unicode="i" horiz-adv-x="198" 
d="M215 106c-6.66699 -16 -15.832 -30.832 -27.499 -44.499s-24.667 -25.5 -39 -35.5s-29.666 -18 -45.999 -24s-32.5 -9 -48.5 -9c-32.667 0 -55.334 10.667 -68.001 32s-10.334 53 6.99902 95l15.5 36.5l21.5 51.5l20.5 51c6.33301 16 11.166 27.667 14.499 35
c5.33301 13.333 6 24.166 2 32.499s-13.667 12.5 -29 12.5h-10l21 43c5.33301 1.33301 11 2.66602 17 3.99902c5.33301 1.33301 11.166 2.33301 17.499 3s12.833 1 19.5 1c38 0 61.667 -10.5 71 -31.5s5 -53.5 -13 -97.5l-16.5 -41l-21.5 -52l-25 -62
c-5.33301 -13.333 -4.66602 -22.666 2.00098 -27.999s15.834 -6.83301 27.501 -4.5s24.167 8.5 37.5 18.5s24.333 24 33 42zM257.002 487.001c0 -16.667 -6 -31 -18 -43s-26.333 -18 -43 -18c-17.333 0 -32 6 -44 18s-18 26.333 -18 43s6 31 18 43s26.667 18 44 18
c16.667 0 31 -6 43 -18s18 -26.333 18 -43z" />
    <glyph glyph-name="j" unicode="j" horiz-adv-x="178" 
d="M23 -79c-6 -13.333 -7 -24.166 -3 -32.499s13.667 -12.5 29 -12.5h10l-21 -43c-5.33301 -1.33301 -11 -2.66602 -17 -3.99902c-5.33301 -1.33301 -11.166 -2.33301 -17.499 -3s-12.833 -1 -19.5 -1c-38 0 -61.5 10.5 -70.5 31.5s-4.5 53.5 13.5 97.5l14.5 37l25 62
l30 73.5l29.5 73l24.5 60c7 17 11.833 28.5 14.5 34.5c6 13.333 6.83301 24.166 2.5 32.499s-14.166 12.5 -29.499 12.5h-10l21 43c5.33301 1.33301 11 2.66602 17 3.99902c5.33301 1.33301 11.166 2.33301 17.499 3s12.833 1 19.5 1c38 0 61.667 -10.5 71 -31.5
s5 -53.5 -13 -97.5c-2.66699 -7.33301 -7.83398 -20.333 -15.501 -39l-26 -64l-30.5 -75.5l-30 -73.5l-24 -58.5zM257 487c0 -16.667 -6 -31 -18 -43s-26.333 -18 -43 -18c-17.333 0 -32 6 -44 18s-18 26.333 -18 43s6 31 18 43s26.667 18 44 18c16.667 0 31 -6 43 -18
s18 -26.333 18 -43z" />
    <glyph glyph-name="k" unicode="k" horiz-adv-x="372" 
d="M272 106c-5.33301 -12.667 -4.8291 -21.667 1.50391 -27s15.333 -7 27 -5s24.167 8 37.5 18s24.666 24 33.999 42l16 -28c-6 -16 -14.833 -30.833 -26.5 -44.5s-24.834 -25.5 -39.501 -35.5s-30 -18 -46 -24s-32 -9 -48 -9c-32.667 0 -55.334 11.333 -68.001 34
s-10.667 53.667 6 93c4 9.33301 5.5 17.666 4.5 24.999s-3.66699 13 -8 17s-10.333 5.83301 -18 5.5s-15.834 -3.5 -24.501 -9.5l-29 -70c-5.33301 -14 -6 -25 -2 -33s13.667 -12 29 -12h9l-20 -43c-5.33301 -1.33301 -11 -2.66602 -17 -3.99902c-10 -2 -22.333 -3 -37 -3
c-38.667 0 -62.667 10.333 -72 31s-5 53 13 97l15.5 37l25.5 62l30 74l30 73.5l24 60c6.66699 17 11.334 28.5 14.001 34.5c6 13.333 7 24.166 3 32.499s-13.667 12.5 -29 12.5h-10l20 43c5.33301 0.666992 11 1.66699 17 3c5.33301 1.33301 11.166 2.33301 17.499 3
s12.833 1 19.5 1c38 0 61.667 -10.333 71 -31s5 -53.667 -13 -99l-89 -218l101 35c-6.66699 6.66699 -10.167 15.834 -10.5 27.501s2.16699 24.167 7.5 37.5c9.33301 24.667 22.166 43.667 38.499 57s34.833 20 55.5 20c18.667 0 31.334 -7.66699 38.001 -23
s5 -33.333 -5 -54c-16 -34 -35.667 -57.5 -59 -70.5s-46 -21.167 -68 -24.5c24.667 -3.33301 39.5 -14.5 44.5 -33.5s1.5 -43.833 -10.5 -74.5z" />
    <glyph glyph-name="l" unicode="l" horiz-adv-x="199" 
d="M216 106c-6.66699 -16 -15.833 -30.833 -27.5 -44.5s-24.667 -25.5 -39 -35.5s-29.666 -18 -45.999 -24s-32.5 -9 -48.5 -9s-29.833 2.66699 -41.5 8s-20.5 13.333 -26.5 24s-8.66699 24 -8 40s5.33398 34.333 14.001 55c2 5.33301 6.66699 16.5 14 33.5l25 60l30 73.5
l30 73.5l24.5 59.5l13.5 32c6 13.333 7 24.166 3 32.499s-13.667 12.5 -29 12.5h-10l21 43c5.33301 0.666992 11 1.66699 17 3c5.33301 1.33301 11 2.33301 17 3s12.667 1 20 1c38 0 61.667 -10.333 71 -31s4.66602 -53.334 -14.001 -98.001
c-2 -5.33301 -5.33301 -13.666 -10 -24.999l-16.5 -40.5l-21 -51l-22.5 -54.5l-57 -141c-5.33301 -13.333 -4.66602 -22.666 2.00098 -27.999s15.667 -6.83301 27 -4.5s23.666 8.5 36.999 18.5s24.666 24 33.999 42l17 -28v0z" />
    <glyph glyph-name="m" unicode="m" horiz-adv-x="566" 
d="M466 106c-5.33301 -12.667 -4.66602 -21.666 2.00098 -26.999s15.667 -7 27 -5s23.833 8 37.5 18s24.834 24 33.501 42l17 -28c-6.66699 -16 -15.834 -30.833 -27.501 -44.5s-24.667 -25.5 -39 -35.5s-29.666 -18 -45.999 -24s-32.5 -9 -48.5 -9
c-32.667 0 -55.334 10.667 -68.001 32s-10.334 53 6.99902 95l64 156c4 10 4.5 17.667 1.5 23s-8.16699 8.5 -15.5 9.5s-16 -0.166992 -26 -3.5s-19.667 -9 -29 -17c-1.33301 -4 -2.83301 -8 -4.5 -12s-3.16699 -8.33301 -4.5 -13l-72 -175c-5.33301 -14 -6 -25 -2 -33
s13.333 -12 28 -12h10l-20 -43c-5.33301 -1.33301 -11 -2.66602 -17 -3.99902c-10 -2 -22.333 -3 -37 -3c-38 0 -61.833 10.333 -71.5 31s-5.16699 53 13.5 97c4 9.33301 9.33301 22.666 16 39.999l21 52l26 63c4 10 4.16699 17.833 0.5 23.5s-9.16699 9 -16.5 10
s-16 -0.5 -26 -4.5s-20 -10.333 -30 -19c-1.33301 -4 -2.83301 -8 -4.5 -12s-3.16699 -8.33301 -4.5 -13c-4 -10.667 -9.66699 -24.667 -17 -42l-21.5 -52.5l-19.5 -48.5c-6 -14.667 -10 -24.667 -12 -30c-6 -14 -7 -25 -3 -33s13.667 -12 29 -12h10l-21 -43
c-5.33301 -1.33301 -11 -2.66602 -17 -3.99902c-10 -2 -22.333 -3 -37 -3c-38 0 -61.667 10.333 -71 31s-5 53 13 97c4 10.667 9.33301 24 16 40l20.5 49.5l19.5 48c6 15 11 26.833 15 35.5c5.33301 13.333 6 24.166 2 32.499s-13.333 12.5 -28 12.5h-10l20 43
c5.33301 1.33301 11 2.66602 17 3.99902c5.33301 1.33301 11 2.33301 17 3s12.667 1 20 1c44 0 69 -14.667 75 -44c16 13.333 33.333 24 52 32s37.334 12 56.001 12c40.667 0 65 -15.333 73 -46c16 14 33.5 25.167 52.5 33.5s38.167 12.5 57.5 12.5
c32.667 0 55.167 -10.667 67.5 -32s10.166 -53 -6.50098 -95z" />
    <glyph glyph-name="n" unicode="n" horiz-adv-x="386" 
d="M90 88c-5.33301 -14 -6.00195 -25.001 -2.00195 -33.001s13.667 -12 29 -12h10l-20 -43c-5.33301 -1.33301 -11 -2.66602 -17 -3.99902c-10 -2 -22.333 -3 -37 -3c-38 0 -61.833 10.333 -71.5 31s-5.5 53 12.5 97l71 173c6 13.333 7 24.166 3 32.499
s-13.667 12.5 -29 12.5h-10l20 43c5.33301 1.33301 11 2.66602 17 3.99902c5.33301 1.33301 11.166 2.33301 17.499 3s12.833 1 19.5 1c45.333 0 70.333 -15.667 75 -47c16 14.667 33.667 26.167 53 34.5s38.666 12.5 57.999 12.5c32.667 0 55.334 -10.667 68.001 -32
s10.334 -53 -6.99902 -95l-14 -35.5l-19 -46.5l-18.5 -45c-5.66699 -14 -9.83398 -24 -12.501 -30c-5.33301 -12.667 -4.66602 -21.667 2.00098 -27s15.834 -7 27.501 -5s24.167 8 37.5 18s24.333 24 33 42l17 -28c-6.66699 -16 -15.834 -30.833 -27.501 -44.5
s-24.667 -25.5 -39 -35.5s-29.666 -18 -45.999 -24s-32.5 -9 -48.5 -9s-29.833 2.66699 -41.5 8s-20.5 13.333 -26.5 24s-8.66699 24 -8 40s5.33398 34.333 14.001 55l65 156c4 10 4.16699 17.833 0.5 23.5s-9.5 8.66699 -17.5 9s-17.5 -1.66699 -28.5 -6
s-21.5 -11.5 -31.5 -21.5c-1.33301 -3.33301 -2.5 -6.66602 -3.5 -9.99902s-2.16699 -6.66602 -3.5 -9.99902c-4 -10.667 -9.66699 -24.667 -17 -42l-21.5 -52.5l-20 -48.5c-6.33301 -14.667 -10.5 -24.667 -12.5 -30z" />
    <glyph glyph-name="o" unicode="o" horiz-adv-x="375" 
d="M257 390c24 0 44.166 -5.16699 60.499 -15.5s28.166 -24.5 35.499 -42.5s10.333 -39 9 -63s-7.33301 -49.667 -18 -77c-12 -31.333 -26.667 -59.166 -44 -83.499s-36.5 -45.166 -57.5 -62.499s-43.333 -30.5 -67 -39.5s-48.167 -13.5 -73.5 -13.5
c-24.667 0 -45 5.16699 -61 15.5s-27.667 24.5 -35 42.5s-10.166 39.167 -8.49902 63.5s7.83398 50.166 18.501 77.499c25.333 63.333 58.833 112.166 100.5 146.499s88.5 51.5 140.5 51.5zM231.999 191c8 20.667 14.501 40.334 19.501 59.001s8.16699 35.167 9.5 49.5
s0.666016 25.833 -2.00098 34.5s-8 13 -16 13s-17 -4.33301 -27 -13s-20.167 -20.167 -30.5 -34.5s-20.5 -30.833 -30.5 -49.5s-19 -38.334 -27 -59.001c-8 -20 -14.667 -39.167 -20 -57.5s-8.5 -34.5 -9.5 -48.5s0.166992 -25.167 3.5 -33.5s9 -12.5 17 -12.5
s16.833 4.16699 26.5 12.5s19.5 19.5 29.5 33.5s20 30.167 30 48.5s19 37.5 27 57.5z" />
    <glyph glyph-name="p" unicode="p" horiz-adv-x="391" 
d="M121 -7c-25.333 0 -44.668 8.66797 -58.001 26.001l-40 -98c-6 -13.333 -6.83301 -24.166 -2.5 -32.499s13.833 -12.5 28.5 -12.5h10l-21 -43c-5.33301 -1.33301 -11 -2.66602 -17 -3.99902c-5.33301 -1.33301 -11.166 -2.33301 -17.499 -3s-12.833 -1 -19.5 -1
c-38 0 -61.5 10.5 -70.5 31.5s-4.5 53.5 13.5 97.5l15 37l25 62l30 73.5l30 73l24 60c6.66699 17 11.334 28.5 14.001 34.5c6 13.333 6.83301 24.166 2.5 32.499s-14.166 12.5 -29.499 12.5h-9l20 43c5.33301 1.33301 11 2.66602 17 3.99902
c5.33301 1.33301 11.166 2.33301 17.499 3s12.833 1 19.5 1c46.667 0 72 -16 76 -48c18.667 15.333 37.5 27.166 56.5 35.499s37.167 12.5 54.5 12.5c22.667 0 41.167 -5.16699 55.5 -15.5s24.666 -24.5 30.999 -42.5s8.16602 -39 5.49902 -63s-9.66699 -49.667 -21 -77
c-29.333 -68.667 -65.166 -119 -107.499 -151s-86.5 -48 -132.5 -48zM79.998 59.001c6 -8 15.333 -12 28 -12c12 0 23.5 2.33301 34.5 7s22 12.5 33 23.5s22.167 25.333 33.5 43s23.666 39.5 36.999 65.5c9.33301 19.333 16.833 37.666 22.5 54.999
s8.83398 32.333 9.50098 45s-1.5 22.667 -6.5 30s-13.167 11 -24.5 11s-23.333 -3.16699 -36 -9.5s-25.667 -15.166 -39 -26.499c-1.33301 -5.33301 -2.83301 -10.333 -4.5 -15l-5.5 -15z" />
    <glyph glyph-name="q" unicode="q" horiz-adv-x="399" 
d="M436 382l-92.0029 -223l-34 -82.5l-30 -72l-21.5 -52c-5.66699 -13.667 -8.5 -20.834 -8.5 -21.501c-6 -13.333 -6.83301 -24.166 -2.5 -32.499s14.166 -12.5 29.499 -12.5h9l-20 -44c-5.33301 -1.33301 -11 -2.66602 -17 -3.99902c-10 -2 -22.333 -3 -37 -3
c-38.667 0 -62.667 10.5 -72 31.5s-5 53.5 13 97.5c0.666992 1.33301 3.16699 7.5 7.5 18.5l17.5 42.5c-15.333 -10 -30.666 -17.833 -45.999 -23.5s-29.666 -8.5 -42.999 -8.5c-22.667 0 -41.167 5.16699 -55.5 15.5s-24.666 24.5 -30.999 42.5
s-8.16602 39.167 -5.49902 63.5s9.66699 50.166 21 77.499c29.333 68 65.166 118 107.499 150s86.5 48 132.5 48c24.667 0 44.334 -9 59.001 -27c1.33301 4 3 8 5 12c1.33301 2.66699 2.33301 5 3 7h111zM131.997 56c10.667 0 22.1689 3 34.502 9s25.166 14.667 38.499 26
l25 60.5l25.5 62l24 58.5l20.5 51c-6 9.33301 -15.667 14 -29 14c-24.667 0 -47.5 -10.5 -68.5 -31.5s-44.167 -57.5 -69.5 -109.5c-9.33301 -19.333 -16.833 -37.5 -22.5 -54.5s-8.83398 -31.833 -9.50098 -44.5s1.33301 -22.667 6 -30s13 -11 25 -11z" />
    <glyph glyph-name="r" unicode="r" horiz-adv-x="250" 
d="M149 463c19.333 0 32 -7.5 38 -22.5s4.66699 -33.167 -4 -54.5c-6 -16 -13.333 -29.333 -22 -40h88c-2 -6 -5.66699 -15.333 -11 -28l-18 -44l-21.5 -52l-21.5 -51l-17.5 -41.5c-5 -11.667 -8.16699 -19.5 -9.5 -23.5c-5.33301 -12.667 -4.66602 -21.667 2.00098 -27
s15.834 -7 27.501 -5s24.167 8 37.5 18s24.333 24 33 42l17 -28c-6.66699 -16 -15.834 -30.833 -27.501 -44.5s-24.667 -25.5 -39 -35.5s-29.666 -18 -45.999 -24s-32.5 -9 -48.5 -9s-29.833 2.66699 -41.5 8s-20.334 13.333 -26.001 24s-8.16699 24 -7.5 40
s5.33398 34.333 14.001 55l82 198c-12 -6 -24.667 -9 -38 -9c-18.667 0 -31 7.5 -37 22.5s-4.33301 33.167 5 54.5c9.33301 24.667 22.166 43.667 38.499 57s34.166 20 53.499 20z" />
    <glyph glyph-name="s" unicode="s" horiz-adv-x="338" 
d="M185 312c20.667 4 39.9941 3.5 57.9941 -1.5s32.667 -13.667 44 -26s18.833 -28.333 22.5 -48s1.83398 -42.167 -5.49902 -67.5c-10 -33.333 -23 -61.166 -39 -83.499s-34.333 -40.333 -55 -54s-43 -23.5 -67 -29.5s-49 -9 -75 -9
c-21.333 0 -38.166 4.83301 -50.499 14.5s-20.833 22 -25.5 37s-5.66699 32 -3 51s9 37.5 19 55.5c8.66699 16.667 17.667 30.5 27 41.5s18.333 19.667 27 26s16.667 10.666 24 12.999s13.333 3.5 18 3.5c18.667 0 31 -7.5 37 -22.5s5 -33.167 -3 -54.5
c-10 -24.667 -23.167 -43.667 -39.5 -57s-34.5 -20 -54.5 -20c-3.33301 0 -7.66602 0.666992 -12.999 2c-1.33301 -13.333 0.833984 -24.333 6.50098 -33s15.167 -13 28.5 -13c12.667 0 25.167 3.33301 37.5 10s23.833 16 34.5 28s20.667 26 30 42s17.333 33.333 24 52
c18 48 21.167 81.333 9.5 100s-36.5 22.334 -74.5 11.001c-9.33301 -2.66699 -17.333 -2.16699 -24 1.5s-11.667 9.16699 -15 16.5s-5.16602 16 -5.49902 26s1.5 20.333 5.5 31c10 25.333 23.167 44.666 39.5 57.999s34.5 20 54.5 20c19.333 0 31.833 -7.5 37.5 -22.5
s4.5 -33.5 -3.5 -55.5c-2.66699 -6 -6.66699 -13.5 -12 -22.5s-11.666 -15.833 -18.999 -20.5z" />
    <glyph glyph-name="t" unicode="t" horiz-adv-x="200" 
d="M225 410l-125.003 -304c-5.33301 -12.667 -4.66602 -21.667 2.00098 -27s15.834 -7 27.501 -5s24.167 8 37.5 18s24.333 24 33 42l17 -28c-6.66699 -16 -15.834 -30.833 -27.501 -44.5s-24.667 -25.5 -39 -35.5s-29.666 -18 -45.999 -24s-32.5 -9 -48.5 -9
s-29.833 2.66699 -41.5 8s-20.5 13.333 -26.5 24s-8.66699 24 -8 40s5.33398 34.333 14.001 55l120 290h-57l28 51h50l12 30l120 23l-22 -53h90l-28 -51h-82z" />
    <glyph glyph-name="u" unicode="u" horiz-adv-x="390" 
d="M290 106c-5.33301 -12.667 -4.66406 -21.665 2.00293 -26.998s15.834 -7 27.501 -5s24.167 8 37.5 18s24.333 24 33 42l17 -28c-6.66699 -16 -15.834 -30.833 -27.501 -44.5s-24.667 -25.5 -39 -35.5s-29.666 -18 -45.999 -24s-32.5 -9 -48.5 -9
c-20.667 0 -37.334 4.33301 -50.001 13s-20.667 21.667 -24 39c-16.667 -16 -35.5 -28.667 -56.5 -38s-41.5 -14 -61.5 -14c-16 0 -29.833 2.66699 -41.5 8s-20.334 13.333 -26.001 24s-8.16699 24 -7.5 40s5.33398 34.333 14.001 55l15.5 36.5l21.5 51.5l20.5 51
c6.33301 16 11.166 27.667 14.499 35c6 13.333 7 24.166 3 32.499s-13.667 12.5 -29 12.5h-10l20 43c5.33301 1.33301 11 2.66602 17 3.99902c5.33301 1.33301 11.166 2.33301 17.499 3s13.166 1 20.499 1c38 0 61.667 -10.5 71 -31.5s4.66602 -53.5 -14.001 -97.5
l-16.5 -41l-21.5 -52l-25 -62c-4 -11.333 -3.83301 -19.833 0.5 -25.5s10.833 -8.5 19.5 -8.5s18.667 2.83301 30 8.5s22 14.167 32 25.5c0.666992 2.66699 1.33398 5 2.00098 7s1.66699 4.33301 3 7l108 262h111z" />
    <glyph glyph-name="v" unicode="v" horiz-adv-x="351" 
d="M397 382l-19.002 -41.4971l-28 -60.5l-28 -60l-18 -39c-28 -61.333 -60 -108 -96 -140s-83 -48 -141 -48c-16 0 -30 2.66699 -42 8s-21.333 13.333 -28 24s-10.5 24 -11.5 40s1.83301 34.333 8.5 55c2.66699 8 7.33398 20.167 14.001 36.5l21 51.5l20.5 51
c6.33301 16 10.5 27.667 12.5 35c4 13.333 4.5 24.166 1.5 32.499s-12.167 12.5 -27.5 12.5h-10l21 43c5.33301 1.33301 11 2.66602 17 3.99902c5.33301 1.33301 11 2.33301 17 3s12.667 1 20 1c38 0 62.167 -10.833 72.5 -32.5s6.16602 -53.834 -12.501 -96.501
c-25.333 -58.667 -42.5 -103.5 -51.5 -134.5s-10.5 -51.5 -4.5 -61.5c2.66699 -4 6.5 -6.83301 11.5 -8.5s10.333 -2.33398 16 -2.00098s11.334 1.83301 17.001 4.5s10.834 6.33398 15.501 11.001c0 12 1.33301 23.5 4 34.5s8 27 16 48s20 49.333 36 85l65 144.5h111z" />
    <glyph glyph-name="w" unicode="w" horiz-adv-x="545" 
d="M590 382l-19.498 -41.4932l-28 -60.5l-27.5 -60l-18 -39c-14 -30.667 -28.833 -57.667 -44.5 -81s-33 -43 -52 -59s-40.167 -28 -63.5 -36s-49.333 -12 -78 -12c-21.333 0 -39.166 4.83301 -53.499 14.5s-23.166 24.167 -26.499 43.5
c-17.333 -17.333 -37 -31.333 -59 -42s-43.667 -16 -65 -16c-32.667 0 -55.334 10.667 -68.001 32s-10.334 53 6.99902 95l72 174c5.33301 13.333 6 24.166 2 32.499s-13.667 12.5 -29 12.5h-9l20 43c5.33301 1.33301 11 2.66602 17 3.99902
c5.33301 1.33301 11.166 2.33301 17.499 3s12.833 1 19.5 1c38 0 61.667 -10.5 71 -31.5s5 -53.5 -13 -97.5l-16.5 -41l-21.5 -52l-25 -62c-4.66699 -11.333 -4.66699 -19.833 0 -25.5s11.5 -8.5 20.5 -8.5s19.167 3 30.5 9s22 15 32 27l4 12
c2.66699 8 7.16699 20.167 13.5 36.5l20.5 51.5l21 51c6.66699 16 11 27.667 13 35c4.66699 13.333 5.33398 24.166 2.00098 32.499s-12.666 12.5 -27.999 12.5h-10l21 43c5.33301 1.33301 11 2.66602 17 3.99902c5.33301 1.33301 11.166 2.33301 17.499 3s12.833 1 19.5 1
c38 0 62.167 -10.833 72.5 -32.5s6.5 -53.834 -11.5 -96.501c-25.333 -58.667 -42.5 -103.5 -51.5 -134.5s-10.5 -51.5 -4.5 -61.5c5.33301 -8.66699 14.166 -12.334 26.499 -11.001s23.166 6.66602 32.499 15.999c0 12 1.33301 23.5 4 34.5s8.16699 27 16.5 48
s20.5 49.333 36.5 85l65 144.5h111z" />
    <glyph glyph-name="x" unicode="x" horiz-adv-x="368" 
d="M328 386c19.333 0 32.335 -7.66992 39.002 -23.0029s5 -33.333 -5 -54c-13.333 -28 -29.333 -48.667 -48 -62s-37.334 -22.666 -56.001 -27.999c13.333 -9.33301 21.166 -23.5 23.499 -42.5s-2.16699 -42.5 -13.5 -70.5c-5.33301 -12.667 -4.66602 -21.667 2.00098 -27
s15.667 -7 27 -5s23.833 8 37.5 18s24.834 24 33.501 42l17 -28c-6.66699 -16 -15.834 -30.833 -27.501 -44.5s-24.667 -25.5 -39 -35.5s-29.666 -18 -45.999 -24s-32.5 -9 -48.5 -9c-32.667 0 -55.167 11.333 -67.5 34s-10.166 53.667 6.50098 93
c7.33301 18 6.66602 31.667 -2.00098 41s-21.667 9.33301 -39 0l-30 -73c-6 -14 -7 -25 -3 -33s13.667 -12 29 -12h10l-21 -43c-5.33301 -1.33301 -11 -2.66602 -17 -3.99902c-10 -2 -22.333 -3 -37 -3c-71.333 0 -93.333 36 -66 108c4.66699 12.667 8.5 22.667 11.5 30
l6.5 16c3.33301 8.66699 10.666 15.334 21.999 20.001l70 27c-18 22 -20 55.333 -6 100c4.66699 13.333 5.33398 24.166 2.00098 32.499s-12.666 12.5 -27.999 12.5h-9l20 43c5.33301 1.33301 11 2.66602 17 3.99902c5.33301 1.33301 11 2.33301 17 3s12.667 1 20 1
c38 0 62.667 -9.66699 74 -29s9.66602 -43.666 -5.00098 -72.999c-9.33301 -19.333 -14.833 -33.333 -16.5 -42s-1.16699 -15.667 1.5 -21l54 19c-6 6.66699 -9.33301 15.834 -10 27.501s1.66602 24.167 6.99902 37.5c9.33301 24.667 22.166 43.667 38.499 57
s34.5 20 54.5 20z" />
    <glyph glyph-name="y" unicode="y" horiz-adv-x="374" 
d="M404 382l-18.499 -43.9961l-22 -53.5l-23.5 -59l-24 -59.5l-58 -142c-25.333 -64.667 -59 -114 -101 -148s-88.667 -51 -140 -51c-21.333 0 -38.5 5 -51.5 15s-21.833 22.667 -26.5 38s-5.5 32.333 -2.5 51s9.5 37 19.5 55c9.33301 15.333 20 28.666 32 39.999
c-6 11.333 -8.83301 24.833 -8.5 40.5s4.83301 34.167 13.5 55.5l15.5 36.5l22 51.5l21 51c6.33301 16 10.833 27.667 13.5 35c6 13.333 7 24.166 3 32.499s-13.667 12.5 -29 12.5h-10l21 43c5.33301 1.33301 11 2.66602 17 3.99902c5.33301 1.33301 11 2.33301 17 3
s12.667 1 20 1c38 0 61.833 -10.5 71.5 -31.5s5.16699 -53.5 -13.5 -97.5l-16.5 -41l-21.5 -52l-25 -62c-4 -11.333 -4 -19.833 0 -25.5s10.167 -8.66699 18.5 -9s18.166 2.16699 29.499 7.5s22 13.666 32 24.999l114 278h111zM55.001 -6.99609c-14.667 0 -27.333 2 -38 6
c-8.66699 -7.33301 -17 -17 -25 -29s-14 -27.667 -18 -47c-4 -16.667 -1.83301 -29.834 6.5 -39.501s19.166 -14.5 32.499 -14.5c12.667 0 25.5 4.66699 38.5 14s25.333 21.333 37 36s22.5 31.167 32.5 49.5s18.333 36.5 25 54.5
c-14.667 -9.33301 -29.667 -16.666 -45 -21.999s-30.666 -8 -45.999 -8z" />
    <glyph glyph-name="z" unicode="z" horiz-adv-x="297" 
d="M89 382l260.998 -0.000976562l-3 -6l-40 -92l-194 -123c24 2.66699 45.5 1 64.5 -5s34 -16 45 -30s17.167 -31.5 18.5 -52.5s-3.33398 -44.833 -14.001 -71.5c-26 -64 -58.833 -109.5 -98.5 -136.5s-85.167 -40.5 -136.5 -40.5c-21.333 0 -38.166 4.83301 -50.499 14.5
s-20.833 22.167 -25.5 37.5s-5.66699 32.5 -3 51.5s8.66699 37.5 18 55.5c8.66699 16.667 17.667 30.334 27 41.001s18.333 19.167 27 25.5s16.667 10.833 24 13.5s13.333 4 18 4c19.333 0 32 -7.5 38 -22.5s4.66699 -33.167 -4 -54.5
c-9.33301 -24.667 -22.166 -43.667 -38.499 -57s-34.833 -20 -55.5 -20c-5.33301 0 -9.66602 0.333008 -12.999 1c-1.33301 -13.333 1 -24.333 7 -33s15.667 -13 29 -13c12.667 0 25.167 3.5 37.5 10.5s23.833 16.5 34.5 28.5s20.667 26 30 42s17.333 33.333 24 52
c14 38 16.667 67 8 87s-25 30 -49 30c-8 0 -16.833 -1.33301 -26.5 -4s-19.167 -6.66699 -28.5 -12l-11 -7l-9 38l15.5 39.5c5.66699 15 11.167 28.167 16.5 39.5l187 127h-148z" />
    <glyph glyph-name="braceleft" unicode="{" horiz-adv-x="409" 
d="M149 -202c-34.667 24 -57.999 48.5039 -69.999 73.5039s-16.833 50.167 -14.5 75.5s9.83301 50.166 22.5 74.499s26.167 47.833 40.5 70.5l39.5 63c12 19.333 18.833 36.666 20.5 51.999s-4 28 -17 38s-37.5 17 -73.5 21l27 49c38.667 0 69.5 4.83301 92.5 14.5
s41.5 22.334 55.5 38.001s24.667 33.667 32 54s14.333 41.5 21 63.5s14.667 44 24 66s22.666 42.5 39.999 61.5s40.333 35.667 69 50s65.667 25.166 111 32.499l12 -55c-30.667 -10 -55.167 -25 -73.5 -45s-33.833 -42.167 -46.5 -66.5s-24.667 -49.666 -36 -75.999
s-25.5 -50.833 -42.5 -73.5s-39 -42.334 -66 -59.001s-62.5 -27.334 -106.5 -32.001c23.333 -10.667 39.666 -23.834 48.999 -39.501s13.833 -33 13.5 -52s-4.16602 -39 -11.499 -60s-16 -42.5 -26 -64.5l-30.5 -65.5c-10.333 -21.667 -18.5 -42.167 -24.5 -61.5
s-9 -37.333 -9 -54s5.66699 -31 17 -43z" />
    <glyph glyph-name="bar" unicode="|" 
d="M426 694l-306 -868h-74l305 868h75z" />
    <glyph glyph-name="braceright" unicode="}" horiz-adv-x="409" 
d="M305 695c34.667 -24 58.167 -48.1631 70.5 -72.4961s17.833 -48.333 16.5 -72s-7.5 -46.834 -18.5 -69.501s-23.167 -44.334 -36.5 -65.001l-36 -57.5c-10.667 -17.667 -16.5 -33.334 -17.5 -47.001s5.33301 -25.167 19 -34.5s38.5 -16 74.5 -20l-27 -49
c-38.667 0 -69.834 -5.16699 -93.501 -15.5s-42.834 -24.166 -57.501 -41.499s-26.334 -37 -35.001 -59s-17 -44.833 -25 -68.5s-17.167 -47.5 -27.5 -71.5s-24.666 -46.167 -42.999 -66.5s-42.166 -38.333 -71.499 -54s-66.666 -26.834 -111.999 -33.501l-12 55
c30.667 10 55.5 25.667 74.5 47s35.667 45.333 50 72s28 54.5 41 83.5s28.833 56 47.5 81s42 46.5 70 64.5s64 29.333 108 34c-30.667 14 -50 31.667 -58 53s-9.5 44.666 -4.5 69.999s14 51.5 27 78.5s24.667 53.333 35 79s17 49.667 20 72s-2.83301 41.5 -17.5 57.5z" />
    <glyph glyph-name="asciitilde" unicode="~" horiz-adv-x="461" 
d="M63 166c22.667 31.333 49.165 56.666 79.498 75.999s60.833 31.333 91.5 36c20.667 2.66699 35 0.166992 43 -7.5s13.333 -16.5 16 -26.5l7.5 -27.5c2.33301 -8.33301 8.5 -11.833 18.5 -10.5s20 5.66602 30 12.999s18.667 15.333 26 24c8.66699 10 17.334 21 26.001 33
l36 -35c-14.667 -18.667 -30.667 -35.667 -48 -51c-15.333 -13.333 -33.5 -26 -54.5 -38s-43.833 -19.667 -68.5 -23c-16.667 -2 -29.5 -1.66699 -38.5 1s-15.833 6.83398 -20.5 12.501s-7.83398 12 -9.50098 19s-3 13.5 -4 19.5s-2.66699 10.833 -5 14.5
s-6.5 5.16699 -12.5 4.5c-9.33301 -1.33301 -18.666 -5.5 -27.999 -12.5s-17.666 -14.5 -24.999 -22.5c-8.66699 -9.33301 -17 -19.666 -25 -30.999z" />
    <glyph glyph-name="exclamdown" unicode="&#xa1;" horiz-adv-x="261" 
d="M208 500c0 18 6.5 33.5 19.5 46.5s28.833 19.5 47.5 19.5s34.5 -6.5 47.5 -19.5s19.5 -28.5 19.5 -46.5c0 -18.667 -6.5 -34.5 -19.5 -47.5s-28.833 -19.5 -47.5 -19.5s-34.5 6.5 -47.5 19.5s-19.5 28.833 -19.5 47.5zM19 98c12.667 28.667 28.498 56.668 47.498 84.001
s38 52.833 57 76.5l53 64c16.333 19 28.833 34.167 37.5 45.5h35c-19.333 -38 -35.333 -75.833 -48 -113.5s-23.167 -71.834 -31.5 -102.501s-14.666 -56.167 -18.999 -76.5s-7.5 -32.166 -9.5 -35.499c-8 -16.667 -20.667 -28 -38 -34s-34.666 -5.33301 -51.999 2
c-16.667 8 -28.167 20.667 -34.5 38s-5.5 34.666 2.5 51.999z" />
    <glyph glyph-name="cent" unicode="&#xa2;" horiz-adv-x="380" 
d="M329 447l-21.002 -59.002c20.667 -12.667 32 -33.167 34 -61.5s-4.33301 -56.833 -19 -85.5c-1.33301 -2.66699 -2.66602 -5.16699 -3.99902 -7.5s-2.66602 -4.5 -3.99902 -6.5l-34 24c12 23.333 18 42.5 18 57.5s-2.66699 26.167 -8 33.5l-103 -283h10
c14 0 28.5 2.33301 43.5 7s29.333 10.834 43 18.501s26.167 16.667 37.5 27s20.666 21.166 27.999 32.499l17 -28c-15.333 -32 -40.333 -57.833 -75 -77.5s-76 -31.167 -124 -34.5l-24 -67h-54l24 67c-23.333 2.66699 -43.166 9.83398 -59.499 21.501
s-28.666 26.334 -36.999 44.001s-12.5 37.834 -12.5 60.501s5 46.667 15 72c25.333 64 58.666 112.667 99.999 146s87 50.666 137 51.999l17 47h55zM132.998 200.998c-12 -32 -17.168 -58.333 -15.501 -79s9.16699 -36.334 22.5 -47.001l99 274
c-10.667 -5.33301 -21.167 -13 -31.5 -23s-20.166 -21.833 -29.499 -35.5s-17.833 -28.167 -25.5 -43.5s-14.167 -30.666 -19.5 -45.999z" />
    <glyph glyph-name="sterling" unicode="&#xa3;" horiz-adv-x="480" 
d="M68 241l33.002 0.00195312l12 29h-37l15 35h34c14.667 34.667 32.167 65.5 52.5 92.5s42.833 49.833 67.5 68.5s50.834 32.834 78.501 42.501s56.167 14.5 85.5 14.5c23.333 0 42.5 -4.83301 57.5 -14.5s25.667 -22.167 32 -37.5s8.66602 -32.5 6.99902 -51.5
s-7.5 -37.5 -17.5 -55.5c-8.66699 -16.667 -17.667 -30.5 -27 -41.5s-18.5 -19.667 -27.5 -26s-17.167 -10.833 -24.5 -13.5s-13.333 -4 -18 -4c-19.333 0 -31.833 7.66699 -37.5 23s-4.16699 33.666 4.5 54.999c9.33301 24.667 22.333 43.667 39 57s35 20 55 20
c6 0 10.333 -0.333008 13 -1c2 4.66699 2.66699 9.66699 2 15s-2.83398 10.333 -6.50098 15s-9.5 8.5 -17.5 11.5s-18.333 4.5 -31 4.5c-20 0 -38.833 -4.66699 -56.5 -14s-33.834 -22 -48.501 -38s-28 -34.5 -40 -55.5s-22.667 -43.167 -32 -66.5h86l-14 -35h-85l-12 -29
h89l-15 -35h-88l-46 -113c8.66699 6.66699 18.5 12.5 29.5 17.5s23.167 7.5 36.5 7.5c11.333 0 22.333 -3 33 -9s21.334 -12.333 32.001 -19s21.167 -12.834 31.5 -18.501s21.333 -7.83398 33 -6.50098s24 7 37 17s26.833 27 41.5 51l17 -28
c-20.667 -36 -44.834 -64 -72.501 -84s-55.5 -30 -83.5 -30c-17.333 0 -31.833 3.5 -43.5 10.5s-21.834 14.833 -30.501 23.5l-24 23.5c-7.33301 7 -15.666 10.5 -24.999 10.5c-6.66699 0 -13.667 -1.83301 -21 -5.5s-14.5 -8.16699 -21.5 -13.5s-13.667 -11 -20 -17
l-15.5 -15l-4 -5l-5 -5h-73l27 65l27 66.5l31 76.5h-33z" />
    <glyph glyph-name="currency" unicode="&#xa4;" horiz-adv-x="450" 
d="M341 190c0 -12 -1.99805 -23.3311 -5.99805 -33.998l34 -28l-57 -75l-28 42c-16.667 -9.33301 -34.667 -14 -54 -14c-17.333 0 -33.5 3.66699 -48.5 11s-27.5 17.333 -37.5 30l-91 -59l-9 75l76 36c-0.666992 3.33301 -1 8.66602 -1 15.999c0 13.333 2.66699 27 8 41
l-32 21l56 74l29 -37c7.33301 3.33301 15.166 6.16602 23.499 8.49902s17.166 3.5 26.499 3.5c17.333 0 33.5 -3.66699 48.5 -11s27.5 -17.333 37.5 -30l107 58l10 -74l-94 -33c0.666992 -3.33301 1.16699 -6.83301 1.5 -10.5s0.5 -7.16699 0.5 -10.5zM297.002 190.002
c0 18.667 -6.5 34.5 -19.5 47.5s-28.833 19.5 -47.5 19.5s-34.5 -6.5 -47.5 -19.5s-19.5 -28.833 -19.5 -47.5c0 -18 6.5 -33.5 19.5 -46.5s28.833 -19.5 47.5 -19.5s34.5 6.5 47.5 19.5s19.5 28.5 19.5 46.5z" />
    <glyph glyph-name="yen" unicode="&#xa5;" horiz-adv-x="387" 
d="M75 233l55.998 0.00195312l2 6l-26 189c-1.33301 13.333 -6.33301 24.166 -15 32.499s-20.667 12.5 -36 12.5h-10l-4 43c4.66699 1.33301 9.66699 2.66602 15 3.99902c4.66699 1.33301 10 2.33301 16 3s12.667 1 20 1c38 0 67.5 -10.5 88.5 -31.5
s34.5 -53.833 40.5 -98.5l14 -101c25.333 20 46.833 42.667 64.5 68s29.5 48.666 35.5 69.999c6 19.333 6 33 0 41s-19.667 9.33301 -41 4l15 40c5.33301 0.666992 11 1.66699 17 3c5.33301 1.33301 11 2.33301 17 3s12.667 1 20 1c15.333 0 29.333 -2.33301 42 -7
s22.667 -11.334 30 -20.001s11.5 -19.167 12.5 -31.5s-1.83301 -26.166 -8.5 -41.499c-15.333 -34 -40.166 -65.833 -74.499 -95.5s-72.833 -54.5 -115.5 -74.5l-8 -20h63l-14 -35h-63l-12 -29h67l-15 -35h-67l-19 -47c-5.33301 -14 -6 -25.167 -2 -33.5
s13.667 -12.5 29 -12.5h9l-20 -43c-5.33301 -1.33301 -11 -2.66602 -17 -3.99902c-5.33301 -1.33301 -11.166 -2.33301 -17.499 -3s-12.833 -1 -19.5 -1c-38.667 0 -62.667 10.5 -72 31.5s-5 53.833 13 98.5l5 14h-52l14 35h53l12 29h-57z" />
    <glyph glyph-name="brokenbar" unicode="&#xa6;" 
d="M252 199l-132 -373h-74l131 373h75zM216 311l135 383h75l-135 -383h-75z" />
    <glyph glyph-name="section" unicode="&#xa7;" horiz-adv-x="419" 
d="M368 167c-14.667 -36.667 -40.667 -65.3311 -78 -85.998c-2 -16 -7.66699 -32.333 -17 -49c-8.66699 -14.667 -19.5 -27.5 -32.5 -38.5s-27.167 -19.833 -42.5 -26.5s-31.333 -11 -48 -13s-33 -1.33301 -49 2c-14 2.66699 -26 8 -36 16s-17.333 17.833 -22 29.5
s-6.33398 24.5 -5.00098 38.5s6.66602 29 15.999 45c10 18 21.667 30 35 36s25 6 35 0s15.667 -15.833 17 -29.5s-2 -27.167 -10 -40.5c-7.33301 -12.667 -17.166 -21.5 -29.499 -26.5s-23.5 -4.5 -33.5 1.5c-0.666992 -9.33301 2.83301 -18 10.5 -26s19.5 -13.333 35.5 -16
c18.667 -2.66699 36.334 1 53.001 11s28.667 23.667 36 41c8 18.667 7.33301 36.834 -2 54.501s-24.666 33.5 -45.999 47.5c-14.667 8.66699 -27.334 18.334 -38.001 29.001s-19 22.167 -25 34.5s-9.16699 25.666 -9.5 39.999s2.83398 29.5 9.50098 45.5
c14.667 35.333 40.667 64 78 86c2 18.667 7.66699 35.334 17 50.001c8.66699 14.667 19.5 27.5 32.5 38.5s27.167 19.833 42.5 26.5s31.333 11 48 13s33 1.33301 49 -2c14 -3.33301 26 -8.83301 36 -16.5s17.333 -17.334 22 -29.001s6.33398 -24.667 5.00098 -39
s-6.66602 -29.5 -15.999 -45.5c-10 -17.333 -21.667 -29 -35 -35s-25 -6 -35 0s-15.667 15.667 -17 29s2 26.666 10 39.999c7.33301 13.333 17.166 22.5 29.499 27.5s23.5 4.5 33.5 -1.5c0.666992 9.33301 -2.83301 17.833 -10.5 25.5s-19.5 12.834 -35.5 15.501
c-18.667 3.33301 -36.334 0 -53.001 -10s-28.667 -23.667 -36 -41c-8 -18.667 -7.33301 -36.834 2 -54.501s24.666 -33.5 45.999 -47.5c14.667 -8.66699 27.334 -18.334 38.001 -29.001s19 -22.334 25 -35.001s9.16699 -26.167 9.5 -40.5s-2.83398 -29.5 -9.50098 -45.5z
M225 258.003c-21.333 14.667 -36.668 33 -46.001 55c-1.33301 -1.33301 -2.16602 -3 -2.49902 -5s-0.833008 -3.66699 -1.5 -5c-8.66699 -22 -7.5 -40.667 3.5 -56s29.833 -32.333 56.5 -51c21.333 -14.667 36.333 -33 45 -55l5 11c8.66699 22 7.5 40.667 -3.5 56
s-29.833 32 -56.5 50z" />
    <glyph glyph-name="dieresis" unicode="&#xa8;" horiz-adv-x="440" 
d="M198 499c0 -16.667 -5.66699 -30.667 -17 -42s-25.666 -17 -42.999 -17c-16 0 -30 5.66699 -42 17s-18 25.333 -18 42c0 17.333 6 31.666 18 42.999s26 17 42 17c17.333 0 31.666 -5.66699 42.999 -17s17 -25.666 17 -42.999zM348 499c0 -16.667 -6 -30.667 -18 -42
s-26 -17 -42 -17c-17.333 0 -31.666 5.66699 -42.999 17s-17 25.333 -17 42c0 17.333 5.66699 31.666 17 42.999s25.666 17 42.999 17c16 0 30 -5.66699 42 -17s18 -25.666 18 -42.999z" />
    <glyph glyph-name="copyright" unicode="&#xa9;" horiz-adv-x="833" 
d="M573 563c52 0 93.1719 -10.5 123.505 -31.5s51.166 -48.5 62.499 -82.5s14.166 -73 8.49902 -117s-18.334 -88.667 -38.001 -134s-45.5 -90 -77.5 -134s-68.5 -83 -109.5 -117s-85.833 -61.5 -134.5 -82.5s-99.334 -31.5 -152.001 -31.5s-94 10.5 -124 31.5
s-50.333 48.5 -61 82.5s-12.834 73 -6.50098 117s19.666 88.667 39.999 134s46.666 90 78.999 134s68.833 83 109.5 117s84.834 61.5 132.501 82.5s96.834 31.5 147.501 31.5zM258.005 -126c44.667 0 87.834 9.16699 129.501 27.5s80.667 42.666 117 72.999
s69.166 64.833 98.499 103.5s53.333 78.167 72 118.5s31.667 79.833 39 118.5s7 73.167 -1 103.5s-24 54.666 -48 72.999s-58 27.5 -102 27.5c-42 0 -83 -9.16699 -123 -27.5s-77.833 -42.666 -113.5 -72.999s-68 -64.833 -97 -103.5s-53.167 -78.167 -72.5 -118.5
s-32.833 -79.833 -40.5 -118.5s-8.16699 -73.167 -1.5 -103.5s21.5 -54.666 44.5 -72.999s55.833 -27.5 98.5 -27.5zM526.005 82c-8 -12.667 -17.4932 -24.666 -28.4932 -35.999s-23.833 -21.166 -38.5 -29.499s-31.167 -15 -49.5 -20s-38.833 -7.5 -61.5 -7.5
c-46 0 -76.667 18 -92 54s-14 87 4 153c10 36 23.333 68 40 96s35.667 51.667 57 71s44.666 34.166 69.999 44.499s51.666 15.5 78.999 15.5c19.333 0 35 -4 47 -12s20.667 -18.333 26 -31s7.16602 -26.5 5.49902 -41.5s-6.5 -29.833 -14.5 -44.5
c-7.33301 -13.333 -14.833 -24.5 -22.5 -33.5s-15 -16.167 -22 -21.5s-13.5 -9 -19.5 -11s-10.667 -3 -14 -3c-15.333 0 -25.5 6.16699 -30.5 18.5s-3.83301 27.5 3.5 45.5c7.33301 19.333 17.833 34.333 31.5 45s28.5 16 44.5 16h11
c1.33301 3.33301 1.83301 7.16602 1.5 11.499s-2 8.33301 -5 12s-7.66699 6.83398 -14 9.50098s-14.833 4 -25.5 4c-18.667 0 -35.834 -4.83301 -51.501 -14.5s-29.834 -22.334 -42.501 -38.001s-24 -33.834 -34 -54.501s-18.667 -42 -26 -64
c-8.66699 -25.333 -15.167 -49 -19.5 -71s-5.33301 -41 -3 -57s8.66602 -28.667 18.999 -38s26.166 -14 47.499 -14c24 0 45.833 6.83301 65.5 20.5s35.5 29.834 47.5 48.501z" />
    <glyph glyph-name="ordfeminine" unicode="&#xaa;" horiz-adv-x="603" 
d="M433 683c26 0 45.6641 -9.33301 58.9971 -28c2 4.66699 3.5 8.83398 4.5 12.501s2.16699 6.16699 3.5 7.5h110c-2 -6 -6 -16.333 -12 -31l-21 -50.5l-25 -60.5l-24.5 -59.5l-20 -48c-5.66699 -13.667 -9.16699 -22.5 -10.5 -26.5
c-5.33301 -12.667 -4.66602 -21.667 2.00098 -27s15.667 -7 27 -5s23.833 8 37.5 18s24.834 24 33.501 42l17 -28c-6.66699 -16 -15.834 -30.833 -27.501 -44.5s-24.667 -25.5 -39 -35.5s-29.666 -18 -45.999 -24s-32.5 -9 -48.5 -9c-20.667 0 -37.5 4.33301 -50.5 13
s-21.167 21.667 -24.5 39c-19.333 -16 -38.833 -28.667 -58.5 -38s-38.5 -14 -56.5 -14c-22.667 0 -41.167 5.16699 -55.5 15.5s-24.5 24.5 -30.5 42.5s-7.83301 39.167 -5.5 63.5s9.5 50.166 21.5 77.499c28.667 68 64.334 118 107.001 150s87 48 133 48zM474.997 616
c-6 9.33301 -15.6641 13.999 -28.9971 13.999c-12.667 0 -24.5 -2.5 -35.5 -7.5s-22 -13 -33 -24s-22.167 -25.5 -33.5 -43.5s-23.333 -40 -36 -66c-10 -19.333 -17.833 -37.5 -23.5 -54.5s-8.83398 -31.833 -9.50098 -44.5s1.5 -22.667 6.5 -30s13.167 -11 24.5 -11
s23.666 3.33301 36.999 10s26.666 16 39.999 28c2 8.66699 5 17.334 9 26.001z" />
    <glyph glyph-name="guillemotleft" unicode="&#xab;" horiz-adv-x="594" 
d="M114 275l294 141l23 -57l-270 -127l116 -134l-64 -73l-139 184zM314 275l294 141l23 -57l-270 -127l116 -134l-64 -73l-139 184z" />
    <glyph glyph-name="logicalnot" unicode="&#xac;" 
d="M79 223h282l-69 -164h-74l42 95h-210z" />
    <glyph glyph-name="uni00AD" unicode="&#xad;" horiz-adv-x="270" 
d="M79 223h162l-29 -69h-162z" />
    <glyph glyph-name="registered" unicode="&#xae;" horiz-adv-x="833" 
d="M573 563c52 0 93.1719 -10.5 123.505 -31.5s51.166 -48.5 62.499 -82.5s14.166 -73 8.49902 -117s-18.334 -88.667 -38.001 -134s-45.5 -90 -77.5 -134s-68.5 -83 -109.5 -117s-85.833 -61.5 -134.5 -82.5s-99.334 -31.5 -152.001 -31.5s-94 10.5 -124 31.5
s-50.333 48.5 -61 82.5s-12.834 73 -6.50098 117s19.666 88.667 39.999 134s46.666 90 78.999 134s68.833 83 109.5 117s84.834 61.5 132.501 82.5s96.834 31.5 147.501 31.5zM258.005 -126c44.667 0 87.834 9.16699 129.501 27.5s80.667 42.666 117 72.999
s69.166 64.833 98.499 103.5s53.333 78.167 72 118.5s31.667 79.833 39 118.5s7 73.167 -1 103.5s-24 54.666 -48 72.999s-58 27.5 -102 27.5c-42 0 -83 -9.16699 -123 -27.5s-77.833 -42.666 -113.5 -72.999s-68 -64.833 -97 -103.5s-53.167 -78.167 -72.5 -118.5
s-32.833 -79.833 -40.5 -118.5s-8.16699 -73.167 -1.5 -103.5s21.5 -54.666 44.5 -72.999s55.833 -27.5 98.5 -27.5zM454.005 13c-27.333 0 -43.8291 9.99707 -49.4961 29.9971s-3.5 44.667 6.5 74c7.33301 26 11.5 44.5 12.5 55.5s-1.16699 18.833 -6.5 23.5
c-19.333 -4.66699 -34.666 -5.33398 -45.999 -2.00098l-46 -111c-4.66699 -10 -5.33398 -18.167 -2.00098 -24.5s10.333 -9.5 21 -9.5h7l-14 -31c-4.66699 -1.33301 -9 -2.33301 -13 -3s-8.16699 -1.16699 -12.5 -1.5s-8.83301 -0.5 -13.5 -0.5c-54 0 -68.333 30.667 -43 92
l87 214l74 45c-10.667 -2.66699 -21.834 -5.83398 -33.501 -9.50098s-23.334 -8.16699 -35.001 -13.5s-22.667 -11.166 -33 -17.499s-19.5 -13.5 -27.5 -21.5l-14 15l37 52c23.333 9.33301 47.833 16.166 73.5 20.499s54.5 6.5 86.5 6.5c35.333 0 62 -8.66699 80 -26
s22 -41.666 12 -72.999c-2.66699 -9.33301 -7.33398 -18.166 -14.001 -26.499s-14.334 -16.166 -23.001 -23.499s-17.667 -13.833 -27 -19.5s-18 -9.83398 -26 -12.501l-7 -3c13.333 -5.33301 22.666 -14 27.999 -26s4.33301 -28.333 -3 -49
c-9.33301 -23.333 -12.666 -40 -9.99902 -50s9 -15 19 -15c8 0 17.833 3.5 29.5 10.5s21.834 17.833 30.501 32.5l11 -19c-4.66699 -11.333 -11.334 -22.166 -20.001 -32.499s-18.167 -19.166 -28.5 -26.499s-21.333 -13.166 -33 -17.499s-23.167 -6.5 -34.5 -6.5z
M456.009 369.997c-5.33301 0 -9.66602 -0.333984 -12.999 -1.00098l-57 -139c3.33301 0.666992 7.16602 0.833984 11.499 0.500977s9.16602 -0.833008 14.499 -1.5c18 0 33.667 7.33301 47 22s23.333 31.667 30 51c6.66699 22 5.83398 38.833 -2.49902 50.5
s-18.5 17.5 -30.5 17.5z" />
    <glyph glyph-name="macron" unicode="&#xaf;" 
d="M99 555h282l-29 -69h-282z" />
    <glyph glyph-name="degree" unicode="&#xb0;" horiz-adv-x="275" 
d="M247 319c0 18.667 -6.5 34.5 -19.5 47.5s-28.833 19.5 -47.5 19.5s-34.5 -6.5 -47.5 -19.5s-19.5 -28.833 -19.5 -47.5c0 -18 6.5 -33.5 19.5 -46.5s28.833 -19.5 47.5 -19.5s34.5 6.5 47.5 19.5s19.5 28.5 19.5 46.5zM291 319c0 -14.667 -3 -28.667 -9 -42
s-14 -25 -24 -35s-21.667 -17.833 -35 -23.5s-27.666 -8.5 -42.999 -8.5s-29.666 2.83301 -42.999 8.5s-25 13.5 -35 23.5s-18 21.667 -24 35s-9 27.333 -9 42c0 15.333 3 29.666 9 42.999s14 25 24 35s21.667 18 35 24s27.666 9 42.999 9s29.666 -3 42.999 -9
s25 -14 35 -24s18 -21.667 24 -35s9 -27.666 9 -42.999z" />
    <glyph glyph-name="plusminus" unicode="&#xb1;" 
d="M327 389l-41 -96h105l-29 -69h-105l-40 -95h-74l40 95h-103l29 69h103l40 96h75zM29 83h282l-29 -69h-282z" />
    <glyph glyph-name="twosuperior" unicode="&#xb2;" horiz-adv-x="313" 
d="M320 521c30 0 52.4971 -5.50293 67.4971 -16.5029s23.5 -25 25.5 -42s-2 -36.167 -12 -57.5s-24.5 -42.166 -43.5 -62.499s-42.167 -39 -69.5 -56s-57.666 -30.167 -90.999 -39.5h141l-36 -87h-253l37 87h28c19.333 0 39.333 5.33301 60 16s40 24.167 58 40.5
s33.667 33.833 47 52.5s22.333 36.167 27 52.5s4 29.833 -2 40.5s-19 16 -39 16c-7.33301 0 -14.833 -1.16699 -22.5 -3.5s-15.5 -5.16602 -23.5 -8.49902c8.66699 -5.33301 13.834 -13.666 15.501 -24.999s-0.166016 -24.333 -5.49902 -39
c-8.66699 -21.333 -20.5 -38 -35.5 -50s-31.167 -18 -48.5 -18c-16.667 0 -28 6.66699 -34 20s-4.33301 29.333 5 48c10 22 23.5 41.333 40.5 58s35.167 30.5 54.5 41.5s38.5 19.167 57.5 24.5s36.167 8 51.5 8z" />
    <glyph glyph-name="threesuperior" unicode="&#xb3;" horiz-adv-x="313" 
d="M330 512c30 -4.66699 49.998 -16.3252 59.998 -34.9922s12 -38.834 6 -60.501s-19.333 -42.5 -40 -62.5s-46.667 -33.667 -78 -41c18.667 -9.33301 32.167 -23 40.5 -41s11.833 -37.5 10.5 -58.5s-7.5 -42 -18.5 -63s-26.167 -39.333 -45.5 -55
s-42.5 -26.834 -69.5 -33.501s-57.5 -6.33398 -91.5 0.999023c-28.667 6.66699 -46.834 23 -54.501 49s-2.83398 55.333 14.499 88c11.333 22.667 25.166 39 41.499 49s31.333 14.833 45 14.5s23.834 -5.5 30.501 -15.5s6 -24 -2 -42
c-9.33301 -21.333 -22.666 -37.333 -39.999 -48s-34.666 -13.334 -51.999 -8.00098c-1.33301 -3.33301 -1.83301 -7.33301 -1.5 -12s1.16602 -9.33398 2.49902 -14.001s3.66602 -9 6.99902 -13s8 -6.66699 14 -8c19.333 -4.66699 38.833 0.166016 58.5 14.499
s36.167 32.333 49.5 54s21.5 44 24.5 67s-2.16699 41.167 -15.5 54.5c-11.333 -4 -22.666 -7.16699 -33.999 -9.5s-21.5 -3.33301 -30.5 -3s-16.333 2 -22 5s-8.5 7.16699 -8.5 12.5c0 8.66699 7.83301 16.667 23.5 24s43.167 8.66602 82.5 3.99902
c20.667 9.33301 37.167 21.166 49.5 35.499s20.333 28.5 24 42.5s2.83398 26.667 -2.49902 38s-15.333 18.333 -30 21c-5.33301 1.33301 -11.333 1.33301 -18 0s-14 -3 -22 -5c8 -2 12.833 -8.66699 14.5 -20s-1.16602 -23.666 -8.49902 -36.999
c-9.33301 -18 -21.166 -30.667 -35.499 -38s-27.333 -10 -39 -8s-20 8.16699 -25 18.5s-2.83301 24.5 6.5 42.5c11.333 20.667 24.833 37.5 40.5 50.5s31.667 23.167 48 30.5s32.5 12.166 48.5 14.499s30 2.5 42 0.5z" />
    <glyph glyph-name="acute" unicode="&#xb4;" 
d="M104 470l179 163l61 -106l-220 -96z" />
    <glyph glyph-name="mu" unicode="&#xb5;" horiz-adv-x="390" 
d="M290 106c-5.33301 -12.667 -4.66504 -21.665 2.00195 -26.998s15.834 -7 27.501 -5s24.167 8 37.5 18s24.333 24 33 42l17 -28c-6.66699 -16 -15.834 -30.833 -27.501 -44.5s-24.667 -25.5 -39 -35.5s-29.666 -18 -45.999 -24s-32.5 -9 -48.5 -9
c-20.667 0 -37.334 4.33301 -50.001 13s-20.667 21.667 -24 39c-16.667 -16 -35.5 -28.667 -56.5 -38s-41.5 -14 -61.5 -14s-37 4.33301 -51 13l-22 -180h-92l176 468c6 13.333 7 24.166 3 32.499s-13.667 12.5 -29 12.5h-10l20 43c5.33301 1.33301 11 2.66602 17 3.99902
c5.33301 1.33301 11.166 2.33301 17.499 3s13.166 1 20.499 1c38 0 61.667 -10.5 71 -31.5s4.66602 -53.5 -14.001 -97.5l-16.5 -41l-21.5 -52l-25 -62c-4 -11.333 -3.83301 -19.833 0.5 -25.5s10.833 -8.5 19.5 -8.5s18.667 2.83301 30 8.5s22 14.167 32 25.5
c0.666992 2.66699 1.33398 5 2.00098 7s1.66699 4.33301 3 7l108 262h111z" />
    <glyph glyph-name="paragraph" unicode="&#xb6;" horiz-adv-x="534" 
d="M46 -174l165.999 474.002c-29.333 5.33301 -50.833 15.666 -64.5 30.999s-21 33.166 -22 53.499s3.66699 41.5 14 63.5s25.333 42.167 45 60.5s43.334 33.5 71.001 45.5s58.167 18 91.5 18h202l-29 -69h-25l-238 -677h-74l237 677h-62l-238 -677h-74z" />
    <glyph glyph-name="periodcentered" unicode="&#xb7;" horiz-adv-x="290" 
d="M217 219c0 -18 -6.5 -33.5 -19.5 -46.5s-28.833 -19.5 -47.5 -19.5s-34.5 6.5 -47.5 19.5s-19.5 28.5 -19.5 46.5c0 18.667 6.5 34.5 19.5 47.5s28.833 19.5 47.5 19.5s34.5 -6.5 47.5 -19.5s19.5 -28.833 19.5 -47.5z" />
    <glyph glyph-name="cedilla" unicode="&#xb8;" horiz-adv-x="304" 
d="M122 -23l52.001 78.9951l51 -9l-52 -79c7.33301 -3.33301 14.5 -6.83301 21.5 -10.5s13.833 -8.16699 20.5 -13.5c16 -12 26.667 -25 32 -39s6.66602 -27.667 3.99902 -41s-9 -25.5 -19 -36.5s-22.333 -19.5 -37 -25.5s-30.667 -9.16699 -48 -9.5s-34.5 1.66699 -51.5 6
s-33.5 10.833 -49.5 19.5s-29.667 19.334 -41 32.001l42 67c20 -15.333 39.833 -25.666 59.5 -30.999s36.334 -7.16602 50.001 -5.49902s22.667 6 27 13s1.5 15.5 -8.5 25.5c-9.33301 8.66699 -20.833 15.834 -34.5 21.501s-27.834 10.834 -42.501 15.501z" />
    <glyph glyph-name="onesuperior" unicode="&#xb9;" horiz-adv-x="240" 
d="M41 199l64 -0.000976562l20.5 51l27.5 67.5l26 64c8 19.667 13.667 33.167 17 40.5c5.33301 12 6.16602 21.667 2.49902 29s-12.167 11 -25.5 11h-9l18 39c4.66699 0.666992 9.66699 1.66699 15 3c4.66699 0.666992 9.83398 1.33398 15.501 2.00098s11.5 1 17.5 1
c34 0 55.167 -9.16699 63.5 -27.5s4.5 -47.5 -11.5 -87.5l-15.5 -37l-22.5 -54l-23.5 -56.5l-18.5 -45.5h65l-16 -39h-226z" />
    <glyph glyph-name="ordmasculine" unicode="&#xba;" horiz-adv-x="330" 
d="M306 508c22 0 40.8291 -3.83594 56.4961 -11.5029s27.5 -19 35.5 -34s11.667 -33.5 11 -55.5s-7 -47.333 -19 -76c-48.667 -118 -118.667 -177 -210 -177c-47.333 0 -78 18 -92 54s-8 84.667 18 146c12.667 30.667 26.334 55.834 41.001 75.501
s30.334 35.334 47.001 47.001s34.334 19.834 53.001 24.501s38.334 7 59.001 7zM295.996 342.997c15.333 40 23 71.499 23 94.499s-7 34.5 -21 34.5c-17.333 0 -34.333 -12.167 -51 -36.5s-32 -53.833 -46 -88.5c-8 -19.333 -14.833 -38.5 -20.5 -57.5
s-9.5 -36.167 -11.5 -51.5s-1.5 -27.666 1.5 -36.999s9.5 -14 19.5 -14c16 0 32.667 13.5 50 40.5s36 65.5 56 115.5z" />
    <glyph glyph-name="guillemotright" unicode="&#xbb;" horiz-adv-x="590" 
d="M331 166l-294 -141l-23 57l270 127l-116 134l64 73l139 -184zM531 166l-294 -141l-23 57l270 127l-116 134l64 73l139 -184z" />
    <glyph glyph-name="onequarter" unicode="&#xbc;" horiz-adv-x="1107" 
d="M1038 244l-28.498 -68.0039l-32 -77.5l-32.5 -78l-29 -69.5l-21.5 -52.5l-10.5 -26.5h-122l106 257c-14 -14 -29 -27.667 -45 -41s-32 -25.166 -48 -35.499s-31.833 -18.666 -47.5 -24.999s-29.834 -9.5 -42.501 -9.5c-18 0 -32.333 3 -43 9s-17.167 15 -19.5 27
s0 26.833 7 44.5s19.167 37.834 36.5 60.501l28.5 37l38 49.5l37 48l26.5 33.5c11.333 15.333 16.333 27.5 15 36.5s-10.333 13.5 -27 13.5h-11l39 49l21 4c6 1.33301 12.667 2.33301 20 3s14.666 1 21.999 1c42 0 64.5 -11.5 67.5 -34.5s-14.5 -59.5 -52.5 -109.5
c-8 -11.333 -18.5 -25.166 -31.5 -41.499l-37.5 -47.5l-44 -56c-10 -14 -12.333 -22.167 -7 -24.5s14.833 -0.333008 28.5 6s29.667 16.333 48 30s35.833 29.5 52.5 47.5l17 40h122zM51.002 158.996l80.0029 0.000976562l114 278c6.66699 15.333 7.66699 27.5 3 36.5
s-15.334 13.5 -32.001 13.5h-11l23 49c6 1.33301 12.333 2.66602 19 3.99902c5.33301 1.33301 11.666 2.33301 18.999 3s14.666 1 21.999 1c42 0 68.333 -11.5 79 -34.5s5.66699 -59.5 -15 -109.5l-18.5 -46l-27.5 -67l-29.5 -71l-23.5 -57h81l-20 -49h-283z
M847.005 547.997l-539 -622h-84l538 622h85z" />
    <glyph glyph-name="onehalf" unicode="&#xbd;" horiz-adv-x="1086" 
d="M915 451c37.333 0 65.333 -6.83008 84 -20.4971s29.334 -31.167 32.001 -52.5s-2 -45 -14 -71s-29.833 -51.667 -53.5 -77s-52.5 -48.833 -86.5 -70.5s-71.667 -38.5 -113 -50.5h174l-45 -109h-317l46 109h36c24 0 48.833 6.66699 74.5 20s49.667 30.166 72 50.499
s41.833 42.166 58.5 65.499s28 45.166 34 65.499s5.33301 37.166 -2 50.499s-23.666 20 -48.999 20c-8.66699 0 -17.834 -1.33301 -27.501 -4s-19.5 -6.33398 -29.5 -11.001c10.667 -6.66699 17.167 -17.167 19.5 -31.5s-0.166992 -30.5 -7.5 -48.5
c-10.667 -26.667 -25.334 -47.5 -44.001 -62.5s-39 -22.5 -61 -22.5c-20.667 0 -34.667 8.33301 -42 25s-5.33301 36.667 6 60c12.667 28 29.5 52.333 50.5 73s43.5 37.834 67.5 51.501s48.167 23.834 72.5 30.501s45.833 10 64.5 10zM51 159.003l80.0029 0.000976562
l114 278c6.66699 15.333 7.66699 27.5 3 36.5s-15.334 13.5 -32.001 13.5h-11l23 49c6 1.33301 12.333 2.66602 19 3.99902c5.33301 1.33301 11.666 2.33301 18.999 3s14.666 1 21.999 1c42 0 68.333 -11.5 79 -34.5s5.66699 -59.5 -15 -109.5l-18.5 -46l-27.5 -67
l-29.5 -71l-23.5 -57h81l-20 -49h-283zM817.003 548.004l-539 -622h-84l538 622h85z" />
    <glyph glyph-name="threequarters" unicode="&#xbe;" horiz-adv-x="1198" 
d="M413 550c24.667 -4 44 -12.0039 58 -24.0039s23 -26.167 27 -42.5s3.33301 -33.833 -2 -52.5s-14.666 -36.667 -27.999 -54s-30.166 -32.833 -50.499 -46.5s-43.5 -23.5 -69.5 -29.5c23.333 -11.333 40.166 -28.333 50.499 -51s14.5 -47.167 12.5 -73.5
s-9.83301 -52.666 -23.5 -78.999s-32.5 -49.166 -56.5 -68.499s-52.833 -33.166 -86.5 -41.499s-71.834 -7.83301 -114.501 1.5c-18 4 -32.667 11.333 -44 22s-19.333 23.667 -24 39s-5.5 32.5 -2.5 51.5s9.83301 38.5 20.5 58.5c14 28 31.167 48.333 51.5 61
s39 18.667 56 18s29.667 -7.16699 38 -19.5s7.83301 -29.5 -1.5 -51.5c-6 -13.333 -13.167 -25.166 -21.5 -35.499s-17.666 -18.666 -27.999 -24.999s-21.166 -10.333 -32.499 -12s-22.333 -0.833984 -33 2.49902c-1.33301 -4 -2 -9 -2 -15s1 -12 3 -18s5 -11.333 9 -16
s9.66699 -8 17 -10c16 -4 32.5 -2.5 49.5 4.5s32.667 17.5 47 31.5s27.166 30.333 38.499 49s19.666 37.5 24.999 56.5s7.16602 37 5.49902 54s-8.16699 30.833 -19.5 41.5c-14 -5.33301 -28.167 -9.33301 -42.5 -12s-27 -3.66699 -38 -3s-20 2.66699 -27 6
s-10.5 8.33301 -10.5 15c0 5.33301 2.16699 10.833 6.5 16.5s11.666 10.334 21.999 14.001s24 6 41 7s37.833 0.166992 62.5 -2.5c26 12 46.833 27 62.5 45s25.834 35.833 30.501 53.5s3.5 33.5 -3.5 47.5s-19.833 22.667 -38.5 26
c-6.66699 1.33301 -14.167 1.33301 -22.5 0s-17.166 -3.66602 -26.499 -6.99902c9.33301 -2.66699 15 -11 17 -25s-1.33301 -29.333 -10 -46c-11.333 -22 -26 -37.667 -44 -47s-34.333 -12.833 -49 -10.5s-25.167 10 -31.5 23s-3.5 30.833 8.5 53.5
c14 26 30.833 47.167 50.5 63.5s39.667 29.166 60 38.499s40.5 15.166 60.5 17.499s37.667 2.5 53 0.5zM1129 243.996l-27.998 -68.0039l-32.5 -77.5l-32.5 -78l-29 -69.5l-21.5 -52.5l-10.5 -26.5h-122l106 257c-14 -14 -29 -27.667 -45 -41s-32 -25.166 -48 -35.499
s-31.833 -18.666 -47.5 -24.999s-29.834 -9.5 -42.501 -9.5c-18 0 -32.333 3 -43 9s-17.167 15 -19.5 27s0 26.833 7 44.5s19.167 37.834 36.5 60.501l28.5 37l38 49.5l37 48l26.5 33.5c11.333 15.333 16.333 27.5 15 36.5s-10.333 13.5 -27 13.5h-11l39 49l21 4
c6 1.33301 12.667 2.33301 20 3s14.666 1 21.999 1c42 0 64.5 -11.5 67.5 -34.5s-14.5 -59.5 -52.5 -109.5c-8 -11.333 -18.5 -25.166 -31.5 -41.499l-37.5 -47.5l-44 -56c-10 -14 -12.333 -22.167 -7 -24.5s14.833 -0.333008 28.5 6s29.667 16.333 48 30
s35.833 29.5 52.5 47.5l17 40h122zM938.002 547.992l-539 -622h-84l538 622h85z" />
    <glyph glyph-name="questiondown" unicode="&#xbf;" horiz-adv-x="428" 
d="M331 489c0 18 6.5 33.5 19.5 46.5s28.833 19.5 47.5 19.5s34.5 -6.5 47.5 -19.5s19.5 -28.5 19.5 -46.5c0 -18.667 -6.5 -34.5 -19.5 -47.5s-28.833 -19.5 -47.5 -19.5s-34.5 6.5 -47.5 19.5s-19.5 28.833 -19.5 47.5zM351 331
c-22.667 -6 -45.668 -16.666 -69.001 -31.999s-44.666 -33 -63.999 -53s-35.833 -40.667 -49.5 -62s-22.334 -41 -26.001 -59s-1.66699 -32.833 6 -44.5s23.5 -17.5 47.5 -17.5c8.66699 0 17.834 1.33301 27.501 4s19.5 6.33398 29.5 11.001
c-10.667 6.66699 -17.167 17.167 -19.5 31.5s0.166992 30.5 7.5 48.5c10.667 26.667 25.334 47.5 44.001 62.5s39 22.5 61 22.5c20.667 0 34.667 -8.33301 42 -25s5.33301 -36.667 -6 -60c-12.667 -28 -29.667 -52.333 -51 -73s-44 -37.834 -68 -51.501
s-48 -23.834 -72 -30.501s-45.333 -10 -64 -10c-40.667 0 -70.334 7.83301 -89.001 23.5s-28 35.667 -28 60s8.33301 51 25 80s39.667 56.667 69 83s64.333 49.5 105 69.5s85 33.333 133 40z" />
    <glyph glyph-name="Agrave" unicode="&#xc0;" horiz-adv-x="481" 
d="M500 105c-5.33301 -16 -13.6699 -30.8301 -25.0029 -44.4971s-24.166 -25.834 -38.499 -36.501s-29.5 -19 -45.5 -25s-32 -9 -48 -9c-32.667 0 -56.167 10.833 -70.5 32.5s-14.166 53.5 0.500977 95.5l16 43h-127l-34 -74c-7.33301 -18 -9 -30.167 -5 -36.5
s13.667 -9.5 29 -9.5h9l-32 -43l-22 -4c-6.66699 -1.33301 -13.5 -2.33301 -20.5 -3s-13.833 -1 -20.5 -1c-38 0 -59 10.5 -63 31.5s9 53.833 39 98.5l27 40.5l34.5 51.5l32.5 48l21 31l69.5 97c20.333 28.667 40 53 59 73s38.667 35.333 59 46s43.166 16 68.499 16
c16 0 30.167 -2.66699 42.5 -8s21.833 -13.333 28.5 -24s10.334 -24 11.001 -40s-2.66602 -34.333 -9.99902 -55l-102 -291c-4.66699 -12.667 -3.5 -21.834 3.5 -27.501s16.167 -7.33398 27.5 -5.00098s23.5 8.5 36.5 18.5s23.167 24 30.5 42zM305.996 212.003
l70.001 196.997c6 17.333 8 30.833 6 40.5s-7 14.334 -15 14.001s-18.833 -6.16602 -32.5 -17.499s-28.834 -29 -45.501 -53c-17.333 -25.333 -34.833 -54.166 -52.5 -86.499l-49.5 -94.5h119zM517.997 565l-220 96l61 106l179 -163z" />
    <glyph glyph-name="Aacute" unicode="&#xc1;" horiz-adv-x="481" 
d="M500 105c-5.33301 -16 -13.6699 -30.8301 -25.0029 -44.4971s-24.166 -25.834 -38.499 -36.501s-29.5 -19 -45.5 -25s-32 -9 -48 -9c-32.667 0 -56.167 10.833 -70.5 32.5s-14.166 53.5 0.500977 95.5l16 43h-127l-34 -74c-7.33301 -18 -9 -30.167 -5 -36.5
s13.667 -9.5 29 -9.5h9l-32 -43l-22 -4c-6.66699 -1.33301 -13.5 -2.33301 -20.5 -3s-13.833 -1 -20.5 -1c-38 0 -59 10.5 -63 31.5s9 53.833 39 98.5l27 40.5l34.5 51.5l32.5 48l21 31l69.5 97c20.333 28.667 40 53 59 73s38.667 35.333 59 46s43.166 16 68.499 16
c16 0 30.167 -2.66699 42.5 -8s21.833 -13.333 28.5 -24s10.334 -24 11.001 -40s-2.66602 -34.333 -9.99902 -55l-102 -291c-4.66699 -12.667 -3.5 -21.834 3.5 -27.501s16.167 -7.33398 27.5 -5.00098s23.5 8.5 36.5 18.5s23.167 24 30.5 42zM305.996 212.003
l70.001 196.997c6 17.333 8 30.833 6 40.5s-7 14.334 -15 14.001s-18.833 -6.16602 -32.5 -17.499s-28.834 -29 -45.501 -53c-17.333 -25.333 -34.833 -54.166 -52.5 -86.499l-49.5 -94.5h119zM370.997 604l179 163l61 -106l-220 -96z" />
    <glyph glyph-name="Acircumflex" unicode="&#xc2;" horiz-adv-x="481" 
d="M500 105c-5.33301 -16 -13.6699 -30.8301 -25.0029 -44.4971s-24.166 -25.834 -38.499 -36.501s-29.5 -19 -45.5 -25s-32 -9 -48 -9c-32.667 0 -56.167 10.833 -70.5 32.5s-14.166 53.5 0.500977 95.5l16 43h-127l-34 -74c-7.33301 -18 -9 -30.167 -5 -36.5
s13.667 -9.5 29 -9.5h9l-32 -43l-22 -4c-6.66699 -1.33301 -13.5 -2.33301 -20.5 -3s-13.833 -1 -20.5 -1c-38 0 -59 10.5 -63 31.5s9 53.833 39 98.5l27 40.5l34.5 51.5l32.5 48l21 31l69.5 97c20.333 28.667 40 53 59 73s38.667 35.333 59 46s43.166 16 68.499 16
c16 0 30.167 -2.66699 42.5 -8s21.833 -13.333 28.5 -24s10.334 -24 11.001 -40s-2.66602 -34.333 -9.99902 -55l-102 -291c-4.66699 -12.667 -3.5 -21.834 3.5 -27.501s16.167 -7.33398 27.5 -5.00098s23.5 8.5 36.5 18.5s23.167 24 30.5 42zM570.996 732.003l26 -144
l-120 -1l6 105l-176 -117l-36 49l203 108h97zM305.996 212.003l70.001 196.997c6 17.333 8 30.833 6 40.5s-7 14.334 -15 14.001s-18.833 -6.16602 -32.5 -17.499s-28.834 -29 -45.501 -53c-17.333 -25.333 -34.833 -54.166 -52.5 -86.499l-49.5 -94.5h119z" />
    <glyph glyph-name="Atilde" unicode="&#xc3;" horiz-adv-x="481" 
d="M500 105c-5.33301 -16 -13.6699 -30.8301 -25.0029 -44.4971s-24.166 -25.834 -38.499 -36.501s-29.5 -19 -45.5 -25s-32 -9 -48 -9c-32.667 0 -56.167 10.833 -70.5 32.5s-14.166 53.5 0.500977 95.5l16 43h-127l-34 -74c-7.33301 -18 -9 -30.167 -5 -36.5
s13.667 -9.5 29 -9.5h9l-32 -43l-22 -4c-6.66699 -1.33301 -13.5 -2.33301 -20.5 -3s-13.833 -1 -20.5 -1c-38 0 -59 10.5 -63 31.5s9 53.833 39 98.5l27 40.5l34.5 51.5l32.5 48l21 31l69.5 97c20.333 28.667 40 53 59 73s38.667 35.333 59 46s43.166 16 68.499 16
c16 0 30.167 -2.66699 42.5 -8s21.833 -13.333 28.5 -24s10.334 -24 11.001 -40s-2.66602 -34.333 -9.99902 -55l-102 -291c-4.66699 -12.667 -3.5 -21.834 3.5 -27.501s16.167 -7.33398 27.5 -5.00098s23.5 8.5 36.5 18.5s23.167 24 30.5 42zM281.996 623.003
c20.667 28.667 44.665 51.835 71.998 69.502s55 28.5 83 32.5c19.333 2.66699 32.5 0.5 39.5 -6.5s11.833 -15 14.5 -24s5 -17.333 7 -25s7.66699 -10.834 17 -9.50098s18.333 5.33301 27 12s16.667 13.667 24 21c8 8.66699 15.667 18.667 23 30l33 -32
c-12.667 -16.667 -27.334 -32 -44.001 -46c-14 -12 -30.5 -23.333 -49.5 -34s-39.5 -17.667 -61.5 -21c-15.333 -2 -27.166 -1.66699 -35.499 1s-14.666 6.5 -18.999 11.5s-7.16602 10.667 -8.49902 17s-2.5 12.166 -3.5 17.499s-2.5 9.66602 -4.5 12.999
s-5.66699 4.66602 -11 3.99902c-8.66699 -1.33301 -17.167 -5.16602 -25.5 -11.499s-15.833 -13.166 -22.5 -20.499c-8 -8.66699 -15.667 -18 -23 -28zM305.994 212.004l70.001 196.997c6 17.333 8 30.833 6 40.5s-7 14.334 -15 14.001s-18.833 -6.16602 -32.5 -17.499
s-28.834 -29 -45.501 -53c-17.333 -25.333 -34.833 -54.166 -52.5 -86.499l-49.5 -94.5h119z" />
    <glyph glyph-name="Adieresis" unicode="&#xc4;" horiz-adv-x="481" 
d="M500 105c-5.33301 -16 -13.6699 -30.8301 -25.0029 -44.4971s-24.166 -25.834 -38.499 -36.501s-29.5 -19 -45.5 -25s-32 -9 -48 -9c-32.667 0 -56.167 10.833 -70.5 32.5s-14.166 53.5 0.500977 95.5l16 43h-127l-34 -74c-7.33301 -18 -9 -30.167 -5 -36.5
s13.667 -9.5 29 -9.5h9l-32 -43l-22 -4c-6.66699 -1.33301 -13.5 -2.33301 -20.5 -3s-13.833 -1 -20.5 -1c-38 0 -59 10.5 -63 31.5s9 53.833 39 98.5l27 40.5l34.5 51.5l32.5 48l21 31l69.5 97c20.333 28.667 40 53 59 73s38.667 35.333 59 46s43.166 16 68.499 16
c16 0 30.167 -2.66699 42.5 -8s21.833 -13.333 28.5 -24s10.334 -24 11.001 -40s-2.66602 -34.333 -9.99902 -55l-102 -291c-4.66699 -12.667 -3.5 -21.834 3.5 -27.501s16.167 -7.33398 27.5 -5.00098s23.5 8.5 36.5 18.5s23.167 24 30.5 42zM305.996 212.003
l70.001 196.997c6 17.333 8 30.833 6 40.5s-7 14.334 -15 14.001s-18.833 -6.16602 -32.5 -17.499s-28.834 -29 -45.501 -53c-17.333 -25.333 -34.833 -54.166 -52.5 -86.499l-49.5 -94.5h119zM425.997 623c0 -16.667 -5.66699 -30.667 -17 -42s-25.666 -17 -42.999 -17
c-16 0 -30 5.66699 -42 17s-18 25.333 -18 42c0 17.333 6 31.666 18 42.999s26 17 42 17c17.333 0 31.666 -5.66699 42.999 -17s17 -25.666 17 -42.999zM575.997 623c0 -16.667 -6 -30.667 -18 -42s-26 -17 -42 -17c-17.333 0 -31.666 5.66699 -42.999 17s-17 25.333 -17 42
c0 17.333 5.66699 31.666 17 42.999s25.666 17 42.999 17c16 0 30 -5.66699 42 -17s18 -25.666 18 -42.999z" />
    <glyph glyph-name="Aring" unicode="&#xc5;" horiz-adv-x="481" 
d="M500 105c-5.33301 -16 -13.6699 -30.8301 -25.0029 -44.4971s-24.166 -25.834 -38.499 -36.501s-29.5 -19 -45.5 -25s-32 -9 -48 -9c-32.667 0 -56.167 10.833 -70.5 32.5s-14.166 53.5 0.500977 95.5l16 43h-127l-34 -74c-7.33301 -18 -9 -30.167 -5 -36.5
s13.667 -9.5 29 -9.5h9l-32 -43l-22 -4c-6.66699 -1.33301 -13.5 -2.33301 -20.5 -3s-13.833 -1 -20.5 -1c-38 0 -59 10.5 -63 31.5s9 53.833 39 98.5l27 40.5l34.5 51.5l32.5 48l21 31l69.5 97c20.333 28.667 40 53 59 73s38.667 35.333 59 46s43.166 16 68.499 16
c16 0 30.167 -2.66699 42.5 -8s21.833 -13.333 28.5 -24s10.334 -24 11.001 -40s-2.66602 -34.333 -9.99902 -55l-102 -291c-4.66699 -12.667 -3.5 -21.834 3.5 -27.501s16.167 -7.33398 27.5 -5.00098s23.5 8.5 36.5 18.5s23.167 24 30.5 42zM564.996 633.003
c0 -13.333 -2.66699 -26 -8 -38s-12.666 -22.5 -21.999 -31.5s-20 -16.167 -32 -21.5s-25 -8 -39 -8s-27 2.66699 -39 8s-22.667 12.5 -32 21.5s-16.666 19.5 -21.999 31.5s-8 24.667 -8 38c0 14 2.66699 27.167 8 39.5s12.666 23 21.999 32s20 16.167 32 21.5s25 8 39 8
s27 -2.66699 39 -8s22.667 -12.5 32 -21.5s16.666 -19.667 21.999 -32s8 -25.5 8 -39.5zM305.996 212.003l70.001 196.997c6 17.333 8 30.833 6 40.5s-7 14.334 -15 14.001s-18.833 -6.16602 -32.5 -17.499s-28.834 -29 -45.501 -53
c-17.333 -25.333 -34.833 -54.166 -52.5 -86.499l-49.5 -94.5h119zM524.997 633c0 17.333 -5.83301 31.833 -17.5 43.5s-26.167 17.5 -43.5 17.5s-31.833 -5.83301 -43.5 -17.5s-17.5 -26.167 -17.5 -43.5c0 -16.667 5.83301 -30.834 17.5 -42.501s26.167 -17.5 43.5 -17.5
s31.833 5.83301 43.5 17.5s17.5 25.834 17.5 42.501z" />
    <glyph glyph-name="AE" unicode="&#xc6;" horiz-adv-x="677" 
d="M301 161l-139.002 0.00195312l-34 -74c-7.33301 -18 -9 -30.167 -5 -36.5s13.667 -9.5 29 -9.5h9l-32 -43l-22 -4c-6.66699 -1.33301 -13.5 -2.33301 -20.5 -3s-13.833 -1 -20.5 -1c-38 0 -59 10.5 -63 31.5s9 53.833 39 98.5l27 40.5l34.5 51.5l32.5 48l21 31l69.5 97
c20.333 28.667 40 53 59 73s38.667 35.333 59 46s43.166 16 68.499 16c16.667 0 31 -3 43 -9c16 3.33301 32.833 5.66602 50.5 6.99902s37.5 2 59.5 2c13.333 0 28.333 -1 45 -3s34.834 -3.66699 54.501 -5s40.334 -1.66602 62.001 -0.999023s44.5 3.66699 68.5 9l-37 -84
c-19.333 -11.333 -37.666 -15.333 -54.999 -12s-34.5 9.33301 -51.5 18l-51.5 27c-17.333 9.33301 -35 14 -53 14h-2l-78 -187h134l-18 -51h-137l-35 -84.5l-29 -71.5c8.66699 6.66699 18.5 12.667 29.5 18s23.167 8 36.5 8c11.333 0 22.833 -3 34.5 -9l35.5 -19
c12 -6.66699 24.167 -12.834 36.5 -18.501s25 -7.83398 38 -6.50098s26.5 7 40.5 17s28.333 27 43 51l17 -28c-20.667 -36 -44.834 -64 -72.501 -84s-55.5 -30 -83.5 -30c-17.333 0 -32.833 3.5 -46.5 10.5s-26.167 14.833 -37.5 23.5l-31 23.5
c-9.33301 7 -18.666 10.5 -27.999 10.5c-6.66699 0 -13.667 -1.83301 -21 -5.5s-14.5 -8.16699 -21.5 -13.5s-13.667 -11 -20 -17l-15.5 -15l-4 -5l-5 -5h-73zM288.998 393.002c-17.333 -25.333 -34.834 -54.1689 -52.501 -86.502l-49.5 -94.5h135l81 198
c0.666992 15.333 -2.16602 27.333 -8.49902 36s-14.833 12.834 -25.5 12.501s-23 -5.66602 -37 -15.999s-28.333 -26.833 -43 -49.5z" />
    <glyph glyph-name="Ccedilla" unicode="&#xc7;" horiz-adv-x="376" 
d="M64 -58l32.001 48.9932c-44 8.66699 -72.5 34.667 -85.5 78s-9.83301 101.666 9.5 174.999c12 44 28.333 83.333 49 118s44.334 63.834 71.001 87.501s55.667 41.834 87 54.501s63.666 19 96.999 19c23.333 0 42.5 -4.83301 57.5 -14.5s25.667 -22.167 32 -37.5
s8.66602 -32.5 6.99902 -51.5s-7.5 -37.5 -17.5 -55.5c-8.66699 -16.667 -17.667 -30.5 -27 -41.5s-18.5 -19.667 -27.5 -26s-17.167 -10.833 -24.5 -13.5s-13.333 -4 -18 -4c-19.333 0 -31.833 7.66699 -37.5 23s-4.16699 33.666 4.5 54.999
c9.33301 24.667 22.333 43.667 39 57s35 20 55 20c6 0 10.333 -0.333008 13 -1c2 4.66699 2.66699 9.66699 2 15s-2.83398 10.333 -6.50098 15s-9.5 8.5 -17.5 11.5s-18.333 4.5 -31 4.5c-23.333 0 -44.5 -5.83301 -63.5 -17.5s-36.333 -27.334 -52 -47.001
s-29.667 -42.167 -42 -67.5s-23.166 -51.666 -32.499 -78.999c-10.667 -31.333 -18.667 -60.666 -24 -87.999s-6.5 -51 -3.5 -71s11 -35.667 24 -47s32.5 -17 58.5 -17c30 0 57 8.5 81 25.5s43.333 37.167 58 60.5l17 -28c-9.33301 -14.667 -20.166 -28.5 -32.499 -41.5
s-26.5 -24.667 -42.5 -35s-34 -18.666 -54 -24.999s-42.333 -10.5 -67 -12.5l-37 -56c7.33301 -3.33301 14.5 -6.83301 21.5 -10.5s13.833 -8.16699 20.5 -13.5c16 -12 26.667 -25 32 -39s6.66602 -27.667 3.99902 -41s-9 -25.5 -19 -36.5s-22.333 -19.5 -37 -25.5
s-30.667 -9.16699 -48 -9.5s-34.5 1.66699 -51.5 6s-33.5 10.833 -49.5 19.5s-29.667 19.334 -41 32.001l42 67c20 -15.333 39.833 -25.666 59.5 -30.999s36.334 -7.16602 50.001 -5.49902s22.667 6 27 13s1.5 15.5 -8.5 25.5c-9.33301 8.66699 -20.833 15.834 -34.5 21.501
s-27.834 10.834 -42.501 15.501z" />
    <glyph glyph-name="Egrave" unicode="&#xc8;" horiz-adv-x="444" 
d="M526 439c-19.333 -11.333 -37.6699 -15.333 -55.0029 -12s-34.5 9.33301 -51.5 18l-51.5 27c-17.333 9.33301 -35 14 -53 14h-2l-78 -187h134l-18 -51h-137l-35 -84.5l-29 -71.5c8.66699 6.66699 18.5 12.667 29.5 18s23.167 8 36.5 8c11.333 0 22.833 -3 34.5 -9
l35.5 -19c12 -6.66699 24.167 -12.834 36.5 -18.501s25 -7.83398 38 -6.50098s26.5 7 40.5 17s28.333 27 43 51l17 -28c-20.667 -36 -44.834 -64 -72.501 -84s-55.5 -30 -83.5 -30c-17.333 0 -32.833 3.5 -46.5 10.5s-26.167 14.833 -37.5 23.5l-31 23.5
c-9.33301 7 -18.666 10.5 -27.999 10.5c-6.66699 0 -13.667 -1.83301 -21 -5.5s-14.5 -8.16699 -21.5 -13.5s-13.667 -11 -20 -17l-15.5 -15l-4 -5l-5 -5h-73l171 418l106 66c-13.333 -2.66699 -28.166 -6.66699 -44.499 -12s-32.833 -11.666 -49.5 -18.999
s-32.667 -16 -48 -26s-29 -21 -41 -33l-20 21l52 72c16.667 6.66699 32.667 12.5 48 17.5s31 9 47 12s32.833 5.16699 50.5 6.5s37.5 2 59.5 2c13.333 0 28.333 -1 45 -3s34.834 -3.66699 54.501 -5s40.334 -1.66602 62.001 -0.999023s44.5 3.66699 68.5 9zM463.996 539
l-220 96l61 106l179 -163z" />
    <glyph glyph-name="Eacute" unicode="&#xc9;" horiz-adv-x="444" 
d="M526 439c-19.333 -11.333 -37.6699 -15.333 -55.0029 -12s-34.5 9.33301 -51.5 18l-51.5 27c-17.333 9.33301 -35 14 -53 14h-2l-78 -187h134l-18 -51h-137l-35 -84.5l-29 -71.5c8.66699 6.66699 18.5 12.667 29.5 18s23.167 8 36.5 8c11.333 0 22.833 -3 34.5 -9
l35.5 -19c12 -6.66699 24.167 -12.834 36.5 -18.501s25 -7.83398 38 -6.50098s26.5 7 40.5 17s28.333 27 43 51l17 -28c-20.667 -36 -44.834 -64 -72.501 -84s-55.5 -30 -83.5 -30c-17.333 0 -32.833 3.5 -46.5 10.5s-26.167 14.833 -37.5 23.5l-31 23.5
c-9.33301 7 -18.666 10.5 -27.999 10.5c-6.66699 0 -13.667 -1.83301 -21 -5.5s-14.5 -8.16699 -21.5 -13.5s-13.667 -11 -20 -17l-15.5 -15l-4 -5l-5 -5h-73l171 418l106 66c-13.333 -2.66699 -28.166 -6.66699 -44.499 -12s-32.833 -11.666 -49.5 -18.999
s-32.667 -16 -48 -26s-29 -21 -41 -33l-20 21l52 72c16.667 6.66699 32.667 12.5 48 17.5s31 9 47 12s32.833 5.16699 50.5 6.5s37.5 2 59.5 2c13.333 0 28.333 -1 45 -3s34.834 -3.66699 54.501 -5s40.334 -1.66602 62.001 -0.999023s44.5 3.66699 68.5 9zM270.996 587
l179 163l61 -106l-220 -96z" />
    <glyph glyph-name="Ecircumflex" unicode="&#xca;" horiz-adv-x="444" 
d="M526 439c-19.333 -11.333 -37.6699 -15.333 -55.0029 -12s-34.5 9.33301 -51.5 18l-51.5 27c-17.333 9.33301 -35 14 -53 14h-2l-78 -187h134l-18 -51h-137l-35 -84.5l-29 -71.5c8.66699 6.66699 18.5 12.667 29.5 18s23.167 8 36.5 8c11.333 0 22.833 -3 34.5 -9
l35.5 -19c12 -6.66699 24.167 -12.834 36.5 -18.501s25 -7.83398 38 -6.50098s26.5 7 40.5 17s28.333 27 43 51l17 -28c-20.667 -36 -44.834 -64 -72.501 -84s-55.5 -30 -83.5 -30c-17.333 0 -32.833 3.5 -46.5 10.5s-26.167 14.833 -37.5 23.5l-31 23.5
c-9.33301 7 -18.666 10.5 -27.999 10.5c-6.66699 0 -13.667 -1.83301 -21 -5.5s-14.5 -8.16699 -21.5 -13.5s-13.667 -11 -20 -17l-15.5 -15l-4 -5l-5 -5h-73l171 418l106 66c-13.333 -2.66699 -28.166 -6.66699 -44.499 -12s-32.833 -11.666 -49.5 -18.999
s-32.667 -16 -48 -26s-29 -21 -41 -33l-20 21l52 72c16.667 6.66699 32.667 12.5 48 17.5s31 9 47 12s32.833 5.16699 50.5 6.5s37.5 2 59.5 2c13.333 0 28.333 -1 45 -3s34.834 -3.66699 54.501 -5s40.334 -1.66602 62.001 -0.999023s44.5 3.66699 68.5 9zM507.996 702
l26 -144l-120 -1l6 105l-176 -117l-36 49l203 108h97z" />
    <glyph glyph-name="Edieresis" unicode="&#xcb;" horiz-adv-x="444" 
d="M526 439c-19.333 -11.333 -37.6699 -15.333 -55.0029 -12s-34.5 9.33301 -51.5 18l-51.5 27c-17.333 9.33301 -35 14 -53 14h-2l-78 -187h134l-18 -51h-137l-35 -84.5l-29 -71.5c8.66699 6.66699 18.5 12.667 29.5 18s23.167 8 36.5 8c11.333 0 22.833 -3 34.5 -9
l35.5 -19c12 -6.66699 24.167 -12.834 36.5 -18.501s25 -7.83398 38 -6.50098s26.5 7 40.5 17s28.333 27 43 51l17 -28c-20.667 -36 -44.834 -64 -72.501 -84s-55.5 -30 -83.5 -30c-17.333 0 -32.833 3.5 -46.5 10.5s-26.167 14.833 -37.5 23.5l-31 23.5
c-9.33301 7 -18.666 10.5 -27.999 10.5c-6.66699 0 -13.667 -1.83301 -21 -5.5s-14.5 -8.16699 -21.5 -13.5s-13.667 -11 -20 -17l-15.5 -15l-4 -5l-5 -5h-73l171 418l106 66c-13.333 -2.66699 -28.166 -6.66699 -44.499 -12s-32.833 -11.666 -49.5 -18.999
s-32.667 -16 -48 -26s-29 -21 -41 -33l-20 21l52 72c16.667 6.66699 32.667 12.5 48 17.5s31 9 47 12s32.833 5.16699 50.5 6.5s37.5 2 59.5 2c13.333 0 28.333 -1 45 -3s34.834 -3.66699 54.501 -5s40.334 -1.66602 62.001 -0.999023s44.5 3.66699 68.5 9zM348.996 626
c0 -16.667 -5.66699 -30.667 -17 -42s-25.666 -17 -42.999 -17c-16 0 -30 5.66699 -42 17s-18 25.333 -18 42c0 17.333 6 31.666 18 42.999s26 17 42 17c17.333 0 31.666 -5.66699 42.999 -17s17 -25.666 17 -42.999zM498.996 626c0 -16.667 -6 -30.667 -18 -42
s-26 -17 -42 -17c-17.333 0 -31.666 5.66699 -42.999 17s-17 25.333 -17 42c0 17.333 5.66699 31.666 17 42.999s25.666 17 42.999 17c16 0 30 -5.66699 42 -17s18 -25.666 18 -42.999z" />
    <glyph glyph-name="Igrave" unicode="&#xcc;" horiz-adv-x="252" 
d="M310 479l-37.002 -0.000976562l-151 -374c-6.66699 -16.667 -5.66699 -27.667 3 -33s20.5 -6.33301 35.5 -3s31.167 10.5 48.5 21.5s31.666 25.167 42.999 42.5l17 -28c-9.33301 -17.333 -21.166 -33 -35.499 -47s-29.666 -26 -45.999 -36s-33 -17.833 -50 -23.5
s-33.5 -8.5 -49.5 -8.5s-30.5 2.83301 -43.5 8.5s-23 13.834 -30 24.501s-10.667 24 -11 40s3.83398 34.333 12.501 55c1.33301 4 5 13.167 11 27.5l21.5 52l27.5 68l30.5 75.5l30 74l25.5 64h-43l18 44h191zM309.998 564.999l-220 96l61 106l179 -163z" />
    <glyph glyph-name="Iacute" unicode="&#xcd;" horiz-adv-x="252" 
d="M310 479l-37.002 -0.000976562l-151 -374c-6.66699 -16.667 -5.66699 -27.667 3 -33s20.5 -6.33301 35.5 -3s31.167 10.5 48.5 21.5s31.666 25.167 42.999 42.5l17 -28c-9.33301 -17.333 -21.166 -33 -35.499 -47s-29.666 -26 -45.999 -36s-33 -17.833 -50 -23.5
s-33.5 -8.5 -49.5 -8.5s-30.5 2.83301 -43.5 8.5s-23 13.834 -30 24.501s-10.667 24 -11 40s3.83398 34.333 12.501 55c1.33301 4 5 13.167 11 27.5l21.5 52l27.5 68l30.5 75.5l30 74l25.5 64h-43l18 44h191zM193.998 603.999l179 163l61 -106l-220 -96z" />
    <glyph glyph-name="Icircumflex" unicode="&#xce;" horiz-adv-x="252" 
d="M310 479l-37.002 -0.000976562l-151 -374c-6.66699 -16.667 -5.66699 -27.667 3 -33s20.5 -6.33301 35.5 -3s31.167 10.5 48.5 21.5s31.666 25.167 42.999 42.5l17 -28c-9.33301 -17.333 -21.166 -33 -35.499 -47s-29.666 -26 -45.999 -36s-33 -17.833 -50 -23.5
s-33.5 -8.5 -49.5 -8.5s-30.5 2.83301 -43.5 8.5s-23 13.834 -30 24.501s-10.667 24 -11 40s3.83398 34.333 12.501 55c1.33301 4 5 13.167 11 27.5l21.5 52l27.5 68l30.5 75.5l30 74l25.5 64h-43l18 44h191zM391.998 731.999l26 -144l-120 -1l6 105l-176 -117l-36 49
l203 108h97z" />
    <glyph glyph-name="Idieresis" unicode="&#xcf;" horiz-adv-x="252" 
d="M273 479l-151.002 -374.001c-6.66699 -16.667 -5.66699 -27.667 3 -33s20.5 -6.33301 35.5 -3s31.167 10.5 48.5 21.5s31.666 25.167 42.999 42.5l17 -28c-9.33301 -17.333 -21.166 -33 -35.499 -47s-29.666 -26 -45.999 -36s-33 -17.833 -50 -23.5
s-33.5 -8.5 -49.5 -8.5s-30.5 2.83301 -43.5 8.5s-23 13.834 -30 24.501s-10.667 24 -11 40s3.83398 34.333 12.501 55c1.33301 4 5 13.167 11 27.5l21.5 52l27.5 68l30.5 75.5l30 74l25.5 64h-43l18 44h191l-18 -44h-37zM223.998 622.999
c0 -16.667 -5.66699 -30.667 -17 -42s-25.666 -17 -42.999 -17c-16 0 -30 5.66699 -42 17s-18 25.333 -18 42c0 17.333 6 31.666 18 42.999s26 17 42 17c17.333 0 31.666 -5.66699 42.999 -17s17 -25.666 17 -42.999zM373.998 622.999c0 -16.667 -6 -30.667 -18 -42
s-26 -17 -42 -17c-17.333 0 -31.666 5.66699 -42.999 17s-17 25.333 -17 42c0 17.333 5.66699 31.666 17 42.999s25.666 17 42.999 17c16 0 30 -5.66699 42 -17s18 -25.666 18 -42.999z" />
    <glyph glyph-name="Eth" unicode="&#xd0;" horiz-adv-x="477" 
d="M63 257h45.002l65 159l97 60c-30.667 -7.33301 -62.167 -18 -94.5 -32s-58.833 -31.333 -79.5 -52l-20 21l52 72c34 14 68.667 23.833 104 29.5s75 8.5 119 8.5c58 0 98.833 -20.333 122.5 -61s24.5 -101.667 2.5 -183c-10.667 -38.667 -24.834 -76.5 -42.501 -113.5
s-39.834 -69.5 -66.501 -97.5s-58.667 -49.333 -96 -64s-81.333 -19 -132 -13c-13.333 2 -23.333 4.33301 -30 7h-107l88 215h-45zM343.002 486c-4.66699 0 -9.49805 -0.166992 -14.498 -0.5s-10.167 -0.833008 -15.5 -1.5l-94 -227h52l-18 -44h-52l-72 -175l14 -4
c4.66699 -1.33301 10.334 -2.33301 17.001 -3c22 -2.66699 43 2.33301 63 15s38.5 30 55.5 52s32.167 46.833 45.5 74.5s24.666 55.167 33.999 82.5c11.333 34 19.666 65 24.999 93s7.5 52.333 6.5 73s-5.33301 36.667 -13 48s-18.834 17 -33.501 17z" />
    <glyph glyph-name="Ntilde" unicode="&#xd1;" horiz-adv-x="482" 
d="M528 424c-3.33301 -8 -8.16504 -18.833 -14.498 -32.5l-21 -46.5l-25 -55.5l-26.5 -58.5l-66 -148c-6.66699 -20 -6.83398 -33.833 -0.500977 -41.5s20.166 -8.83398 41.499 -3.50098l-15 -39c-6 -2 -13 -3.66699 -21 -5c-7.33301 -1.33301 -15.833 -2.33301 -25.5 -3
s-20.5 -1 -32.5 -1c-38 0 -66.833 10.5 -86.5 31.5s-31.167 53.833 -34.5 98.5l-18 237c-10.667 -28 -20.834 -56.333 -30.501 -85s-18.167 -55.5 -25.5 -80.5s-13.333 -47.167 -18 -66.5s-7.66699 -33.333 -9 -42c-2.66699 -20 -1.83398 -34 2.49902 -42
s17.166 -9.33301 38.499 -4l-15 -39c-5.33301 -1.33301 -11 -2.66602 -17 -3.99902c-5.33301 -1.33301 -11.166 -2.33301 -17.499 -3s-12.833 -1 -19.5 -1c-31.333 0 -52.333 9.16699 -63 27.5s-9.33398 42.833 3.99902 73.5l14.5 32l21 47l25 55.5l26.5 58.5l66 147
c1.33301 4.66699 2.33301 8.83398 3 12.501l2 10.5c-8.66699 12.667 -22 19 -40 19h-10v43c4.66699 1.33301 9.66699 2.66602 15 3.99902c4.66699 1.33301 10 2.33301 16 3s12.667 1 20 1c38 0 66.667 -10.5 86 -31.5s30.666 -53.833 33.999 -98.5
c0.666992 -7.33301 1.5 -19.5 2.5 -36.5s2.33301 -36.167 4 -57.5s3.33398 -43.833 5.00098 -67.5s3.33398 -45.667 5.00098 -66s3 -37.833 4 -52.5s1.5 -23.667 1.5 -27c1.33301 -10 3.66602 -18 6.99902 -24l111 369c6.66699 20 6.83398 33.833 0.500977 41.5
s-20.166 8.83398 -41.499 3.50098l15 39c5.33301 1.33301 11 2.66602 17 3.99902c5.33301 1.33301 11 2.33301 17 3s12.667 1 20 1c31.333 0 53.833 -9 67.5 -27s13.834 -42.333 0.500977 -73zM220.001 596c20.667 28.667 44.665 51.835 71.998 69.502s55 28.5 83 32.5
c19.333 2.66699 32.5 0.5 39.5 -6.5s11.833 -15 14.5 -24s5 -17.333 7 -25s7.66699 -10.834 17 -9.50098s18.333 5.33301 27 12s16.667 13.667 24 21c8 8.66699 15.667 18.667 23 30l33 -32c-12.667 -16.667 -27.334 -32 -44.001 -46c-14 -12 -30.5 -23.333 -49.5 -34
s-39.5 -17.667 -61.5 -21c-15.333 -2 -27.166 -1.66699 -35.499 1s-14.666 6.5 -18.999 11.5s-7.16602 10.667 -8.49902 17s-2.5 12.166 -3.5 17.499s-2.5 9.66602 -4.5 12.999s-5.66699 4.66602 -11 3.99902c-8.66699 -1.33301 -17.167 -5.16602 -25.5 -11.499
s-15.833 -13.166 -22.5 -20.499c-8 -8.66699 -15.667 -18 -23 -28z" />
    <glyph glyph-name="Ograve" unicode="&#xd2;" horiz-adv-x="460" 
d="M332 523c27.333 0 51.1689 -5.16699 71.502 -15.5s36 -25.666 47 -45.999s16.667 -45.833 17 -76.5s-5.83398 -66 -18.501 -106c-12 -38.667 -27 -75.667 -45 -111s-39.5 -66.333 -64.5 -93s-53.833 -47.834 -86.5 -63.501s-70 -23.5 -112 -23.5
c-29.333 0 -54.333 5.33301 -75 16s-36.5 26.167 -47.5 46.5s-16.333 45.833 -16 76.5s7.16602 66 20.499 106c12.667 37.333 27.167 73.333 43.5 108s36.333 65.5 60 92.5s52.167 48.667 85.5 65s73.333 24.5 120 24.5zM328.003 255c10.667 32 19.667 61.8311 27 89.498
s11.5 52 12.5 73s-1.66699 37.5 -8 49.5s-17.833 18 -34.5 18c-18 0 -35.667 -6.83301 -53 -20.5s-33.833 -31.334 -49.5 -53.001s-30.167 -46.167 -43.5 -73.5s-24.666 -54.666 -33.999 -81.999c-10.667 -31.333 -19.834 -60.666 -27.501 -87.999s-12 -51.166 -13 -71.499
s1.83301 -36.333 8.5 -48s18.667 -17.5 36 -17.5c19.333 0 37.833 6.66699 55.5 20s34 30.5 49 51.5s28.833 44.833 41.5 71.5s23.667 53.667 33 81zM429.003 554.998l-220 96l61 106l179 -163z" />
    <glyph glyph-name="Oacute" unicode="&#xd3;" horiz-adv-x="460" 
d="M332 523c27.333 0 51.1689 -5.16699 71.502 -15.5s36 -25.666 47 -45.999s16.667 -45.833 17 -76.5s-5.83398 -66 -18.501 -106c-12 -38.667 -27 -75.667 -45 -111s-39.5 -66.333 -64.5 -93s-53.833 -47.834 -86.5 -63.501s-70 -23.5 -112 -23.5
c-29.333 0 -54.333 5.33301 -75 16s-36.5 26.167 -47.5 46.5s-16.333 45.833 -16 76.5s7.16602 66 20.499 106c12.667 37.333 27.167 73.333 43.5 108s36.333 65.5 60 92.5s52.167 48.667 85.5 65s73.333 24.5 120 24.5zM328.003 255c10.667 32 19.667 61.8311 27 89.498
s11.5 52 12.5 73s-1.66699 37.5 -8 49.5s-17.833 18 -34.5 18c-18 0 -35.667 -6.83301 -53 -20.5s-33.833 -31.334 -49.5 -53.001s-30.167 -46.167 -43.5 -73.5s-24.666 -54.666 -33.999 -81.999c-10.667 -31.333 -19.834 -60.666 -27.501 -87.999s-12 -51.166 -13 -71.499
s1.83301 -36.333 8.5 -48s18.667 -17.5 36 -17.5c19.333 0 37.833 6.66699 55.5 20s34 30.5 49 51.5s28.833 44.833 41.5 71.5s23.667 53.667 33 81zM261.003 593.998l179 163l61 -106l-220 -96z" />
    <glyph glyph-name="Ocircumflex" unicode="&#xd4;" horiz-adv-x="460" 
d="M332 523c27.333 0 51.1689 -5.16699 71.502 -15.5s36 -25.666 47 -45.999s16.667 -45.833 17 -76.5s-5.83398 -66 -18.501 -106c-12 -38.667 -27 -75.667 -45 -111s-39.5 -66.333 -64.5 -93s-53.833 -47.834 -86.5 -63.501s-70 -23.5 -112 -23.5
c-29.333 0 -54.333 5.33301 -75 16s-36.5 26.167 -47.5 46.5s-16.333 45.833 -16 76.5s7.16602 66 20.499 106c12.667 37.333 27.167 73.333 43.5 108s36.333 65.5 60 92.5s52.167 48.667 85.5 65s73.333 24.5 120 24.5zM328.003 255c10.667 32 19.667 61.8311 27 89.498
s11.5 52 12.5 73s-1.66699 37.5 -8 49.5s-17.833 18 -34.5 18c-18 0 -35.667 -6.83301 -53 -20.5s-33.833 -31.334 -49.5 -53.001s-30.167 -46.167 -43.5 -73.5s-24.666 -54.666 -33.999 -81.999c-10.667 -31.333 -19.834 -60.666 -27.501 -87.999s-12 -51.166 -13 -71.499
s1.83301 -36.333 8.5 -48s18.667 -17.5 36 -17.5c19.333 0 37.833 6.66699 55.5 20s34 30.5 49 51.5s28.833 44.833 41.5 71.5s23.667 53.667 33 81zM486.003 701.998l26 -144l-120 -1l6 105l-176 -117l-36 49l203 108h97z" />
    <glyph glyph-name="Otilde" unicode="&#xd5;" horiz-adv-x="460" 
d="M332 523c27.333 0 51.1689 -5.16699 71.502 -15.5s36 -25.666 47 -45.999s16.667 -45.833 17 -76.5s-5.83398 -66 -18.501 -106c-12 -38.667 -27 -75.667 -45 -111s-39.5 -66.333 -64.5 -93s-53.833 -47.834 -86.5 -63.501s-70 -23.5 -112 -23.5
c-29.333 0 -54.333 5.33301 -75 16s-36.5 26.167 -47.5 46.5s-16.333 45.833 -16 76.5s7.16602 66 20.499 106c12.667 37.333 27.167 73.333 43.5 108s36.333 65.5 60 92.5s52.167 48.667 85.5 65s73.333 24.5 120 24.5zM328.003 255c10.667 32 19.667 61.8311 27 89.498
s11.5 52 12.5 73s-1.66699 37.5 -8 49.5s-17.833 18 -34.5 18c-18 0 -35.667 -6.83301 -53 -20.5s-33.833 -31.334 -49.5 -53.001s-30.167 -46.167 -43.5 -73.5s-24.666 -54.666 -33.999 -81.999c-10.667 -31.333 -19.834 -60.666 -27.501 -87.999s-12 -51.166 -13 -71.499
s1.83301 -36.333 8.5 -48s18.667 -17.5 36 -17.5c19.333 0 37.833 6.66699 55.5 20s34 30.5 49 51.5s28.833 44.833 41.5 71.5s23.667 53.667 33 81zM206.003 583.998c20.667 28.667 44.665 51.835 71.998 69.502s55 28.5 83 32.5c19.333 2.66699 32.5 0.5 39.5 -6.5
s11.833 -15 14.5 -24s5 -17.333 7 -25s7.66699 -10.834 17 -9.50098s18.333 5.33301 27 12s16.667 13.667 24 21c8 8.66699 15.667 18.667 23 30l33 -32c-12.667 -16.667 -27.334 -32 -44.001 -46c-14 -12 -30.5 -23.333 -49.5 -34s-39.5 -17.667 -61.5 -21
c-15.333 -2 -27.166 -1.66699 -35.499 1s-14.666 6.5 -18.999 11.5s-7.16602 10.667 -8.49902 17s-2.5 12.166 -3.5 17.499s-2.5 9.66602 -4.5 12.999s-5.66699 4.66602 -11 3.99902c-8.66699 -1.33301 -17.167 -5.16602 -25.5 -11.499s-15.833 -13.166 -22.5 -20.499
c-8 -8.66699 -15.667 -18 -23 -28z" />
    <glyph glyph-name="Odieresis" unicode="&#xd6;" horiz-adv-x="460" 
d="M332 523c27.333 0 51.1689 -5.16699 71.502 -15.5s36 -25.666 47 -45.999s16.667 -45.833 17 -76.5s-5.83398 -66 -18.501 -106c-12 -38.667 -27 -75.667 -45 -111s-39.5 -66.333 -64.5 -93s-53.833 -47.834 -86.5 -63.501s-70 -23.5 -112 -23.5
c-29.333 0 -54.333 5.33301 -75 16s-36.5 26.167 -47.5 46.5s-16.333 45.833 -16 76.5s7.16602 66 20.499 106c12.667 37.333 27.167 73.333 43.5 108s36.333 65.5 60 92.5s52.167 48.667 85.5 65s73.333 24.5 120 24.5zM328.003 255c10.667 32 19.667 61.8311 27 89.498
s11.5 52 12.5 73s-1.66699 37.5 -8 49.5s-17.833 18 -34.5 18c-18 0 -35.667 -6.83301 -53 -20.5s-33.833 -31.334 -49.5 -53.001s-30.167 -46.167 -43.5 -73.5s-24.666 -54.666 -33.999 -81.999c-10.667 -31.333 -19.834 -60.666 -27.501 -87.999s-12 -51.166 -13 -71.499
s1.83301 -36.333 8.5 -48s18.667 -17.5 36 -17.5c19.333 0 37.833 6.66699 55.5 20s34 30.5 49 51.5s28.833 44.833 41.5 71.5s23.667 53.667 33 81zM340.003 613.998c0 -16.667 -5.66699 -30.667 -17 -42s-25.666 -17 -42.999 -17c-16 0 -30 5.66699 -42 17
s-18 25.333 -18 42c0 17.333 6 31.666 18 42.999s26 17 42 17c17.333 0 31.666 -5.66699 42.999 -17s17 -25.666 17 -42.999zM490.003 613.998c0 -16.667 -6 -30.667 -18 -42s-26 -17 -42 -17c-17.333 0 -31.666 5.66699 -42.999 17s-17 25.333 -17 42
c0 17.333 5.66699 31.666 17 42.999s25.666 17 42.999 17c16 0 30 -5.66699 42 -17s18 -25.666 18 -42.999z" />
    <glyph glyph-name="multiply" unicode="&#xd7;" horiz-adv-x="450" 
d="M229 210l135 76l8 -61l-113 -50l60 -47l-47 -62l-54 84l-131 -76l-7 62l107 51l-65 44l46 61z" />
    <glyph glyph-name="Oslash" unicode="&#xd8;" horiz-adv-x="460" 
d="M332 523c36 0 65.667 -8.99707 89 -26.9971l31 35h57l-60 -68c11.333 -20.667 17.333 -46.334 18 -77.001s-5.33301 -66.334 -18 -107.001c-12 -38.667 -27 -75.667 -45 -111s-39.5 -66.333 -64.5 -93s-53.833 -47.834 -86.5 -63.501s-70 -23.5 -112 -23.5
c-36.667 0 -67 8.33301 -91 25l-33 -38h-56l61 69c-12.667 20.667 -19.167 46.667 -19.5 78s6.5 68.333 20.5 111c12.667 37.333 27.167 73.333 43.5 108s36.333 65.5 60 92.5s52.167 48.667 85.5 65s73.333 24.5 120 24.5zM145 256.003c-14 -39.333 -25 -76 -33 -110
l255 289c-0.666992 15.333 -4.33398 27.5 -11.001 36.5s-17 13.5 -31 13.5c-18 0 -35.667 -6.83301 -53 -20.5s-33.833 -31.334 -49.5 -53.001s-30.167 -46.167 -43.5 -73.5s-24.666 -54.666 -33.999 -81.999zM328 255.003l17.001 55.5
c5.33301 17.667 9.66602 34.5 12.999 50.5l-253 -287c1.33301 -13.333 5.5 -23.833 12.5 -31.5s17.5 -11.5 31.5 -11.5c19.333 0 37.833 6.66699 55.5 20s34 30.5 49 51.5s28.833 44.833 41.5 71.5s23.667 53.667 33 81z" />
    <glyph glyph-name="Ugrave" unicode="&#xd9;" horiz-adv-x="469" 
d="M269 130c-14 -20 -28.833 -38.498 -44.5 -55.498s-31.5 -31.667 -47.5 -44s-32.167 -22.166 -48.5 -29.499s-32.833 -11 -49.5 -11c-38.667 0 -62.667 10.5 -72 31.5s-5 53.833 13 98.5l14 34.5l23 56l27 66l26.5 65.5l22 54c6.33301 15.333 10.833 26 13.5 32
c5.33301 13.333 6 24.166 2 32.499s-13.667 12.5 -29 12.5h-10l21 43c5.33301 1.33301 11 2.66602 17 3.99902c5.33301 1.33301 11.166 2.33301 17.499 3s12.833 1 19.5 1c38 0 61.833 -10.5 71.5 -31.5s5.5 -53.833 -12.5 -98.5l-126 -307
c-6 -15.333 -6.83301 -25.333 -2.5 -30s12.333 -4.16699 24 1.5s26.167 16.334 43.5 32.001s36 35.834 56 60.501s40.5 53.834 61.5 87.501s40.833 71.5 59.5 113.5l31 76c6 13.333 7 24.166 3 32.499s-13.667 12.5 -29 12.5h-10l20 43
c5.33301 1.33301 11 2.66602 17 3.99902c5.33301 1.33301 11.166 2.33301 17.499 3s13.166 1 20.499 1c38 0 61.667 -10.5 71 -31.5s5 -53.833 -13 -98.5l-117 -289c-5.33301 -13.333 -4.66602 -22.833 2.00098 -28.5s15.667 -7.33398 27 -5.00098
s23.833 8.66602 37.5 18.999s24.834 24.5 33.501 42.5l17 -28c-6.66699 -16 -15.834 -30.833 -27.501 -44.5s-24.667 -25.834 -39 -36.501s-29.666 -19 -45.999 -25s-32.5 -9 -48.5 -9s-29.833 2.83301 -41.5 8.5s-20.5 13.834 -26.5 24.501s-8.66699 24 -8 40
s5.33398 34.333 14.001 55zM403 551.002l-220 96l61 106l179 -163z" />
    <glyph glyph-name="Uacute" unicode="&#xda;" horiz-adv-x="469" 
d="M269 130c-14 -20 -28.833 -38.498 -44.5 -55.498s-31.5 -31.667 -47.5 -44s-32.167 -22.166 -48.5 -29.499s-32.833 -11 -49.5 -11c-38.667 0 -62.667 10.5 -72 31.5s-5 53.833 13 98.5l14 34.5l23 56l27 66l26.5 65.5l22 54c6.33301 15.333 10.833 26 13.5 32
c5.33301 13.333 6 24.166 2 32.499s-13.667 12.5 -29 12.5h-10l21 43c5.33301 1.33301 11 2.66602 17 3.99902c5.33301 1.33301 11.166 2.33301 17.499 3s12.833 1 19.5 1c38 0 61.833 -10.5 71.5 -31.5s5.5 -53.833 -12.5 -98.5l-126 -307
c-6 -15.333 -6.83301 -25.333 -2.5 -30s12.333 -4.16699 24 1.5s26.167 16.334 43.5 32.001s36 35.834 56 60.501s40.5 53.834 61.5 87.501s40.833 71.5 59.5 113.5l31 76c6 13.333 7 24.166 3 32.499s-13.667 12.5 -29 12.5h-10l20 43
c5.33301 1.33301 11 2.66602 17 3.99902c5.33301 1.33301 11.166 2.33301 17.499 3s13.166 1 20.499 1c38 0 61.667 -10.5 71 -31.5s5 -53.833 -13 -98.5l-117 -289c-5.33301 -13.333 -4.66602 -22.833 2.00098 -28.5s15.667 -7.33398 27 -5.00098
s23.833 8.66602 37.5 18.999s24.834 24.5 33.501 42.5l17 -28c-6.66699 -16 -15.834 -30.833 -27.501 -44.5s-24.667 -25.834 -39 -36.501s-29.666 -19 -45.999 -25s-32.5 -9 -48.5 -9s-29.833 2.83301 -41.5 8.5s-20.5 13.834 -26.5 24.501s-8.66699 24 -8 40
s5.33398 34.333 14.001 55zM266 581.002l179 163l61 -106l-220 -96z" />
    <glyph glyph-name="Ucircumflex" unicode="&#xdb;" horiz-adv-x="469" 
d="M269 130c-14 -20 -28.833 -38.498 -44.5 -55.498s-31.5 -31.667 -47.5 -44s-32.167 -22.166 -48.5 -29.499s-32.833 -11 -49.5 -11c-38.667 0 -62.667 10.5 -72 31.5s-5 53.833 13 98.5l14 34.5l23 56l27 66l26.5 65.5l22 54c6.33301 15.333 10.833 26 13.5 32
c5.33301 13.333 6 24.166 2 32.499s-13.667 12.5 -29 12.5h-10l21 43c5.33301 1.33301 11 2.66602 17 3.99902c5.33301 1.33301 11.166 2.33301 17.499 3s12.833 1 19.5 1c38 0 61.833 -10.5 71.5 -31.5s5.5 -53.833 -12.5 -98.5l-126 -307
c-6 -15.333 -6.83301 -25.333 -2.5 -30s12.333 -4.16699 24 1.5s26.167 16.334 43.5 32.001s36 35.834 56 60.501s40.5 53.834 61.5 87.501s40.833 71.5 59.5 113.5l31 76c6 13.333 7 24.166 3 32.499s-13.667 12.5 -29 12.5h-10l20 43
c5.33301 1.33301 11 2.66602 17 3.99902c5.33301 1.33301 11.166 2.33301 17.499 3s13.166 1 20.499 1c38 0 61.667 -10.5 71 -31.5s5 -53.833 -13 -98.5l-117 -289c-5.33301 -13.333 -4.66602 -22.833 2.00098 -28.5s15.667 -7.33398 27 -5.00098
s23.833 8.66602 37.5 18.999s24.834 24.5 33.501 42.5l17 -28c-6.66699 -16 -15.834 -30.833 -27.501 -44.5s-24.667 -25.834 -39 -36.501s-29.666 -19 -45.999 -25s-32.5 -9 -48.5 -9s-29.833 2.83301 -41.5 8.5s-20.5 13.834 -26.5 24.501s-8.66699 24 -8 40
s5.33398 34.333 14.001 55zM478 716.002l26 -144l-120 -1l6 105l-176 -117l-36 49l203 108h97z" />
    <glyph glyph-name="Udieresis" unicode="&#xdc;" horiz-adv-x="469" 
d="M269 130c-14 -20 -28.833 -38.498 -44.5 -55.498s-31.5 -31.667 -47.5 -44s-32.167 -22.166 -48.5 -29.499s-32.833 -11 -49.5 -11c-38.667 0 -62.667 10.5 -72 31.5s-5 53.833 13 98.5l14 34.5l23 56l27 66l26.5 65.5l22 54c6.33301 15.333 10.833 26 13.5 32
c5.33301 13.333 6 24.166 2 32.499s-13.667 12.5 -29 12.5h-10l21 43c5.33301 1.33301 11 2.66602 17 3.99902c5.33301 1.33301 11.166 2.33301 17.499 3s12.833 1 19.5 1c38 0 61.833 -10.5 71.5 -31.5s5.5 -53.833 -12.5 -98.5l-126 -307
c-6 -15.333 -6.83301 -25.333 -2.5 -30s12.333 -4.16699 24 1.5s26.167 16.334 43.5 32.001s36 35.834 56 60.501s40.5 53.834 61.5 87.501s40.833 71.5 59.5 113.5l31 76c6 13.333 7 24.166 3 32.499s-13.667 12.5 -29 12.5h-10l20 43
c5.33301 1.33301 11 2.66602 17 3.99902c5.33301 1.33301 11.166 2.33301 17.499 3s13.166 1 20.499 1c38 0 61.667 -10.5 71 -31.5s5 -53.833 -13 -98.5l-117 -289c-5.33301 -13.333 -4.66602 -22.833 2.00098 -28.5s15.667 -7.33398 27 -5.00098
s23.833 8.66602 37.5 18.999s24.834 24.5 33.501 42.5l17 -28c-6.66699 -16 -15.834 -30.833 -27.501 -44.5s-24.667 -25.834 -39 -36.501s-29.666 -19 -45.999 -25s-32.5 -9 -48.5 -9s-29.833 2.83301 -41.5 8.5s-20.5 13.834 -26.5 24.501s-8.66699 24 -8 40
s5.33398 34.333 14.001 55zM328 610.002c0 -16.667 -5.66699 -30.667 -17 -42s-25.666 -17 -42.999 -17c-16 0 -30 5.66699 -42 17s-18 25.333 -18 42c0 17.333 6 31.666 18 42.999s26 17 42 17c17.333 0 31.666 -5.66699 42.999 -17s17 -25.666 17 -42.999zM478 610.002
c0 -16.667 -6 -30.667 -18 -42s-26 -17 -42 -17c-17.333 0 -31.666 5.66699 -42.999 17s-17 25.333 -17 42c0 17.333 5.66699 31.666 17 42.999s25.666 17 42.999 17c16 0 30 -5.66699 42 -17s18 -25.666 18 -42.999z" />
    <glyph glyph-name="Yacute" unicode="&#xdd;" horiz-adv-x="322" 
d="M53 524c38 0 67.498 -10.498 88.498 -31.498s34.5 -53.833 40.5 -98.5l14 -101c25.333 20 46.833 42.667 64.5 68s29.5 48.666 35.5 69.999c6 19.333 6 33 0 41s-19.667 9.33301 -41 4l15 40c5.33301 0.666992 11 1.66699 17 3c5.33301 1.33301 11 2.33301 17 3
s12.667 1 20 1c15.333 0 29.333 -2.33301 42 -7s22.667 -11.334 30 -20.001s11.5 -19.167 12.5 -31.5s-1.83301 -26.166 -8.5 -41.499c-15.333 -34 -40.166 -65.833 -74.499 -95.5s-72.833 -54.5 -115.5 -74.5l-68 -166c-5.33301 -14 -6 -25.167 -2 -33.5
s13.667 -12.5 29 -12.5h9l-20 -43c-5.33301 -1.33301 -11 -2.66602 -17 -3.99902c-5.33301 -1.33301 -11.166 -2.33301 -17.499 -3s-12.833 -1 -19.5 -1c-38.667 0 -62.667 10.5 -72 31.5s-5 53.833 13 98.5l48 119l-26 189c-1.33301 13.333 -6.33301 24.166 -15 32.499
s-20.667 12.5 -36 12.5h-10l-4 43c4.66699 1.33301 9.66699 2.66602 15 3.99902c4.66699 1.33301 10 2.33301 16 3s12.667 1 20 1zM159.998 591.002l179 163l61 -106l-220 -96z" />
    <glyph glyph-name="Thorn" unicode="&#xde;" 
d="M133 87c-5.33301 -14 -6.00098 -25.168 -2.00098 -33.501s13.667 -12.5 29 -12.5h10l-21 -43c-5.33301 -1.33301 -11 -2.66602 -17 -3.99902c-5.33301 -1.33301 -11.166 -2.33301 -17.499 -3s-12.833 -1 -19.5 -1c-38 0 -61.833 10.5 -71.5 31.5s-5.5 53.833 12.5 98.5
l99 244c-19.333 -8 -37.666 -17 -54.999 -27s-32.333 -21.333 -45 -34l-20 21l52 72c30.667 12 61.667 21 93 27c0 2 0.666992 3.66699 2 5c6 13.333 6.83301 24.166 2.5 32.499s-14.166 12.5 -29.499 12.5h-9l20 43c5.33301 1.33301 11 2.66602 17 3.99902
c5.33301 1.33301 11.166 2.33301 17.499 3s12.833 1 19.5 1c62.667 0 86.667 -30 72 -90h19c24 0 45.667 -4.66699 65 -14s34.666 -22.666 45.999 -39.999s17.833 -38.166 19.5 -62.499s-2.83301 -51.166 -13.5 -80.499c-10 -26.667 -23.5 -50.834 -40.5 -72.501
s-37.333 -39.5 -61 -53.5s-50 -23.167 -79 -27.5s-60.5 -2.83301 -94.5 4.5v-1zM150.999 130.999c19.333 -1.33301 37.3311 2 53.998 10s31.834 18.667 45.501 32s25.5 28.5 35.5 45.5s18.333 33.5 25 49.5c14 36.667 18.333 67.334 13 92.001s-22.666 37 -51.999 37
c-5.33301 0 -9.33301 -0.333008 -12 -1c-0.666992 -0.666992 -1 -1.33398 -1 -2.00098z" />
    <glyph glyph-name="germandbls" unicode="&#xdf;" horiz-adv-x="415" 
d="M390 389c-10.667 -20 -22.8311 -36.335 -36.498 -49.002s-26.834 -21.667 -39.501 -27c14.667 -2 27.667 -6.83301 39 -14.5s20.5 -17.667 27.5 -30s11.167 -26.833 12.5 -43.5s-1 -35.334 -7 -56.001c-10 -33.333 -23 -61.166 -39 -83.499s-34.167 -40.333 -54.5 -54
s-42.5 -23.5 -66.5 -29.5s-49 -9 -75 -9c-21.333 0 -38.333 5 -51 15s-21.334 22.667 -26.001 38l-51 -125c-5.33301 -13.333 -6 -24.166 -2 -32.499s13.333 -12.5 28 -12.5h10l-20 -43c-5.33301 -1.33301 -11 -2.66602 -17 -3.99902
c-5.33301 -1.33301 -11.166 -2.33301 -17.499 -3s-12.833 -1 -19.5 -1c-38 0 -61.667 10.5 -71 31.5s-5.33301 53.5 12 97.5l161 394c25.333 65.333 59.166 114.833 101.499 148.5s88.833 50.5 139.5 50.5c21.333 0 38.333 -4.83301 51 -14.5s21.5 -22 26.5 -37s6 -32 3 -51
s-9.16699 -37.5 -18.5 -55.5zM146.003 218.998c8 6 15.5049 10.168 22.5049 12.501s12.833 3.5 17.5 3.5c19.333 0 32 -7.5 38 -22.5s4.66699 -33.167 -4 -54.5c-9.33301 -24.667 -22.333 -43.667 -39 -57s-35 -20 -55 -20c-2.66699 0 -4.83398 0.166992 -6.50098 0.5
s-3.83398 0.833008 -6.50098 1.5c-1.33301 -13.333 0.833984 -24.333 6.50098 -33s15.167 -13 28.5 -13c12.667 0 25.167 3.33301 37.5 10s24 16 35 28s21 26 30 42s16.833 33.333 23.5 52c18 48 20 81 6 99s-37.333 22 -70 12l14 33
c57.333 14.667 99.666 50.334 126.999 107.001c4.66699 9.33301 7.5 19 8.5 29s0.5 19 -1.5 27s-5.33301 14.5 -10 19.5s-10.334 7.5 -17.001 7.5c-12.667 0 -25.334 -4.5 -38.001 -13.5s-24.834 -20.833 -36.501 -35.5s-22.5 -31.334 -32.5 -50.001
s-18.333 -37.334 -25 -56.001z" />
    <glyph glyph-name="agrave" unicode="&#xe0;" 
d="M258 390c26 0 45.6641 -9.33301 58.9971 -28c2 4.66699 3.5 8.83398 4.5 12.501s2.16699 6.16699 3.5 7.5h110c-2 -6 -6 -16.333 -12 -31l-21 -50.5l-25 -60l-24.5 -59.5l-20 -48.5c-5.66699 -13.667 -9.16699 -22.5 -10.5 -26.5
c-5.33301 -12.667 -4.66602 -21.667 2.00098 -27s15.667 -7 27 -5s23.833 8 37.5 18s24.834 24 33.501 42l17 -28c-6.66699 -16 -15.834 -30.833 -27.501 -44.5s-24.667 -25.5 -39 -35.5s-29.666 -18 -45.999 -24s-32.5 -9 -48.5 -9c-20.667 0 -37.5 4.33301 -50.5 13
s-21.167 21.667 -24.5 39c-19.333 -16 -38.833 -28.667 -58.5 -38s-38.5 -14 -56.5 -14c-22.667 0 -41.167 5.16699 -55.5 15.5s-24.5 24.5 -30.5 42.5s-7.83301 39.167 -5.5 63.5s9.5 50.166 21.5 77.499c28.667 68 64.334 118 107.001 150s87 48 133 48zM299.997 323
c-6 9.33301 -15.6641 13.999 -28.9971 13.999c-12.667 0 -24.5 -2.5 -35.5 -7.5s-22 -13 -33 -24s-22.167 -25.5 -33.5 -43.5s-23.333 -40 -36 -66c-10 -19.333 -17.833 -37.5 -23.5 -54.5s-8.83398 -31.833 -9.50098 -44.5s1.5 -22.667 6.5 -30s13.167 -11 24.5 -11
s23.666 3.33301 36.999 10s26.666 16 39.999 28c2 8.66699 5 17.334 9 26.001zM425 430.999l-220 96l61 106l179 -163z" />
    <glyph glyph-name="aacute" unicode="&#xe1;" 
d="M258 390c26 0 45.6641 -9.33301 58.9971 -28c2 4.66699 3.5 8.83398 4.5 12.501s2.16699 6.16699 3.5 7.5h110c-2 -6 -6 -16.333 -12 -31l-21 -50.5l-25 -60l-24.5 -59.5l-20 -48.5c-5.66699 -13.667 -9.16699 -22.5 -10.5 -26.5
c-5.33301 -12.667 -4.66602 -21.667 2.00098 -27s15.667 -7 27 -5s23.833 8 37.5 18s24.834 24 33.501 42l17 -28c-6.66699 -16 -15.834 -30.833 -27.501 -44.5s-24.667 -25.5 -39 -35.5s-29.666 -18 -45.999 -24s-32.5 -9 -48.5 -9c-20.667 0 -37.5 4.33301 -50.5 13
s-21.167 21.667 -24.5 39c-19.333 -16 -38.833 -28.667 -58.5 -38s-38.5 -14 -56.5 -14c-22.667 0 -41.167 5.16699 -55.5 15.5s-24.5 24.5 -30.5 42.5s-7.83301 39.167 -5.5 63.5s9.5 50.166 21.5 77.499c28.667 68 64.334 118 107.001 150s87 48 133 48zM299.997 323
c-6 9.33301 -15.6641 13.999 -28.9971 13.999c-12.667 0 -24.5 -2.5 -35.5 -7.5s-22 -13 -33 -24s-22.167 -25.5 -33.5 -43.5s-23.333 -40 -36 -66c-10 -19.333 -17.833 -37.5 -23.5 -54.5s-8.83398 -31.833 -9.50098 -44.5s1.5 -22.667 6.5 -30s13.167 -11 24.5 -11
s23.666 3.33301 36.999 10s26.666 16 39.999 28c2 8.66699 5 17.334 9 26.001zM243 469.999l179 163l61 -106l-220 -96z" />
    <glyph glyph-name="acircumflex" unicode="&#xe2;" 
d="M258 390c26 0 45.6641 -9.33301 58.9971 -28c2 4.66699 3.5 8.83398 4.5 12.501s2.16699 6.16699 3.5 7.5h110c-2 -6 -6 -16.333 -12 -31l-21 -50.5l-25 -60l-24.5 -59.5l-20 -48.5c-5.66699 -13.667 -9.16699 -22.5 -10.5 -26.5
c-5.33301 -12.667 -4.66602 -21.667 2.00098 -27s15.667 -7 27 -5s23.833 8 37.5 18s24.834 24 33.501 42l17 -28c-6.66699 -16 -15.834 -30.833 -27.501 -44.5s-24.667 -25.5 -39 -35.5s-29.666 -18 -45.999 -24s-32.5 -9 -48.5 -9c-20.667 0 -37.5 4.33301 -50.5 13
s-21.167 21.667 -24.5 39c-19.333 -16 -38.833 -28.667 -58.5 -38s-38.5 -14 -56.5 -14c-22.667 0 -41.167 5.16699 -55.5 15.5s-24.5 24.5 -30.5 42.5s-7.83301 39.167 -5.5 63.5s9.5 50.166 21.5 77.499c28.667 68 64.334 118 107.001 150s87 48 133 48zM299.997 323
c-6 9.33301 -15.6641 13.999 -28.9971 13.999c-12.667 0 -24.5 -2.5 -35.5 -7.5s-22 -13 -33 -24s-22.167 -25.5 -33.5 -43.5s-23.333 -40 -36 -66c-10 -19.333 -17.833 -37.5 -23.5 -54.5s-8.83398 -31.833 -9.50098 -44.5s1.5 -22.667 6.5 -30s13.167 -11 24.5 -11
s23.666 3.33301 36.999 10s26.666 16 39.999 28c2 8.66699 5 17.334 9 26.001zM457 597.999l26 -144l-120 -1l6 105l-176 -117l-36 49l203 108h97z" />
    <glyph glyph-name="atilde" unicode="&#xe3;" 
d="M258 390c26 0 45.6641 -9.33301 58.9971 -28c2 4.66699 3.5 8.83398 4.5 12.501s2.16699 6.16699 3.5 7.5h110c-2 -6 -6 -16.333 -12 -31l-21 -50.5l-25 -60l-24.5 -59.5l-20 -48.5c-5.66699 -13.667 -9.16699 -22.5 -10.5 -26.5
c-5.33301 -12.667 -4.66602 -21.667 2.00098 -27s15.667 -7 27 -5s23.833 8 37.5 18s24.834 24 33.501 42l17 -28c-6.66699 -16 -15.834 -30.833 -27.501 -44.5s-24.667 -25.5 -39 -35.5s-29.666 -18 -45.999 -24s-32.5 -9 -48.5 -9c-20.667 0 -37.5 4.33301 -50.5 13
s-21.167 21.667 -24.5 39c-19.333 -16 -38.833 -28.667 -58.5 -38s-38.5 -14 -56.5 -14c-22.667 0 -41.167 5.16699 -55.5 15.5s-24.5 24.5 -30.5 42.5s-7.83301 39.167 -5.5 63.5s9.5 50.166 21.5 77.499c28.667 68 64.334 118 107.001 150s87 48 133 48zM299.997 323
c-6 9.33301 -15.6641 13.999 -28.9971 13.999c-12.667 0 -24.5 -2.5 -35.5 -7.5s-22 -13 -33 -24s-22.167 -25.5 -33.5 -43.5s-23.333 -40 -36 -66c-10 -19.333 -17.833 -37.5 -23.5 -54.5s-8.83398 -31.833 -9.50098 -44.5s1.5 -22.667 6.5 -30s13.167 -11 24.5 -11
s23.666 3.33301 36.999 10s26.666 16 39.999 28c2 8.66699 5 17.334 9 26.001zM160 488.999c20.667 28.667 44.665 51.835 71.998 69.502s55 28.5 83 32.5c19.333 2.66699 32.5 0.5 39.5 -6.5s11.833 -15 14.5 -24s5 -17.333 7 -25s7.66699 -10.834 17 -9.50098
s18.333 5.33301 27 12s16.667 13.667 24 21c8 8.66699 15.667 18.667 23 30l33 -32c-12.667 -16.667 -27.334 -32 -44.001 -46c-14 -12 -30.5 -23.333 -49.5 -34s-39.5 -17.667 -61.5 -21c-15.333 -2 -27.166 -1.66699 -35.499 1s-14.666 6.5 -18.999 11.5
s-7.16602 10.667 -8.49902 17s-2.5 12.166 -3.5 17.499s-2.5 9.66602 -4.5 12.999s-5.66699 4.66602 -11 3.99902c-8.66699 -1.33301 -17.167 -5.16602 -25.5 -11.499s-15.833 -13.166 -22.5 -20.499c-8 -8.66699 -15.667 -18 -23 -28z" />
    <glyph glyph-name="adieresis" unicode="&#xe4;" 
d="M258 390c26 0 45.6641 -9.33301 58.9971 -28c2 4.66699 3.5 8.83398 4.5 12.501s2.16699 6.16699 3.5 7.5h110c-2 -6 -6 -16.333 -12 -31l-21 -50.5l-25 -60l-24.5 -59.5l-20 -48.5c-5.66699 -13.667 -9.16699 -22.5 -10.5 -26.5
c-5.33301 -12.667 -4.66602 -21.667 2.00098 -27s15.667 -7 27 -5s23.833 8 37.5 18s24.834 24 33.501 42l17 -28c-6.66699 -16 -15.834 -30.833 -27.501 -44.5s-24.667 -25.5 -39 -35.5s-29.666 -18 -45.999 -24s-32.5 -9 -48.5 -9c-20.667 0 -37.5 4.33301 -50.5 13
s-21.167 21.667 -24.5 39c-19.333 -16 -38.833 -28.667 -58.5 -38s-38.5 -14 -56.5 -14c-22.667 0 -41.167 5.16699 -55.5 15.5s-24.5 24.5 -30.5 42.5s-7.83301 39.167 -5.5 63.5s9.5 50.166 21.5 77.499c28.667 68 64.334 118 107.001 150s87 48 133 48zM299.997 323
c-6 9.33301 -15.6641 13.999 -28.9971 13.999c-12.667 0 -24.5 -2.5 -35.5 -7.5s-22 -13 -33 -24s-22.167 -25.5 -33.5 -43.5s-23.333 -40 -36 -66c-10 -19.333 -17.833 -37.5 -23.5 -54.5s-8.83398 -31.833 -9.50098 -44.5s1.5 -22.667 6.5 -30s13.167 -11 24.5 -11
s23.666 3.33301 36.999 10s26.666 16 39.999 28c2 8.66699 5 17.334 9 26.001zM305 498.999c0 -16.667 -5.66699 -30.667 -17 -42s-25.666 -17 -42.999 -17c-16 0 -30 5.66699 -42 17s-18 25.333 -18 42c0 17.333 6 31.666 18 42.999s26 17 42 17
c17.333 0 31.666 -5.66699 42.999 -17s17 -25.666 17 -42.999zM455 498.999c0 -16.667 -6 -30.667 -18 -42s-26 -17 -42 -17c-17.333 0 -31.666 5.66699 -42.999 17s-17 25.333 -17 42c0 17.333 5.66699 31.666 17 42.999s25.666 17 42.999 17c16 0 30 -5.66699 42 -17
s18 -25.666 18 -42.999z" />
    <glyph glyph-name="aring" unicode="&#xe5;" 
d="M258 390c26 0 45.6641 -9.33301 58.9971 -28c2 4.66699 3.5 8.83398 4.5 12.501s2.16699 6.16699 3.5 7.5h110c-2 -6 -6 -16.333 -12 -31l-21 -50.5l-25 -60l-24.5 -59.5l-20 -48.5c-5.66699 -13.667 -9.16699 -22.5 -10.5 -26.5
c-5.33301 -12.667 -4.66602 -21.667 2.00098 -27s15.667 -7 27 -5s23.833 8 37.5 18s24.834 24 33.501 42l17 -28c-6.66699 -16 -15.834 -30.833 -27.501 -44.5s-24.667 -25.5 -39 -35.5s-29.666 -18 -45.999 -24s-32.5 -9 -48.5 -9c-20.667 0 -37.5 4.33301 -50.5 13
s-21.167 21.667 -24.5 39c-19.333 -16 -38.833 -28.667 -58.5 -38s-38.5 -14 -56.5 -14c-22.667 0 -41.167 5.16699 -55.5 15.5s-24.5 24.5 -30.5 42.5s-7.83301 39.167 -5.5 63.5s9.5 50.166 21.5 77.499c28.667 68 64.334 118 107.001 150s87 48 133 48zM426.997 509
c0 -13.333 -2.66699 -26 -8 -38s-12.666 -22.5 -21.999 -31.5s-20 -16.167 -32 -21.5s-25 -8 -39 -8s-27 2.66699 -39 8s-22.667 12.5 -32 21.5s-16.666 19.5 -21.999 31.5s-8 24.667 -8 38c0 14 2.66699 27.167 8 39.5s12.666 23 21.999 32s20 16.167 32 21.5s25 8 39 8
s27 -2.66699 39 -8s22.667 -12.5 32 -21.5s16.666 -19.667 21.999 -32s8 -25.5 8 -39.5zM299.997 323c-6 9.33301 -15.6641 13.999 -28.9971 13.999c-12.667 0 -24.5 -2.5 -35.5 -7.5s-22 -13 -33 -24s-22.167 -25.5 -33.5 -43.5s-23.333 -40 -36 -66
c-10 -19.333 -17.833 -37.5 -23.5 -54.5s-8.83398 -31.833 -9.50098 -44.5s1.5 -22.667 6.5 -30s13.167 -11 24.5 -11s23.666 3.33301 36.999 10s26.666 16 39.999 28c2 8.66699 5 17.334 9 26.001zM387 508.999c0 17.333 -5.83301 31.833 -17.5 43.5
s-26.167 17.5 -43.5 17.5s-31.833 -5.83301 -43.5 -17.5s-17.5 -26.167 -17.5 -43.5c0 -16.667 5.83301 -30.834 17.5 -42.501s26.167 -17.5 43.5 -17.5s31.833 5.83301 43.5 17.5s17.5 25.834 17.5 42.501z" />
    <glyph glyph-name="ae" unicode="&#xe6;" horiz-adv-x="576" 
d="M258 390c26 0 45.6631 -9.33301 58.9961 -28c2.66699 8 5.33398 14.667 8.00098 20h50l-6 -28c36 24 75.667 36 119 36c27.333 0 48 -7.16699 62 -21.5s21.833 -31.666 23.5 -51.999s-2.66602 -42 -12.999 -65s-26.166 -43.5 -47.499 -61.5
c-30 -24.667 -64.667 -37 -104 -37h-64c-8.66699 -30 -5.5 -54.833 9.5 -74.5s38.167 -29.5 69.5 -29.5c14 0 28.5 2.33301 43.5 7s29.333 10.834 43 18.501s26.167 16.667 37.5 27s20.666 21.166 27.999 32.499l17 -28c-16.667 -35.333 -45.334 -63 -86.001 -83
s-88 -30 -142 -30c-34 0 -62 7.5 -84 22.5s-36.667 35.167 -44 60.5c-23.333 -25.333 -48.166 -45.5 -74.499 -60.5s-51.166 -22.5 -74.499 -22.5c-22.667 0 -41.167 5.16699 -55.5 15.5s-24.5 24.5 -30.5 42.5s-7.83301 39.167 -5.5 63.5s9.5 50.166 21.5 77.499
c28.667 68 64.334 118 107.001 150s87 48 133 48zM299.996 322c-6.66699 10 -16.3301 15 -28.9971 15s-24.5 -2.5 -35.5 -7.5s-22 -13 -33 -24s-22.167 -25.5 -33.5 -43.5s-23.333 -40 -36 -66c-10 -19.333 -17.833 -37.5 -23.5 -54.5s-8.83398 -31.833 -9.50098 -44.5
s1.5 -22.667 6.5 -30s13.167 -11 24.5 -11c14.667 0 30.667 5.5 48 16.5s34.666 25.833 51.999 44.5c0 11.333 1.16699 23.333 3.5 36s6.16602 25.667 11.499 39c3.33301 10 8 20.667 14 32zM463 345c-6.66699 -2.66699 -14.501 -8.66406 -23.501 -17.9971
s-18.167 -21 -27.5 -35s-18.833 -29.667 -28.5 -47s-18.167 -35.333 -25.5 -54h35c15.333 0 28.333 4.66699 39 14s20.667 23.666 30 42.999c8 14.667 14.333 28.667 19 42s7.33398 24.666 8.00098 33.999s-1 16.166 -5 20.499s-11 4.5 -21 0.5z" />
    <glyph glyph-name="ccedilla" unicode="&#xe7;" horiz-adv-x="344" 
d="M76 -34l20.0059 30.9941c-21.333 4 -39.333 12 -54 24s-25.667 26.5 -33 43.5s-10.666 36.5 -9.99902 58.5s5.66699 45 15 69c26 64.667 60 113.834 102 147.501s88.667 50.5 140 50.5c21.333 0 38.333 -4.83301 51 -14.5s21.334 -22.167 26.001 -37.5
s5.5 -32.5 2.5 -51.5s-9.16699 -37.5 -18.5 -55.5c-8.66699 -16.667 -17.667 -30.334 -27 -41.001s-18.333 -19.167 -27 -25.5s-16.834 -10.666 -24.501 -12.999s-13.834 -3.5 -18.501 -3.5c-18.667 0 -30.834 7.33301 -36.501 22s-4.5 32.667 3.5 54
c10 24.667 23.167 43.667 39.5 57s34.5 20 54.5 20h6.5c2.33301 0 4.16602 -0.333008 5.49902 -1c2 13.333 0.166992 24.333 -5.5 33s-15.167 13 -28.5 13s-26.333 -4.66699 -39 -14s-24.834 -21.333 -36.501 -36s-22.334 -31.167 -32.001 -49.5
s-17.834 -36.833 -24.501 -55.5c-18 -48 -20.667 -83.667 -8 -107s37 -35 73 -35c14 0 28.5 2.33301 43.5 7s29.333 10.834 43 18.501s26.167 16.667 37.5 27s20.666 21.166 27.999 32.499l17 -28c-15.333 -33.333 -41.666 -59.833 -78.999 -79.5s-81 -30.5 -131 -32.5
l-24 -37c7.33301 -3.33301 14.5 -6.83301 21.5 -10.5s13.833 -8.16699 20.5 -13.5c16 -12 26.667 -25 32 -39s6.66602 -27.667 3.99902 -41s-9 -25.5 -19 -36.5s-22.333 -19.5 -37 -25.5s-30.667 -9.16699 -48 -9.5s-34.5 1.66699 -51.5 6s-33.5 10.833 -49.5 19.5
s-29.667 19.334 -41 32.001l42 67c20 -15.333 39.833 -25.666 59.5 -30.999s36.334 -7.16602 50.001 -5.49902s22.667 6 27 13s1.5 15.5 -8.5 25.5c-9.33301 8.66699 -20.833 15.834 -34.5 21.501s-27.834 10.834 -42.501 15.501z" />
    <glyph glyph-name="egrave" unicode="&#xe8;" horiz-adv-x="344" 
d="M192 49c14 0 28.5039 2.33203 43.5039 6.99902s29.333 10.834 43 18.501s26.167 16.667 37.5 27s20.666 21.166 27.999 32.499l17 -28c-16.667 -35.333 -45.334 -63 -86.001 -83s-88 -30 -142 -30c-28 0 -51.833 5.16699 -71.5 15.5s-34.834 24.5 -45.501 42.5
s-16.334 39.167 -17.001 63.5s4.33301 50.166 15 77.499c25.333 64.667 59.166 113.834 101.499 147.501s89.166 50.5 140.499 50.5c27.333 0 48 -7.16699 62 -21.5s21.833 -31.666 23.5 -51.999s-2.66602 -42 -12.999 -65s-26.166 -43.5 -47.499 -61.5
c-30 -24.667 -64.667 -37 -104 -37h-64c-8.66699 -30 -5.5 -54.833 9.5 -74.5s38.167 -29.5 69.5 -29.5zM341.004 430.999l-220 96l61 106l179 -163zM231.004 344.999c-6.66699 -2.66699 -14.501 -8.66406 -23.501 -17.9971s-18.167 -21 -27.5 -35
s-18.833 -29.667 -28.5 -47s-18.167 -35.333 -25.5 -54h35c15.333 0 28.333 4.66699 39 14s20.667 23.666 30 42.999c8 14.667 14.333 28.667 19 42s7.33398 24.666 8.00098 33.999s-1 16.166 -5 20.499s-11 4.5 -21 0.5z" />
    <glyph glyph-name="eacute" unicode="&#xe9;" horiz-adv-x="344" 
d="M192 49c14 0 28.5039 2.33203 43.5039 6.99902s29.333 10.834 43 18.501s26.167 16.667 37.5 27s20.666 21.166 27.999 32.499l17 -28c-16.667 -35.333 -45.334 -63 -86.001 -83s-88 -30 -142 -30c-28 0 -51.833 5.16699 -71.5 15.5s-34.834 24.5 -45.501 42.5
s-16.334 39.167 -17.001 63.5s4.33301 50.166 15 77.499c25.333 64.667 59.166 113.834 101.499 147.501s89.166 50.5 140.499 50.5c27.333 0 48 -7.16699 62 -21.5s21.833 -31.666 23.5 -51.999s-2.66602 -42 -12.999 -65s-26.166 -43.5 -47.499 -61.5
c-30 -24.667 -64.667 -37 -104 -37h-64c-8.66699 -30 -5.5 -54.833 9.5 -74.5s38.167 -29.5 69.5 -29.5zM204.004 469.999l179 163l61 -106l-220 -96zM231.004 344.999c-6.66699 -2.66699 -14.501 -8.66406 -23.501 -17.9971s-18.167 -21 -27.5 -35
s-18.833 -29.667 -28.5 -47s-18.167 -35.333 -25.5 -54h35c15.333 0 28.333 4.66699 39 14s20.667 23.666 30 42.999c8 14.667 14.333 28.667 19 42s7.33398 24.666 8.00098 33.999s-1 16.166 -5 20.499s-11 4.5 -21 0.5z" />
    <glyph glyph-name="ecircumflex" unicode="&#xea;" horiz-adv-x="344" 
d="M192 49c14 0 28.5039 2.33203 43.5039 6.99902s29.333 10.834 43 18.501s26.167 16.667 37.5 27s20.666 21.166 27.999 32.499l17 -28c-16.667 -35.333 -45.334 -63 -86.001 -83s-88 -30 -142 -30c-28 0 -51.833 5.16699 -71.5 15.5s-34.834 24.5 -45.501 42.5
s-16.334 39.167 -17.001 63.5s4.33301 50.166 15 77.499c25.333 64.667 59.166 113.834 101.499 147.501s89.166 50.5 140.499 50.5c27.333 0 48 -7.16699 62 -21.5s21.833 -31.666 23.5 -51.999s-2.66602 -42 -12.999 -65s-26.166 -43.5 -47.499 -61.5
c-30 -24.667 -64.667 -37 -104 -37h-64c-8.66699 -30 -5.5 -54.833 9.5 -74.5s38.167 -29.5 69.5 -29.5zM385.004 597.999l26 -144l-120 -1l6 105l-176 -117l-36 49l203 108h97zM231.004 344.999c-6.66699 -2.66699 -14.501 -8.66406 -23.501 -17.9971
s-18.167 -21 -27.5 -35s-18.833 -29.667 -28.5 -47s-18.167 -35.333 -25.5 -54h35c15.333 0 28.333 4.66699 39 14s20.667 23.666 30 42.999c8 14.667 14.333 28.667 19 42s7.33398 24.666 8.00098 33.999s-1 16.166 -5 20.499s-11 4.5 -21 0.5z" />
    <glyph glyph-name="edieresis" unicode="&#xeb;" horiz-adv-x="344" 
d="M192 49c14 0 28.5039 2.33203 43.5039 6.99902s29.333 10.834 43 18.501s26.167 16.667 37.5 27s20.666 21.166 27.999 32.499l17 -28c-16.667 -35.333 -45.334 -63 -86.001 -83s-88 -30 -142 -30c-28 0 -51.833 5.16699 -71.5 15.5s-34.834 24.5 -45.501 42.5
s-16.334 39.167 -17.001 63.5s4.33301 50.166 15 77.499c25.333 64.667 59.166 113.834 101.499 147.501s89.166 50.5 140.499 50.5c27.333 0 48 -7.16699 62 -21.5s21.833 -31.666 23.5 -51.999s-2.66602 -42 -12.999 -65s-26.166 -43.5 -47.499 -61.5
c-30 -24.667 -64.667 -37 -104 -37h-64c-8.66699 -30 -5.5 -54.833 9.5 -74.5s38.167 -29.5 69.5 -29.5zM257.004 498.999c0 -16.667 -5.66699 -30.667 -17 -42s-25.666 -17 -42.999 -17c-16 0 -30 5.66699 -42 17s-18 25.333 -18 42c0 17.333 6 31.666 18 42.999
s26 17 42 17c17.333 0 31.666 -5.66699 42.999 -17s17 -25.666 17 -42.999zM407.004 498.999c0 -16.667 -6 -30.667 -18 -42s-26 -17 -42 -17c-17.333 0 -31.666 5.66699 -42.999 17s-17 25.333 -17 42c0 17.333 5.66699 31.666 17 42.999s25.666 17 42.999 17
c16 0 30 -5.66699 42 -17s18 -25.666 18 -42.999zM231.004 344.999c-6.66699 -2.66699 -14.501 -8.66406 -23.501 -17.9971s-18.167 -21 -27.5 -35s-18.833 -29.667 -28.5 -47s-18.167 -35.333 -25.5 -54h35c15.333 0 28.333 4.66699 39 14s20.667 23.666 30 42.999
c8 14.667 14.333 28.667 19 42s7.33398 24.666 8.00098 33.999s-1 16.166 -5 20.499s-11 4.5 -21 0.5z" />
    <glyph glyph-name="igrave" unicode="&#xec;" horiz-adv-x="198" 
d="M215 106c-6.66699 -16 -15.832 -30.832 -27.499 -44.499s-24.667 -25.5 -39 -35.5s-29.666 -18 -45.999 -24s-32.5 -9 -48.5 -9c-32.667 0 -55.334 10.667 -68.001 32s-10.334 53 6.99902 95l15.5 36.5l21.5 51.5l20.5 51c6.33301 16 11.166 27.667 14.499 35
c5.33301 13.333 6 24.166 2 32.499s-13.667 12.5 -29 12.5h-10l21 43c5.33301 1.33301 11 2.66602 17 3.99902c5.33301 1.33301 11.166 2.33301 17.499 3s12.833 1 19.5 1c38 0 61.667 -10.5 71 -31.5s5 -53.5 -13 -97.5l-16.5 -41l-21.5 -52l-25 -62
c-5.33301 -13.333 -4.66602 -22.666 2.00098 -27.999s15.834 -6.83301 27.501 -4.5s24.167 8.5 37.5 18.5s24.333 24 33 42zM233.002 431.001l-220 96l61 106l179 -163z" />
    <glyph glyph-name="iacute" unicode="&#xed;" horiz-adv-x="198" 
d="M215 106c-6.66699 -16 -15.832 -30.832 -27.499 -44.499s-24.667 -25.5 -39 -35.5s-29.666 -18 -45.999 -24s-32.5 -9 -48.5 -9c-32.667 0 -55.334 10.667 -68.001 32s-10.334 53 6.99902 95l15.5 36.5l21.5 51.5l20.5 51c6.33301 16 11.166 27.667 14.499 35
c5.33301 13.333 6 24.166 2 32.499s-13.667 12.5 -29 12.5h-10l21 43c5.33301 1.33301 11 2.66602 17 3.99902c5.33301 1.33301 11.166 2.33301 17.499 3s12.833 1 19.5 1c38 0 61.667 -10.5 71 -31.5s5 -53.5 -13 -97.5l-16.5 -41l-21.5 -52l-25 -62
c-5.33301 -13.333 -4.66602 -22.666 2.00098 -27.999s15.834 -6.83301 27.501 -4.5s24.167 8.5 37.5 18.5s24.333 24 33 42zM60.002 470.001l179 163l61 -106l-220 -96z" />
    <glyph glyph-name="icircumflex" unicode="&#xee;" horiz-adv-x="198" 
d="M215 106c-6.66699 -16 -15.832 -30.832 -27.499 -44.499s-24.667 -25.5 -39 -35.5s-29.666 -18 -45.999 -24s-32.5 -9 -48.5 -9c-32.667 0 -55.334 10.667 -68.001 32s-10.334 53 6.99902 95l15.5 36.5l21.5 51.5l20.5 51c6.33301 16 11.166 27.667 14.499 35
c5.33301 13.333 6 24.166 2 32.499s-13.667 12.5 -29 12.5h-10l21 43c5.33301 1.33301 11 2.66602 17 3.99902c5.33301 1.33301 11.166 2.33301 17.499 3s12.833 1 19.5 1c38 0 61.667 -10.5 71 -31.5s5 -53.5 -13 -97.5l-16.5 -41l-21.5 -52l-25 -62
c-5.33301 -13.333 -4.66602 -22.666 2.00098 -27.999s15.834 -6.83301 27.501 -4.5s24.167 8.5 37.5 18.5s24.333 24 33 42zM288.002 598.001l23 -149l-110 -1l6 109l-162 -121l-33 51l187 111h89z" />
    <glyph glyph-name="idieresis" unicode="&#xef;" horiz-adv-x="198" 
d="M215 106c-6.66699 -16 -15.832 -30.832 -27.499 -44.499s-24.667 -25.5 -39 -35.5s-29.666 -18 -45.999 -24s-32.5 -9 -48.5 -9c-32.667 0 -55.334 10.667 -68.001 32s-10.334 53 6.99902 95l15.5 36.5l21.5 51.5l20.5 51c6.33301 16 11.166 27.667 14.499 35
c5.33301 13.333 6 24.166 2 32.499s-13.667 12.5 -29 12.5h-10l21 43c5.33301 1.33301 11 2.66602 17 3.99902c5.33301 1.33301 11.166 2.33301 17.499 3s12.833 1 19.5 1c38 0 61.667 -10.5 71 -31.5s5 -53.5 -13 -97.5l-16.5 -41l-21.5 -52l-25 -62
c-5.33301 -13.333 -4.66602 -22.666 2.00098 -27.999s15.834 -6.83301 27.501 -4.5s24.167 8.5 37.5 18.5s24.333 24 33 42zM153.002 498.001c0 -14 -4.83301 -25.667 -14.5 -35s-21.834 -14 -36.501 -14c-13.333 0 -25 4.66699 -35 14s-15 21 -15 35
c0 14.667 5 26.834 15 36.501s21.667 14.5 35 14.5c14.667 0 26.834 -4.83301 36.501 -14.5s14.5 -21.834 14.5 -36.501zM279.002 498.001c0 -14 -5 -25.667 -15 -35s-21.667 -14 -35 -14c-14.667 0 -26.834 4.66699 -36.501 14s-14.5 21 -14.5 35
c0 14.667 4.83301 26.834 14.5 36.501s21.834 14.5 36.501 14.5c13.333 0 25 -4.83301 35 -14.5s15 -21.834 15 -36.501z" />
    <glyph glyph-name="eth" unicode="&#xf0;" horiz-adv-x="371" 
d="M386 466c6 -25.333 7.50293 -54.6699 4.50293 -88.0029s-9.66699 -67.5 -20 -102.5s-24.166 -69.5 -41.499 -103.5s-37.5 -64.167 -60.5 -90.5s-48.333 -47.666 -76 -63.999s-57.167 -24.5 -88.5 -24.5c-24.667 0 -45.167 5.33301 -61.5 16s-28.333 25 -36 43
s-10.834 39 -9.50098 63s8 49.667 20 77c22 47.333 46.5 85 73.5 113s53.5 48.5 79.5 61.5s49.5 20.167 70.5 21.5s36.5 -0.666992 46.5 -6c1.33301 6.66699 2.66602 14.834 3.99902 24.501s2 19.834 2 30.501l-96 -30l11 56l70 22c-8 8 -18.333 12 -31 12h-10l10 43
c4.66699 0.666992 10 1.66699 16 3c5.33301 1.33301 10.833 2.33301 16.5 3s12.167 1 19.5 1c15.333 0 28.666 -3 39.999 -9s20.666 -14.333 27.999 -25l79 25l-11 -56zM234.003 190.996c6 15.333 11.834 31.668 17.501 49.001l15.5 49c5.33301 17.333 10.333 35.333 15 54
c-3.33301 1.33301 -7 2.66602 -11 3.99902c-8.66699 2.66699 -18.334 3 -29.001 1c-8 -2 -16.833 -7.33301 -26.5 -16s-19.5 -20 -29.5 -34s-19.833 -30.167 -29.5 -48.5s-18.5 -37.833 -26.5 -58.5c-8 -20 -14.667 -39.167 -20 -57.5s-8.5 -34.5 -9.5 -48.5
s0 -25.167 3 -33.5s8.5 -12.5 16.5 -12.5s17 4.16699 27 12.5s20 19.5 30 33.5s20 30.167 30 48.5s19 37.5 27 57.5z" />
    <glyph glyph-name="ntilde" unicode="&#xf1;" horiz-adv-x="386" 
d="M90 88c-5.33301 -14 -6.00195 -25.001 -2.00195 -33.001s13.667 -12 29 -12h10l-20 -43c-5.33301 -1.33301 -11 -2.66602 -17 -3.99902c-10 -2 -22.333 -3 -37 -3c-38 0 -61.833 10.333 -71.5 31s-5.5 53 12.5 97l71 173c6 13.333 7 24.166 3 32.499
s-13.667 12.5 -29 12.5h-10l20 43c5.33301 1.33301 11 2.66602 17 3.99902c5.33301 1.33301 11.166 2.33301 17.499 3s12.833 1 19.5 1c45.333 0 70.333 -15.667 75 -47c16 14.667 33.667 26.167 53 34.5s38.666 12.5 57.999 12.5c32.667 0 55.334 -10.667 68.001 -32
s10.334 -53 -6.99902 -95l-14 -35.5l-19 -46.5l-18.5 -45c-5.66699 -14 -9.83398 -24 -12.501 -30c-5.33301 -12.667 -4.66602 -21.667 2.00098 -27s15.834 -7 27.501 -5s24.167 8 37.5 18s24.333 24 33 42l17 -28c-6.66699 -16 -15.834 -30.833 -27.501 -44.5
s-24.667 -25.5 -39 -35.5s-29.666 -18 -45.999 -24s-32.5 -9 -48.5 -9s-29.833 2.66699 -41.5 8s-20.5 13.333 -26.5 24s-8.66699 24 -8 40s5.33398 34.333 14.001 55l65 156c4 10 4.16699 17.833 0.5 23.5s-9.5 8.66699 -17.5 9s-17.5 -1.66699 -28.5 -6
s-21.5 -11.5 -31.5 -21.5c-1.33301 -3.33301 -2.5 -6.66602 -3.5 -9.99902s-2.16699 -6.66602 -3.5 -9.99902c-4 -10.667 -9.66699 -24.667 -17 -42l-21.5 -52.5l-20 -48.5c-6.33301 -14.667 -10.5 -24.667 -12.5 -30zM109.998 488.999
c20.667 28.667 44.665 51.835 71.998 69.502s55 28.5 83 32.5c19.333 2.66699 32.5 0.5 39.5 -6.5s11.833 -15 14.5 -24s5 -17.333 7 -25s7.66699 -10.834 17 -9.50098s18.333 5.33301 27 12s16.667 13.667 24 21c8 8.66699 15.667 18.667 23 30l33 -32
c-12.667 -16.667 -27.334 -32 -44.001 -46c-14 -12 -30.5 -23.333 -49.5 -34s-39.5 -17.667 -61.5 -21c-15.333 -2 -27.166 -1.66699 -35.499 1s-14.666 6.5 -18.999 11.5s-7.16602 10.667 -8.49902 17s-2.5 12.166 -3.5 17.499s-2.5 9.66602 -4.5 12.999
s-5.66699 4.66602 -11 3.99902c-8.66699 -1.33301 -17.167 -5.16602 -25.5 -11.499s-15.833 -13.166 -22.5 -20.499c-8 -8.66699 -15.667 -18 -23 -28z" />
    <glyph glyph-name="ograve" unicode="&#xf2;" horiz-adv-x="364" 
d="M257 390c24 0 44.166 -5.16699 60.499 -15.5s28.166 -24.5 35.499 -42.5s10.333 -39 9 -63s-7.33301 -49.667 -18 -77c-12 -31.333 -26.667 -59.166 -44 -83.499s-36.5 -45.166 -57.5 -62.499s-43.333 -30.5 -67 -39.5s-48.167 -13.5 -73.5 -13.5
c-24.667 0 -45 5.16699 -61 15.5s-27.667 24.5 -35 42.5s-10.166 39.167 -8.49902 63.5s7.83398 50.166 18.501 77.499c25.333 63.333 58.833 112.166 100.5 146.499s88.5 51.5 140.5 51.5zM231.999 191c8 20.667 14.501 40.334 19.501 59.001s8.16699 35.167 9.5 49.5
s0.666016 25.833 -2.00098 34.5s-8 13 -16 13s-17 -4.33301 -27 -13s-20.167 -20.167 -30.5 -34.5s-20.5 -30.833 -30.5 -49.5s-19 -38.334 -27 -59.001c-8 -20 -14.667 -39.167 -20 -57.5s-8.5 -34.5 -9.5 -48.5s0.166992 -25.167 3.5 -33.5s9 -12.5 17 -12.5
s16.833 4.16699 26.5 12.5s19.5 19.5 29.5 33.5s20 30.167 30 48.5s19 37.5 27 57.5zM349 431l-220 96l61 106l179 -163z" />
    <glyph glyph-name="oacute" unicode="&#xf3;" horiz-adv-x="364" 
d="M257 390c24 0 44.166 -5.16699 60.499 -15.5s28.166 -24.5 35.499 -42.5s10.333 -39 9 -63s-7.33301 -49.667 -18 -77c-12 -31.333 -26.667 -59.166 -44 -83.499s-36.5 -45.166 -57.5 -62.499s-43.333 -30.5 -67 -39.5s-48.167 -13.5 -73.5 -13.5
c-24.667 0 -45 5.16699 -61 15.5s-27.667 24.5 -35 42.5s-10.166 39.167 -8.49902 63.5s7.83398 50.166 18.501 77.499c25.333 63.333 58.833 112.166 100.5 146.499s88.5 51.5 140.5 51.5zM231.999 191c8 20.667 14.501 40.334 19.501 59.001s8.16699 35.167 9.5 49.5
s0.666016 25.833 -2.00098 34.5s-8 13 -16 13s-17 -4.33301 -27 -13s-20.167 -20.167 -30.5 -34.5s-20.5 -30.833 -30.5 -49.5s-19 -38.334 -27 -59.001c-8 -20 -14.667 -39.167 -20 -57.5s-8.5 -34.5 -9.5 -48.5s0.166992 -25.167 3.5 -33.5s9 -12.5 17 -12.5
s16.833 4.16699 26.5 12.5s19.5 19.5 29.5 33.5s20 30.167 30 48.5s19 37.5 27 57.5zM185 470l179 163l61 -106l-220 -96z" />
    <glyph glyph-name="ocircumflex" unicode="&#xf4;" horiz-adv-x="364" 
d="M257 390c24 0 44.166 -5.16699 60.499 -15.5s28.166 -24.5 35.499 -42.5s10.333 -39 9 -63s-7.33301 -49.667 -18 -77c-12 -31.333 -26.667 -59.166 -44 -83.499s-36.5 -45.166 -57.5 -62.499s-43.333 -30.5 -67 -39.5s-48.167 -13.5 -73.5 -13.5
c-24.667 0 -45 5.16699 -61 15.5s-27.667 24.5 -35 42.5s-10.166 39.167 -8.49902 63.5s7.83398 50.166 18.501 77.499c25.333 63.333 58.833 112.166 100.5 146.499s88.5 51.5 140.5 51.5zM231.999 191c8 20.667 14.501 40.334 19.501 59.001s8.16699 35.167 9.5 49.5
s0.666016 25.833 -2.00098 34.5s-8 13 -16 13s-17 -4.33301 -27 -13s-20.167 -20.167 -30.5 -34.5s-20.5 -30.833 -30.5 -49.5s-19 -38.334 -27 -59.001c-8 -20 -14.667 -39.167 -20 -57.5s-8.5 -34.5 -9.5 -48.5s0.166992 -25.167 3.5 -33.5s9 -12.5 17 -12.5
s16.833 4.16699 26.5 12.5s19.5 19.5 29.5 33.5s20 30.167 30 48.5s19 37.5 27 57.5zM431 598l26 -144l-120 -1l6 105l-176 -117l-36 49l203 108h97z" />
    <glyph glyph-name="otilde" unicode="&#xf5;" horiz-adv-x="364" 
d="M257 390c24 0 44.166 -5.16699 60.499 -15.5s28.166 -24.5 35.499 -42.5s10.333 -39 9 -63s-7.33301 -49.667 -18 -77c-12 -31.333 -26.667 -59.166 -44 -83.499s-36.5 -45.166 -57.5 -62.499s-43.333 -30.5 -67 -39.5s-48.167 -13.5 -73.5 -13.5
c-24.667 0 -45 5.16699 -61 15.5s-27.667 24.5 -35 42.5s-10.166 39.167 -8.49902 63.5s7.83398 50.166 18.501 77.499c25.333 63.333 58.833 112.166 100.5 146.499s88.5 51.5 140.5 51.5zM231.999 191c8 20.667 14.501 40.334 19.501 59.001s8.16699 35.167 9.5 49.5
s0.666016 25.833 -2.00098 34.5s-8 13 -16 13s-17 -4.33301 -27 -13s-20.167 -20.167 -30.5 -34.5s-20.5 -30.833 -30.5 -49.5s-19 -38.334 -27 -59.001c-8 -20 -14.667 -39.167 -20 -57.5s-8.5 -34.5 -9.5 -48.5s0.166992 -25.167 3.5 -33.5s9 -12.5 17 -12.5
s16.833 4.16699 26.5 12.5s19.5 19.5 29.5 33.5s20 30.167 30 48.5s19 37.5 27 57.5zM141 489c20.667 28.667 44.665 51.835 71.998 69.502s55 28.5 83 32.5c19.333 2.66699 32.5 0.5 39.5 -6.5s11.833 -15 14.5 -24s5 -17.333 7 -25s7.66699 -10.834 17 -9.50098
s18.333 5.33301 27 12s16.667 13.667 24 21c8 8.66699 15.667 18.667 23 30l33 -32c-12.667 -16.667 -27.334 -32 -44.001 -46c-14 -12 -30.5 -23.333 -49.5 -34s-39.5 -17.667 -61.5 -21c-15.333 -2 -27.166 -1.66699 -35.499 1s-14.666 6.5 -18.999 11.5
s-7.16602 10.667 -8.49902 17s-2.5 12.166 -3.5 17.499s-2.5 9.66602 -4.5 12.999s-5.66699 4.66602 -11 3.99902c-8.66699 -1.33301 -17.167 -5.16602 -25.5 -11.499s-15.833 -13.166 -22.5 -20.499c-8 -8.66699 -15.667 -18 -23 -28z" />
    <glyph glyph-name="odieresis" unicode="&#xf6;" horiz-adv-x="364" 
d="M257 390c24 0 44.166 -5.16699 60.499 -15.5s28.166 -24.5 35.499 -42.5s10.333 -39 9 -63s-7.33301 -49.667 -18 -77c-12 -31.333 -26.667 -59.166 -44 -83.499s-36.5 -45.166 -57.5 -62.499s-43.333 -30.5 -67 -39.5s-48.167 -13.5 -73.5 -13.5
c-24.667 0 -45 5.16699 -61 15.5s-27.667 24.5 -35 42.5s-10.166 39.167 -8.49902 63.5s7.83398 50.166 18.501 77.499c25.333 63.333 58.833 112.166 100.5 146.499s88.5 51.5 140.5 51.5zM231.999 191c8 20.667 14.501 40.334 19.501 59.001s8.16699 35.167 9.5 49.5
s0.666016 25.833 -2.00098 34.5s-8 13 -16 13s-17 -4.33301 -27 -13s-20.167 -20.167 -30.5 -34.5s-20.5 -30.833 -30.5 -49.5s-19 -38.334 -27 -59.001c-8 -20 -14.667 -39.167 -20 -57.5s-8.5 -34.5 -9.5 -48.5s0.166992 -25.167 3.5 -33.5s9 -12.5 17 -12.5
s16.833 4.16699 26.5 12.5s19.5 19.5 29.5 33.5s20 30.167 30 48.5s19 37.5 27 57.5zM275 499c0 -16.667 -5.66699 -30.667 -17 -42s-25.666 -17 -42.999 -17c-16 0 -30 5.66699 -42 17s-18 25.333 -18 42c0 17.333 6 31.666 18 42.999s26 17 42 17
c17.333 0 31.666 -5.66699 42.999 -17s17 -25.666 17 -42.999zM425 499c0 -16.667 -6 -30.667 -18 -42s-26 -17 -42 -17c-17.333 0 -31.666 5.66699 -42.999 17s-17 25.333 -17 42c0 17.333 5.66699 31.666 17 42.999s25.666 17 42.999 17c16 0 30 -5.66699 42 -17
s18 -25.666 18 -42.999z" />
    <glyph glyph-name="divide" unicode="&#xf7;" horiz-adv-x="495" 
d="M256 59c0 -18 -6.5 -33.5 -19.5 -46.5s-28.833 -19.5 -47.5 -19.5s-34.5 6.5 -47.5 19.5s-19.5 28.5 -19.5 46.5c0 18.667 6.5 34.5 19.5 47.5s28.833 19.5 47.5 19.5s34.5 -6.5 47.5 -19.5s19.5 -28.833 19.5 -47.5zM366 319c0 -18 -6.5 -33.5 -19.5 -46.5
s-28.833 -19.5 -47.5 -19.5s-34.5 6.5 -47.5 19.5s-19.5 28.5 -19.5 46.5c0 18.667 6.5 34.5 19.5 47.5s28.833 19.5 47.5 19.5s34.5 -6.5 47.5 -19.5s19.5 -28.833 19.5 -47.5zM123 229h282l-29 -69h-282z" />
    <glyph glyph-name="oslash" unicode="&#xf8;" horiz-adv-x="364" 
d="M257 390c13.333 0 25.5 -1.83496 36.5 -5.50195s20.833 -8.5 29.5 -14.5l26 26h62l-60 -61c8.66699 -18 12.5 -39.333 11.5 -64s-7.16699 -51 -18.5 -79c-12 -31.333 -26.667 -59.166 -44 -83.499s-36.5 -45.166 -57.5 -62.499s-43.333 -30.5 -67 -39.5
s-48.167 -13.5 -73.5 -13.5c-28 0 -50.667 6.66699 -68 20l-15 -15h-61l49 50c-7.33301 18 -10.5 39.333 -9.5 64s7.16699 51.334 18.5 80.001c25.333 63.333 58.833 112.166 100.5 146.499s88.5 51.5 140.5 51.5zM232 190.998c2.66699 6 5 12.167 7 18.5l6 18.5l-147 -149
c-1.33301 -26.667 5.66699 -40 21 -40c8 0 16.833 4.16699 26.5 12.5s19.5 19.5 29.5 33.5s20 30.167 30 48.5s19 37.5 27 57.5zM128 190.998c-4.66699 -10.667 -8.66699 -21.332 -12 -31.999l145 148c0.666992 12 -0.333008 21.667 -3 29s-7.66699 11 -15 11
c-8 0 -17 -4.33301 -27 -13s-20.167 -20.167 -30.5 -34.5s-20.5 -30.833 -30.5 -49.5s-19 -38.334 -27 -59.001z" />
    <glyph glyph-name="ugrave" unicode="&#xf9;" horiz-adv-x="390" 
d="M290 106c-5.33301 -12.667 -4.66406 -21.665 2.00293 -26.998s15.834 -7 27.501 -5s24.167 8 37.5 18s24.333 24 33 42l17 -28c-6.66699 -16 -15.834 -30.833 -27.501 -44.5s-24.667 -25.5 -39 -35.5s-29.666 -18 -45.999 -24s-32.5 -9 -48.5 -9
c-20.667 0 -37.334 4.33301 -50.001 13s-20.667 21.667 -24 39c-16.667 -16 -35.5 -28.667 -56.5 -38s-41.5 -14 -61.5 -14c-16 0 -29.833 2.66699 -41.5 8s-20.334 13.333 -26.001 24s-8.16699 24 -7.5 40s5.33398 34.333 14.001 55l15.5 36.5l21.5 51.5l20.5 51
c6.33301 16 11.166 27.667 14.499 35c6 13.333 7 24.166 3 32.499s-13.667 12.5 -29 12.5h-10l20 43c5.33301 1.33301 11 2.66602 17 3.99902c5.33301 1.33301 11.166 2.33301 17.499 3s13.166 1 20.499 1c38 0 61.667 -10.5 71 -31.5s4.66602 -53.5 -14.001 -97.5
l-16.5 -41l-21.5 -52l-25 -62c-4 -11.333 -3.83301 -19.833 0.5 -25.5s10.833 -8.5 19.5 -8.5s18.667 2.83301 30 8.5s22 14.167 32 25.5c0.666992 2.66699 1.33398 5 2.00098 7s1.66699 4.33301 3 7l108 262h111zM351.002 431.002l-220 96l61 106l179 -163z" />
    <glyph glyph-name="uacute" unicode="&#xfa;" horiz-adv-x="390" 
d="M290 106c-5.33301 -12.667 -4.66406 -21.665 2.00293 -26.998s15.834 -7 27.501 -5s24.167 8 37.5 18s24.333 24 33 42l17 -28c-6.66699 -16 -15.834 -30.833 -27.501 -44.5s-24.667 -25.5 -39 -35.5s-29.666 -18 -45.999 -24s-32.5 -9 -48.5 -9
c-20.667 0 -37.334 4.33301 -50.001 13s-20.667 21.667 -24 39c-16.667 -16 -35.5 -28.667 -56.5 -38s-41.5 -14 -61.5 -14c-16 0 -29.833 2.66699 -41.5 8s-20.334 13.333 -26.001 24s-8.16699 24 -7.5 40s5.33398 34.333 14.001 55l15.5 36.5l21.5 51.5l20.5 51
c6.33301 16 11.166 27.667 14.499 35c6 13.333 7 24.166 3 32.499s-13.667 12.5 -29 12.5h-10l20 43c5.33301 1.33301 11 2.66602 17 3.99902c5.33301 1.33301 11.166 2.33301 17.499 3s13.166 1 20.499 1c38 0 61.667 -10.5 71 -31.5s4.66602 -53.5 -14.001 -97.5
l-16.5 -41l-21.5 -52l-25 -62c-4 -11.333 -3.83301 -19.833 0.5 -25.5s10.833 -8.5 19.5 -8.5s18.667 2.83301 30 8.5s22 14.167 32 25.5c0.666992 2.66699 1.33398 5 2.00098 7s1.66699 4.33301 3 7l108 262h111zM186.002 470.002l179 163l61 -106l-220 -96z" />
    <glyph glyph-name="ucircumflex" unicode="&#xfb;" horiz-adv-x="390" 
d="M290 106c-5.33301 -12.667 -4.66406 -21.665 2.00293 -26.998s15.834 -7 27.501 -5s24.167 8 37.5 18s24.333 24 33 42l17 -28c-6.66699 -16 -15.834 -30.833 -27.501 -44.5s-24.667 -25.5 -39 -35.5s-29.666 -18 -45.999 -24s-32.5 -9 -48.5 -9
c-20.667 0 -37.334 4.33301 -50.001 13s-20.667 21.667 -24 39c-16.667 -16 -35.5 -28.667 -56.5 -38s-41.5 -14 -61.5 -14c-16 0 -29.833 2.66699 -41.5 8s-20.334 13.333 -26.001 24s-8.16699 24 -7.5 40s5.33398 34.333 14.001 55l15.5 36.5l21.5 51.5l20.5 51
c6.33301 16 11.166 27.667 14.499 35c6 13.333 7 24.166 3 32.499s-13.667 12.5 -29 12.5h-10l20 43c5.33301 1.33301 11 2.66602 17 3.99902c5.33301 1.33301 11.166 2.33301 17.499 3s13.166 1 20.499 1c38 0 61.667 -10.5 71 -31.5s4.66602 -53.5 -14.001 -97.5
l-16.5 -41l-21.5 -52l-25 -62c-4 -11.333 -3.83301 -19.833 0.5 -25.5s10.833 -8.5 19.5 -8.5s18.667 2.83301 30 8.5s22 14.167 32 25.5c0.666992 2.66699 1.33398 5 2.00098 7s1.66699 4.33301 3 7l108 262h111zM399.002 598.002l26 -144l-120 -1l6 105l-176 -117l-36 49
l203 108h97z" />
    <glyph glyph-name="udieresis" unicode="&#xfc;" horiz-adv-x="390" 
d="M290 106c-5.33301 -12.667 -4.66406 -21.665 2.00293 -26.998s15.834 -7 27.501 -5s24.167 8 37.5 18s24.333 24 33 42l17 -28c-6.66699 -16 -15.834 -30.833 -27.501 -44.5s-24.667 -25.5 -39 -35.5s-29.666 -18 -45.999 -24s-32.5 -9 -48.5 -9
c-20.667 0 -37.334 4.33301 -50.001 13s-20.667 21.667 -24 39c-16.667 -16 -35.5 -28.667 -56.5 -38s-41.5 -14 -61.5 -14c-16 0 -29.833 2.66699 -41.5 8s-20.334 13.333 -26.001 24s-8.16699 24 -7.5 40s5.33398 34.333 14.001 55l15.5 36.5l21.5 51.5l20.5 51
c6.33301 16 11.166 27.667 14.499 35c6 13.333 7 24.166 3 32.499s-13.667 12.5 -29 12.5h-10l20 43c5.33301 1.33301 11 2.66602 17 3.99902c5.33301 1.33301 11.166 2.33301 17.499 3s13.166 1 20.499 1c38 0 61.667 -10.5 71 -31.5s4.66602 -53.5 -14.001 -97.5
l-16.5 -41l-21.5 -52l-25 -62c-4 -11.333 -3.83301 -19.833 0.5 -25.5s10.833 -8.5 19.5 -8.5s18.667 2.83301 30 8.5s22 14.167 32 25.5c0.666992 2.66699 1.33398 5 2.00098 7s1.66699 4.33301 3 7l108 262h111zM253.002 499.002c0 -16.667 -5.66699 -30.667 -17 -42
s-25.666 -17 -42.999 -17c-16 0 -30 5.66699 -42 17s-18 25.333 -18 42c0 17.333 6 31.666 18 42.999s26 17 42 17c17.333 0 31.666 -5.66699 42.999 -17s17 -25.666 17 -42.999zM403.002 499.002c0 -16.667 -6 -30.667 -18 -42s-26 -17 -42 -17
c-17.333 0 -31.666 5.66699 -42.999 17s-17 25.333 -17 42c0 17.333 5.66699 31.666 17 42.999s25.666 17 42.999 17c16 0 30 -5.66699 42 -17s18 -25.666 18 -42.999z" />
    <glyph glyph-name="yacute" unicode="&#xfd;" horiz-adv-x="374" 
d="M404 382l-18.499 -43.9961l-22 -53.5l-23.5 -59l-24 -59.5l-58 -142c-25.333 -64.667 -59 -114 -101 -148s-88.667 -51 -140 -51c-21.333 0 -38.5 5 -51.5 15s-21.833 22.667 -26.5 38s-5.5 32.333 -2.5 51s9.5 37 19.5 55c9.33301 15.333 20 28.666 32 39.999
c-6 11.333 -8.83301 24.833 -8.5 40.5s4.83301 34.167 13.5 55.5l15.5 36.5l22 51.5l21 51c6.33301 16 10.833 27.667 13.5 35c6 13.333 7 24.166 3 32.499s-13.667 12.5 -29 12.5h-10l21 43c5.33301 1.33301 11 2.66602 17 3.99902c5.33301 1.33301 11 2.33301 17 3
s12.667 1 20 1c38 0 61.833 -10.5 71.5 -31.5s5.16699 -53.5 -13.5 -97.5l-16.5 -41l-21.5 -52l-25 -62c-4 -11.333 -4 -19.833 0 -25.5s10.167 -8.66699 18.5 -9s18.166 2.16699 29.499 7.5s22 13.666 32 24.999l114 278h111zM196.001 470.004l179 163l61 -106l-220 -96z
M55.001 -6.99609c-14.667 0 -27.333 2 -38 6c-8.66699 -7.33301 -17 -17 -25 -29s-14 -27.667 -18 -47c-4 -16.667 -1.83301 -29.834 6.5 -39.501s19.166 -14.5 32.499 -14.5c12.667 0 25.5 4.66699 38.5 14s25.333 21.333 37 36s22.5 31.167 32.5 49.5s18.333 36.5 25 54.5
c-14.667 -9.33301 -29.667 -16.666 -45 -21.999s-30.666 -8 -45.999 -8z" />
    <glyph glyph-name="thorn" unicode="&#xfe;" horiz-adv-x="391" 
d="M121 -7c-25.333 0 -44.668 8.66699 -58.001 26l-27 -66.5l-13 -31.5c-6 -13.333 -6.83301 -24.166 -2.5 -32.499s13.833 -12.5 28.5 -12.5h10l-21 -43c-5.33301 -1.33301 -11 -2.66602 -17 -3.99902c-5.33301 -1.33301 -11.166 -2.33301 -17.499 -3s-12.833 -1 -19.5 -1
c-38 0 -61.5 10.5 -70.5 31.5s-4.5 53.5 13.5 97.5l19.5 48.5l37 91l45.5 111.5l45 111l36 89c10 24.667 16.333 40 19 46c6 13.333 6.83301 24.166 2.5 32.499s-14.166 12.5 -29.499 12.5h-9l20 43c5.33301 1.33301 11 2.66602 17 3.99902
c5.33301 1.33301 11.166 2.33301 17.499 3s12.833 1 19.5 1c38 0 61.833 -10.5 71.5 -31.5s5.5 -53.5 -12.5 -97.5l-25 -59c30.667 20.667 60.334 31 89.001 31c22.667 0 41.167 -5.16699 55.5 -15.5s24.666 -24.5 30.999 -42.5s8.16602 -39 5.49902 -63
s-9.66699 -49.667 -21 -77c-29.333 -68.667 -65.166 -119 -107.499 -151s-86.5 -48 -132.5 -48zM78.998 59c6.66699 -8 16.332 -11.999 28.999 -11.999c12 0 23.5 2.33301 34.5 7s22 12.5 33 23.5s22.167 25.333 33.5 43s23.666 39.5 36.999 65.5
c9.33301 19.333 16.833 37.666 22.5 54.999s8.83398 32.333 9.50098 45s-1.5 22.667 -6.5 30s-13.167 11 -24.5 11c-21.333 0 -45.666 -11.667 -72.999 -35z" />
    <glyph glyph-name="ydieresis" unicode="&#xff;" horiz-adv-x="374" 
d="M404 382l-18.499 -43.9961l-22 -53.5l-23.5 -59l-24 -59.5l-58 -142c-25.333 -64.667 -59 -114 -101 -148s-88.667 -51 -140 -51c-21.333 0 -38.5 5 -51.5 15s-21.833 22.667 -26.5 38s-5.5 32.333 -2.5 51s9.5 37 19.5 55c9.33301 15.333 20 28.666 32 39.999
c-6 11.333 -8.83301 24.833 -8.5 40.5s4.83301 34.167 13.5 55.5l15.5 36.5l22 51.5l21 51c6.33301 16 10.833 27.667 13.5 35c6 13.333 7 24.166 3 32.499s-13.667 12.5 -29 12.5h-10l21 43c5.33301 1.33301 11 2.66602 17 3.99902c5.33301 1.33301 11 2.33301 17 3
s12.667 1 20 1c38 0 61.833 -10.5 71.5 -31.5s5.16699 -53.5 -13.5 -97.5l-16.5 -41l-21.5 -52l-25 -62c-4 -11.333 -4 -19.833 0 -25.5s10.167 -8.66699 18.5 -9s18.166 2.16699 29.499 7.5s22 13.666 32 24.999l114 278h111zM55.001 -6.99609c-14.667 0 -27.333 2 -38 6
c-8.66699 -7.33301 -17 -17 -25 -29s-14 -27.667 -18 -47c-4 -16.667 -1.83301 -29.834 6.5 -39.501s19.166 -14.5 32.499 -14.5c12.667 0 25.5 4.66699 38.5 14s25.333 21.333 37 36s22.5 31.167 32.5 49.5s18.333 36.5 25 54.5
c-14.667 -9.33301 -29.667 -16.666 -45 -21.999s-30.666 -8 -45.999 -8zM254.002 499.004c0 -16.667 -5.66699 -30.667 -17 -42s-25.666 -17 -42.999 -17c-16 0 -30 5.66699 -42 17s-18 25.333 -18 42c0 17.333 6 31.666 18 42.999s26 17 42 17
c17.333 0 31.666 -5.66699 42.999 -17s17 -25.666 17 -42.999zM404.002 499.004c0 -16.667 -6 -30.667 -18 -42s-26 -17 -42 -17c-17.333 0 -31.666 5.66699 -42.999 17s-17 25.333 -17 42c0 17.333 5.66699 31.666 17 42.999s25.666 17 42.999 17c16 0 30 -5.66699 42 -17
s18 -25.666 18 -42.999z" />
    <glyph glyph-name="Amacron" unicode="&#x100;" horiz-adv-x="481" 
d="M500 105c-5.33301 -16 -13.6699 -30.8301 -25.0029 -44.4971s-24.166 -25.834 -38.499 -36.501s-29.5 -19 -45.5 -25s-32 -9 -48 -9c-32.667 0 -56.167 10.833 -70.5 32.5s-14.166 53.5 0.500977 95.5l16 43h-127l-34 -74c-7.33301 -18 -9 -30.167 -5 -36.5
s13.667 -9.5 29 -9.5h9l-32 -43l-22 -4c-6.66699 -1.33301 -13.5 -2.33301 -20.5 -3s-13.833 -1 -20.5 -1c-38 0 -59 10.5 -63 31.5s9 53.833 39 98.5l27 40.5l34.5 51.5l32.5 48l21 31l69.5 97c20.333 28.667 40 53 59 73s38.667 35.333 59 46s43.166 16 68.499 16
c16 0 30.167 -2.66699 42.5 -8s21.833 -13.333 28.5 -24s10.334 -24 11.001 -40s-2.66602 -34.333 -9.99902 -55l-102 -291c-4.66699 -12.667 -3.5 -21.834 3.5 -27.501s16.167 -7.33398 27.5 -5.00098s23.5 8.5 36.5 18.5s23.167 24 30.5 42zM305.996 212.003
l70.001 196.997c6 17.333 8 30.833 6 40.5s-7 14.334 -15 14.001s-18.833 -6.16602 -32.5 -17.499s-28.834 -29 -45.501 -53c-17.333 -25.333 -34.833 -54.166 -52.5 -86.499l-49.5 -94.5h119zM310.997 633h282l-29 -69h-282z" />
    <glyph glyph-name="amacron" unicode="&#x101;" 
d="M258 390c26 0 45.6641 -9.33301 58.9971 -28c2 4.66699 3.5 8.83398 4.5 12.501s2.16699 6.16699 3.5 7.5h110c-2 -6 -6 -16.333 -12 -31l-21 -50.5l-25 -60l-24.5 -59.5l-20 -48.5c-5.66699 -13.667 -9.16699 -22.5 -10.5 -26.5
c-5.33301 -12.667 -4.66602 -21.667 2.00098 -27s15.667 -7 27 -5s23.833 8 37.5 18s24.834 24 33.501 42l17 -28c-6.66699 -16 -15.834 -30.833 -27.501 -44.5s-24.667 -25.5 -39 -35.5s-29.666 -18 -45.999 -24s-32.5 -9 -48.5 -9c-20.667 0 -37.5 4.33301 -50.5 13
s-21.167 21.667 -24.5 39c-19.333 -16 -38.833 -28.667 -58.5 -38s-38.5 -14 -56.5 -14c-22.667 0 -41.167 5.16699 -55.5 15.5s-24.5 24.5 -30.5 42.5s-7.83301 39.167 -5.5 63.5s9.5 50.166 21.5 77.499c28.667 68 64.334 118 107.001 150s87 48 133 48zM299.997 323
c-6 9.33301 -15.6641 13.999 -28.9971 13.999c-12.667 0 -24.5 -2.5 -35.5 -7.5s-22 -13 -33 -24s-22.167 -25.5 -33.5 -43.5s-23.333 -40 -36 -66c-10 -19.333 -17.833 -37.5 -23.5 -54.5s-8.83398 -31.833 -9.50098 -44.5s1.5 -22.667 6.5 -30s13.167 -11 24.5 -11
s23.666 3.33301 36.999 10s26.666 16 39.999 28c2 8.66699 5 17.334 9 26.001zM214 554.999h282l-29 -69h-282z" />
    <glyph glyph-name="Abreve" unicode="&#x102;" horiz-adv-x="481" 
d="M500 105c-5.33301 -16 -13.6699 -30.8301 -25.0029 -44.4971s-24.166 -25.834 -38.499 -36.501s-29.5 -19 -45.5 -25s-32 -9 -48 -9c-32.667 0 -56.167 10.833 -70.5 32.5s-14.166 53.5 0.500977 95.5l16 43h-127l-34 -74c-7.33301 -18 -9 -30.167 -5 -36.5
s13.667 -9.5 29 -9.5h9l-32 -43l-22 -4c-6.66699 -1.33301 -13.5 -2.33301 -20.5 -3s-13.833 -1 -20.5 -1c-38 0 -59 10.5 -63 31.5s9 53.833 39 98.5l27 40.5l34.5 51.5l32.5 48l21 31l69.5 97c20.333 28.667 40 53 59 73s38.667 35.333 59 46s43.166 16 68.499 16
c16 0 30.167 -2.66699 42.5 -8s21.833 -13.333 28.5 -24s10.334 -24 11.001 -40s-2.66602 -34.333 -9.99902 -55l-102 -291c-4.66699 -12.667 -3.5 -21.834 3.5 -27.501s16.167 -7.33398 27.5 -5.00098s23.5 8.5 36.5 18.5s23.167 24 30.5 42zM305.996 212.003
l70.001 196.997c6 17.333 8 30.833 6 40.5s-7 14.334 -15 14.001s-18.833 -6.16602 -32.5 -17.499s-28.834 -29 -45.501 -53c-17.333 -25.333 -34.833 -54.166 -52.5 -86.499l-49.5 -94.5h119zM622.997 697c-9.33301 -19.333 -20.9971 -37.332 -34.9971 -53.999
s-29.167 -31.167 -45.5 -43.5s-33.333 -22.166 -51 -29.499s-34.5 -11 -50.5 -11s-29.167 3.5 -39.5 10.5s-17.833 16.667 -22.5 29s-6.33398 26.666 -5.00098 42.999s6 33.5 14 51.5l47 1c-10.667 -22 -12.5 -40.833 -5.5 -56.5s19.833 -23.5 38.5 -23.5
c9.33301 0 19.166 2.16699 29.499 6.5s20.5 10.166 30.5 17.499s19.167 15.833 27.5 25.5s15.166 20.167 20.499 31.5z" />
    <glyph glyph-name="abreve" unicode="&#x103;" 
d="M258 390c26 0 45.6641 -9.33301 58.9971 -28c2 4.66699 3.5 8.83398 4.5 12.501s2.16699 6.16699 3.5 7.5h110c-2 -6 -6 -16.333 -12 -31l-21 -50.5l-25 -60l-24.5 -59.5l-20 -48.5c-5.66699 -13.667 -9.16699 -22.5 -10.5 -26.5
c-5.33301 -12.667 -4.66602 -21.667 2.00098 -27s15.667 -7 27 -5s23.833 8 37.5 18s24.834 24 33.501 42l17 -28c-6.66699 -16 -15.834 -30.833 -27.501 -44.5s-24.667 -25.5 -39 -35.5s-29.666 -18 -45.999 -24s-32.5 -9 -48.5 -9c-20.667 0 -37.5 4.33301 -50.5 13
s-21.167 21.667 -24.5 39c-19.333 -16 -38.833 -28.667 -58.5 -38s-38.5 -14 -56.5 -14c-22.667 0 -41.167 5.16699 -55.5 15.5s-24.5 24.5 -30.5 42.5s-7.83301 39.167 -5.5 63.5s9.5 50.166 21.5 77.499c28.667 68 64.334 118 107.001 150s87 48 133 48zM299.997 323
c-6 9.33301 -15.6641 13.999 -28.9971 13.999c-12.667 0 -24.5 -2.5 -35.5 -7.5s-22 -13 -33 -24s-22.167 -25.5 -33.5 -43.5s-23.333 -40 -36 -66c-10 -19.333 -17.833 -37.5 -23.5 -54.5s-8.83398 -31.833 -9.50098 -44.5s1.5 -22.667 6.5 -30s13.167 -11 24.5 -11
s23.666 3.33301 36.999 10s26.666 16 39.999 28c2 8.66699 5 17.334 9 26.001zM494 590.999c-9.33301 -19.333 -20.9971 -37.332 -34.9971 -53.999s-29.167 -31.167 -45.5 -43.5s-33.333 -22.166 -51 -29.499s-34.5 -11 -50.5 -11s-29.167 3.5 -39.5 10.5
s-17.833 16.667 -22.5 29s-6.33398 26.666 -5.00098 42.999s6 33.5 14 51.5l47 1c-10.667 -22 -12.5 -40.833 -5.5 -56.5s19.833 -23.5 38.5 -23.5c9.33301 0 19.166 2.16699 29.499 6.5s20.5 10.166 30.5 17.499s19.167 15.833 27.5 25.5s15.166 20.167 20.499 31.5z" />
    <glyph glyph-name="Aogonek" unicode="&#x104;" horiz-adv-x="481" 
d="M448 -79c-6.66699 -16 -15.833 -30.8271 -27.5 -44.4941s-24.667 -25.5 -39 -35.5s-29.666 -18 -45.999 -24s-32.5 -9 -48.5 -9s-30 3.33301 -42 10s-20.833 15.667 -26.5 27s-7.5 24.166 -5.5 38.499s9.33301 29.166 22 44.499c9.33301 11.333 21.666 22.333 36.999 33
s31.333 21 48 31c-25.333 4.66699 -42.833 17.667 -52.5 39s-7.83398 50.333 5.49902 87l16 43h-127l-34 -74c-7.33301 -18 -9 -30.167 -5 -36.5s13.667 -9.5 29 -9.5h9l-32 -43l-22 -4c-6.66699 -1.33301 -13.5 -2.33301 -20.5 -3s-13.833 -1 -20.5 -1
c-38 0 -59 10.5 -63 31.5s9 53.833 39 98.5l27 40.5l34.5 51.5l32.5 48l21 31l69.5 97c20.333 28.667 40 53 59 73s38.667 35.333 59 46s43.166 16 68.499 16c16 0 30.167 -2.66699 42.5 -8s21.833 -13.333 28.5 -24s10.334 -24 11.001 -40s-2.66602 -34.333 -9.99902 -55
l-102 -291c-4.66699 -12.667 -3.5 -21.834 3.5 -27.501s16.167 -7.33398 27.5 -5.00098s23.5 8.5 36.5 18.5s23.167 24 30.5 42l19 -28c-5.33301 -14.667 -12.833 -28.5 -22.5 -41.5s-21.167 -24.833 -34.5 -35.5c-6 -6 -14 -12.5 -24 -19.5s-20.5 -14.833 -31.5 -23.5
s-21.667 -18.334 -32 -29.001s-18.5 -22.334 -24.5 -35.001s-6 -21.667 0 -27s15 -7 27 -5s24.833 8 38.5 18s25.167 24 34.5 42zM306.001 212.006l70.001 196.997c6 17.333 8 30.833 6 40.5s-7 14.334 -15 14.001s-18.833 -6.16602 -32.5 -17.499s-28.834 -29 -45.501 -53
c-17.333 -25.333 -34.833 -54.166 -52.5 -86.499l-49.5 -94.5h119z" />
    </font>
</defs>
</svg>
